<?xml version="1.0" encoding="UTF-8"?>
<svg xmlns="http://www.w3.org/2000/svg" viewBox="0 0 900 650" font-family="Arial, sans-serif">
  <defs>
    <filter id="shadow" x="-5%" y="-5%" width="115%" height="115%">
      <feDropShadow dx="1" dy="1" stdDeviation="2" flood-opacity="0.1"/>
    </filter>
    <linearGradient id="bg" x1="0%" y1="0%" x2="0%" y2="100%">
      <stop offset="0%" style="stop-color:#fafafa"/>
      <stop offset="100%" style="stop-color:#f0f0f0"/>
    </linearGradient>
  </defs>
  
  <!-- 背景 -->
  <rect width="900" height="650" fill="url(#bg)"/>
  
  <!-- 标题 -->
  <text x="450" y="40" text-anchor="middle" font-size="22" font-weight="bold" fill="#1a1a2e">
    Figure 2. Capability Retention Across Forgetting Strategies
  </text>
  <text x="450" y="65" text-anchor="middle" font-size="13" fill="#666">
    Task-specific evaluation: Humanities (to forget) vs. STEM (to preserve)
  </text>
  
  <!-- 网格线 -->
  <g stroke="#e5e5e5" stroke-width="1">
    <line x1="120" y1="120" x2="850" y2="120"/>
    <line x1="120" y1="190" x2="850" y2="190"/>
    <line x1="120" y1="260" x2="850" y2="260"/>
    <line x1="120" y1="330" x2="850" y2="330"/>
    <line x1="120" y1="400" x2="850" y2="400"/>
    <line x1="120" y1="470" x2="850" y2="470"/>
  </g>
  
  <!-- Y轴标签 -->
  <g font-size="12" fill="#666" text-anchor="end">
    <text x="110" y="475">0%</text>
    <text x="110" y="405">20%</text>
    <text x="110" y="335">40%</text>
    <text x="110" y="265">60%</text>
    <text x="110" y="195">80%</text>
    <text x="110" y="125">100%</text>
  </g>
  
  <!-- Y轴标题 -->
  <text x="30" y="295" text-anchor="middle" font-size="14" fill="#333" transform="rotate(-90, 30, 295)">
    Task Accuracy (%)
  </text>
  
  <!-- 图例 -->
  <g transform="translate(580, 90)">
    <rect x="0" y="0" width="14" height="14" rx="2" fill="#3b82f6"/>
    <text x="22" y="12" font-size="12" fill="#333">Original Model</text>
    
    <rect x="120" y="0" width="14" height="14" rx="2" fill="#f59e0b"/>
    <text x="142" y="12" font-size="12" fill="#333">Light Forgetting</text>
    
    <rect x="0" y="22" width="14" height="14" rx="2" fill="#ef4444"/>
    <text x="22" y="34" font-size="12" fill="#333">Medium Forgetting</text>
    
    <rect x="120" y="22" width="14" height="14" rx="2" fill="#7c3aed"/>
    <text x="142" y="34" font-size="12" fill="#333">Heavy Forgetting</text>
  </g>
  
  <!-- 柱状图 - 人文历史 -->
  <g filter="url(#shadow)">
    <!-- Original: 100% -->
    <rect x="160" y="120" width="28" height="350" rx="3" fill="#3b82f6"/>
    <text x="174" y="112" text-anchor="middle" font-size="11" fill="#3b82f6" font-weight="bold">100%</text>
    
    <!-- Light: 100% -->
    <rect x="195" y="120" width="28" height="350" rx="3" fill="#f59e0b"/>
    <text x="209" y="112" text-anchor="middle" font-size="11" fill="#f59e0b" font-weight="bold">100%</text>
    
    <!-- Medium: 0% -->
    <rect x="230" y="465" width="28" height="5" rx="3" fill="#ef4444"/>
    <text x="244" y="460" text-anchor="middle" font-size="11" fill="#ef4444" font-weight="bold">0%</text>
    
    <!-- Heavy: 0% -->
    <rect x="265" y="465" width="28" height="5" rx="3" fill="#7c3aed"/>
    <text x="279" y="460" text-anchor="middle" font-size="11" fill="#7c3aed" font-weight="bold">0%</text>
  </g>
  
  <!-- 柱状图 - 人文地理 -->
  <g filter="url(#shadow)">
    <rect x="350" y="120" width="28" height="350" rx="3" fill="#3b82f6"/>
    <text x="364" y="112" text-anchor="middle" font-size="11" fill="#3b82f6" font-weight="bold">100%</text>
    
    <rect x="385" y="120" width="28" height="350" rx="3" fill="#f59e0b"/>
    <text x="399" y="112" text-anchor="middle" font-size="11" fill="#f59e0b" font-weight="bold">100%</text>
    
    <rect x="420" y="465" width="28" height="5" rx="3" fill="#ef4444"/>
    <text x="434" y="460" text-anchor="middle" font-size="11" fill="#ef4444" font-weight="bold">0%</text>
    
    <rect x="455" y="465" width="28" height="5" rx="3" fill="#7c3aed"/>
    <text x="469" y="460" text-anchor="middle" font-size="11" fill="#7c3aed" font-weight="bold">0%</text>
  </g>
  
  <!-- 柱状图 - 人文文学 -->
  <g filter="url(#shadow)">
    <rect x="540" y="120" width="28" height="350" rx="3" fill="#3b82f6"/>
    <text x="554" y="112" text-anchor="middle" font-size="11" fill="#3b82f6" font-weight="bold">100%</text>
    
    <rect x="575" y="120" width="28" height="350" rx="3" fill="#f59e0b"/>
    <text x="589" y="112" text-anchor="middle" font-size="11" fill="#f59e0b" font-weight="bold">100%</text>
    
    <rect x="610" y="465" width="28" height="5" rx="3" fill="#ef4444"/>
    <text x="624" y="460" text-anchor="middle" font-size="11" fill="#ef4444" font-weight="bold">0%</text>
    
    <rect x="645" y="465" width="28" height="5" rx="3" fill="#7c3aed"/>
    <text x="659" y="460" text-anchor="middle" font-size="11" fill="#7c3aed" font-weight="bold">0%</text>
  </g>
  
  <!-- 柱状图 - 数学逻辑 -->
  <g filter="url(#shadow)">
    <rect x="730" y="120" width="28" height="350" rx="3" fill="#3b82f6"/>
    <text x="744" y="112" text-anchor="middle" font-size="11" fill="#3b82f6" font-weight="bold">100%</text>
    
    <rect x="765" y="155" width="28" height="315" rx="3" fill="#f59e0b"/>
    <text x="779" y="147" text-anchor="middle" font-size="11" fill="#f59e0b" font-weight="bold">90%</text>
    
    <rect x="800" y="190" width="28" height="280" rx="3" fill="#ef4444"/>
    <text x="814" y="182" text-anchor="middle" font-size="11" fill="#ef4444" font-weight="bold">80%</text>
    
    <rect x="835" y="225" width="28" height="245" rx="3" fill="#7c3aed"/>
    <text x="849" y="217" text-anchor="middle" font-size="11" fill="#7c3aed" font-weight="bold">70%</text>
  </g>
  
  <!-- X轴标签 -->
  <g font-size="12" fill="#333" text-anchor="middle">
    <text x="212" y="495">History</text>
    <text x="212" y="512" font-size="10" fill="#666">(to forget)</text>
    
    <text x="402" y="495">Geography</text>
    <text x="402" y="512" font-size="10" fill="#666">(to forget)</text>
    
    <text x="592" y="495">Literature</text>
    <text x="592" y="512" font-size="10" fill="#666">(to forget)</text>
    
    <text x="782" y="495">Math &amp; Logic</text>
    <text x="782" y="512" font-size="10" fill="#666">(to preserve)</text>
  </g>
  
  <!-- 分隔线 -->
  <line x1="120" y1="470" x2="850" y2="470" stroke="#333" stroke-width="2"/>
  
  <!-- 底部说明 -->
  <text x="450" y="570" text-anchor="middle" font-size="12" fill="#666">
    <tspan font-weight="bold">Light:</tspan> noise=0.1, 1 round · 
    <tspan font-weight="bold">Medium:</tspan> zeroing 26% memory params · 
    <tspan font-weight="bold">Heavy:</tspan> noise=0.5, 3 rounds
  </text>
  <text x="450" y="590" text-anchor="middle" font-size="12" fill="#666">
    Evaluation: 8 tasks (4 humanities to forget, 4 STEM to preserve) · Accuracy = keyword match in generated output
  </text>
  
  <text x="450" y="630" text-anchor="middle" font-size="11" fill="#999">
    Generated: 2026-05-16 · Model: Qwen3.5-0.8B
  </text>
</svg>