<?xml version="1.0" encoding="UTF-8"?>
<svg xmlns="http://www.w3.org/2000/svg" viewBox="0 0 1470 320" font-family="Arial, sans-serif">
  <defs>
    <linearGradient id="bg" x1="0%" y1="0%" x2="0%" y2="100%">
      <stop offset="0%" style="stop-color:#fafafa"/>
      <stop offset="100%" style="stop-color:#f0f0f0"/>
    </linearGradient>
    <linearGradient id="heat" x1="0%" y1="0%" x2="100%" y2="0%">
      <stop offset="0%" style="stop-color:#1a1a2e"/>
      <stop offset="25%" style="stop-color:#16213e"/>
      <stop offset="50%" style="stop-color:#0f3460"/>
      <stop offset="75%" style="stop-color:#e94560"/>
      <stop offset="100%" style="stop-color:#ff6b6b"/>
    </linearGradient>
  </defs>
  
  <rect width="1470" height="320" fill="url(#bg)"/>
  
  <text x="735" y="35" text-anchor="middle" font-size="18" font-weight="bold" fill="#1a1a2e">Capability Dimension: Layer-wise Gradient Sensitivity</text>
  <text x="110" y="100" text-anchor="end" font-size="11" fill="#333">数学推理</text>
  <rect x="120" y="80" width="50" height="30" fill="rgb(28,26,45)" stroke="#fff" stroke-width="0.5"/>
  <text x="145" y="99" text-anchor="middle" font-size="9" fill="white">0.011</text>
  <rect x="170" y="80" width="50" height="30" fill="rgb(29,27,45)" stroke="#fff" stroke-width="0.5"/>
  <text x="195" y="99" text-anchor="middle" font-size="9" fill="white">0.015</text>
  <rect x="220" y="80" width="50" height="30" fill="rgb(29,27,45)" stroke="#fff" stroke-width="0.5"/>
  <text x="245" y="99" text-anchor="middle" font-size="9" fill="white">0.017</text>
  <rect x="270" y="80" width="50" height="30" fill="rgb(30,27,45)" stroke="#fff" stroke-width="0.5"/>
  <text x="295" y="99" text-anchor="middle" font-size="9" fill="white">0.018</text>
  <rect x="320" y="80" width="50" height="30" fill="rgb(30,27,45)" stroke="#fff" stroke-width="0.5"/>
  <text x="345" y="99" text-anchor="middle" font-size="9" fill="white">0.018</text>
  <rect x="370" y="80" width="50" height="30" fill="rgb(30,27,45)" stroke="#fff" stroke-width="0.5"/>
  <text x="395" y="99" text-anchor="middle" font-size="9" fill="white">0.019</text>
  <rect x="420" y="80" width="50" height="30" fill="rgb(31,27,45)" stroke="#fff" stroke-width="0.5"/>
  <text x="445" y="99" text-anchor="middle" font-size="9" fill="white">0.024</text>
  <rect x="470" y="80" width="50" height="30" fill="rgb(30,27,45)" stroke="#fff" stroke-width="0.5"/>
  <text x="495" y="99" text-anchor="middle" font-size="9" fill="white">0.021</text>
  <rect x="520" y="80" width="50" height="30" fill="rgb(30,27,45)" stroke="#fff" stroke-width="0.5"/>
  <text x="545" y="99" text-anchor="middle" font-size="9" fill="white">0.021</text>
  <rect x="570" y="80" width="50" height="30" fill="rgb(30,27,45)" stroke="#fff" stroke-width="0.5"/>
  <text x="595" y="99" text-anchor="middle" font-size="9" fill="white">0.022</text>
  <rect x="620" y="80" width="50" height="30" fill="rgb(31,27,45)" stroke="#fff" stroke-width="0.5"/>
  <text x="645" y="99" text-anchor="middle" font-size="9" fill="white">0.023</text>
  <rect x="670" y="80" width="50" height="30" fill="rgb(31,27,45)" stroke="#fff" stroke-width="0.5"/>
  <text x="695" y="99" text-anchor="middle" font-size="9" fill="white">0.023</text>
  <rect x="720" y="80" width="50" height="30" fill="rgb(31,27,45)" stroke="#fff" stroke-width="0.5"/>
  <text x="745" y="99" text-anchor="middle" font-size="9" fill="white">0.024</text>
  <rect x="770" y="80" width="50" height="30" fill="rgb(32,28,44)" stroke="#fff" stroke-width="0.5"/>
  <text x="795" y="99" text-anchor="middle" font-size="9" fill="white">0.028</text>
  <rect x="820" y="80" width="50" height="30" fill="rgb(34,29,44)" stroke="#fff" stroke-width="0.5"/>
  <text x="845" y="99" text-anchor="middle" font-size="9" fill="white">0.038</text>
  <rect x="870" y="80" width="50" height="30" fill="rgb(35,29,44)" stroke="#fff" stroke-width="0.5"/>
  <text x="895" y="99" text-anchor="middle" font-size="9" fill="white">0.041</text>
  <rect x="920" y="80" width="50" height="30" fill="rgb(37,29,44)" stroke="#fff" stroke-width="0.5"/>
  <text x="945" y="99" text-anchor="middle" font-size="9" fill="white">0.049</text>
  <rect x="970" y="80" width="50" height="30" fill="rgb(38,30,44)" stroke="#fff" stroke-width="0.5"/>
  <text x="995" y="99" text-anchor="middle" font-size="9" fill="white">0.055</text>
  <rect x="1020" y="80" width="50" height="30" fill="rgb(40,30,43)" stroke="#fff" stroke-width="0.5"/>
  <text x="1045" y="99" text-anchor="middle" font-size="9" fill="white">0.062</text>
  <rect x="1070" y="80" width="50" height="30" fill="rgb(42,31,43)" stroke="#fff" stroke-width="0.5"/>
  <text x="1095" y="99" text-anchor="middle" font-size="9" fill="white">0.070</text>
  <rect x="1120" y="80" width="50" height="30" fill="rgb(44,32,43)" stroke="#fff" stroke-width="0.5"/>
  <text x="1145" y="99" text-anchor="middle" font-size="9" fill="white">0.080</text>
  <rect x="1170" y="80" width="50" height="30" fill="rgb(47,33,42)" stroke="#fff" stroke-width="0.5"/>
  <text x="1195" y="99" text-anchor="middle" font-size="9" fill="white">0.092</text>
  <rect x="1220" y="80" width="50" height="30" fill="rgb(50,34,42)" stroke="#fff" stroke-width="0.5"/>
  <text x="1245" y="99" text-anchor="middle" font-size="9" fill="white">0.105</text>
  <rect x="1270" y="80" width="50" height="30" fill="rgb(54,36,41)" stroke="#fff" stroke-width="0.5"/>
  <text x="1295" y="99" text-anchor="middle" font-size="9" fill="white">0.125</text>
  <text x="110" y="130" text-anchor="end" font-size="11" fill="#333">逻辑推理</text>
  <rect x="120" y="110" width="50" height="30" fill="rgb(28,26,45)" stroke="#fff" stroke-width="0.5"/>
  <text x="145" y="129" text-anchor="middle" font-size="9" fill="white">0.012</text>
  <rect x="170" y="110" width="50" height="30" fill="rgb(29,27,45)" stroke="#fff" stroke-width="0.5"/>
  <text x="195" y="129" text-anchor="middle" font-size="9" fill="white">0.015</text>
  <rect x="220" y="110" width="50" height="30" fill="rgb(29,27,45)" stroke="#fff" stroke-width="0.5"/>
  <text x="245" y="129" text-anchor="middle" font-size="9" fill="white">0.017</text>
  <rect x="270" y="110" width="50" height="30" fill="rgb(30,27,45)" stroke="#fff" stroke-width="0.5"/>
  <text x="295" y="129" text-anchor="middle" font-size="9" fill="white">0.019</text>
  <rect x="320" y="110" width="50" height="30" fill="rgb(30,27,45)" stroke="#fff" stroke-width="0.5"/>
  <text x="345" y="129" text-anchor="middle" font-size="9" fill="white">0.019</text>
  <rect x="370" y="110" width="50" height="30" fill="rgb(30,27,45)" stroke="#fff" stroke-width="0.5"/>
  <text x="395" y="129" text-anchor="middle" font-size="9" fill="white">0.020</text>
  <rect x="420" y="110" width="50" height="30" fill="rgb(32,28,45)" stroke="#fff" stroke-width="0.5"/>
  <text x="445" y="129" text-anchor="middle" font-size="9" fill="white">0.027</text>
  <rect x="470" y="110" width="50" height="30" fill="rgb(31,27,45)" stroke="#fff" stroke-width="0.5"/>
  <text x="495" y="129" text-anchor="middle" font-size="9" fill="white">0.023</text>
  <rect x="520" y="110" width="50" height="30" fill="rgb(31,27,45)" stroke="#fff" stroke-width="0.5"/>
  <text x="545" y="129" text-anchor="middle" font-size="9" fill="white">0.022</text>
  <rect x="570" y="110" width="50" height="30" fill="rgb(31,27,45)" stroke="#fff" stroke-width="0.5"/>
  <text x="595" y="129" text-anchor="middle" font-size="9" fill="white">0.024</text>
  <rect x="620" y="110" width="50" height="30" fill="rgb(31,28,45)" stroke="#fff" stroke-width="0.5"/>
  <text x="645" y="129" text-anchor="middle" font-size="9" fill="white">0.025</text>
  <rect x="670" y="110" width="50" height="30" fill="rgb(31,27,45)" stroke="#fff" stroke-width="0.5"/>
  <text x="695" y="129" text-anchor="middle" font-size="9" fill="white">0.023</text>
  <rect x="720" y="110" width="50" height="30" fill="rgb(31,28,45)" stroke="#fff" stroke-width="0.5"/>
  <text x="745" y="129" text-anchor="middle" font-size="9" fill="white">0.025</text>
  <rect x="770" y="110" width="50" height="30" fill="rgb(32,28,44)" stroke="#fff" stroke-width="0.5"/>
  <text x="795" y="129" text-anchor="middle" font-size="9" fill="white">0.028</text>
  <rect x="820" y="110" width="50" height="30" fill="rgb(35,29,44)" stroke="#fff" stroke-width="0.5"/>
  <text x="845" y="129" text-anchor="middle" font-size="9" fill="white">0.042</text>
  <rect x="870" y="110" width="50" height="30" fill="rgb(35,29,44)" stroke="#fff" stroke-width="0.5"/>
  <text x="895" y="129" text-anchor="middle" font-size="9" fill="white">0.041</text>
  <rect x="920" y="110" width="50" height="30" fill="rgb(37,30,44)" stroke="#fff" stroke-width="0.5"/>
  <text x="945" y="129" text-anchor="middle" font-size="9" fill="white">0.050</text>
  <rect x="970" y="110" width="50" height="30" fill="rgb(38,30,43)" stroke="#fff" stroke-width="0.5"/>
  <text x="995" y="129" text-anchor="middle" font-size="9" fill="white">0.056</text>
  <rect x="1020" y="110" width="50" height="30" fill="rgb(40,31,43)" stroke="#fff" stroke-width="0.5"/>
  <text x="1045" y="129" text-anchor="middle" font-size="9" fill="white">0.062</text>
  <rect x="1070" y="110" width="50" height="30" fill="rgb(41,31,43)" stroke="#fff" stroke-width="0.5"/>
  <text x="1095" y="129" text-anchor="middle" font-size="9" fill="white">0.070</text>
  <rect x="1120" y="110" width="50" height="30" fill="rgb(43,32,43)" stroke="#fff" stroke-width="0.5"/>
  <text x="1145" y="129" text-anchor="middle" font-size="9" fill="white">0.078</text>
  <rect x="1170" y="110" width="50" height="30" fill="rgb(45,32,42)" stroke="#fff" stroke-width="0.5"/>
  <text x="1195" y="129" text-anchor="middle" font-size="9" fill="white">0.086</text>
  <rect x="1220" y="110" width="50" height="30" fill="rgb(48,33,42)" stroke="#fff" stroke-width="0.5"/>
  <text x="1245" y="129" text-anchor="middle" font-size="9" fill="white">0.096</text>
  <rect x="1270" y="110" width="50" height="30" fill="rgb(53,35,41)" stroke="#fff" stroke-width="0.5"/>
  <text x="1295" y="129" text-anchor="middle" font-size="9" fill="white">0.121</text>
  <text x="110" y="160" text-anchor="end" font-size="11" fill="#333">物理</text>
  <rect x="120" y="140" width="50" height="30" fill="rgb(28,27,45)" stroke="#fff" stroke-width="0.5"/>
  <text x="145" y="159" text-anchor="middle" font-size="9" fill="white">0.013</text>
  <rect x="170" y="140" width="50" height="30" fill="rgb(29,27,45)" stroke="#fff" stroke-width="0.5"/>
  <text x="195" y="159" text-anchor="middle" font-size="9" fill="white">0.016</text>
  <rect x="220" y="140" width="50" height="30" fill="rgb(30,27,45)" stroke="#fff" stroke-width="0.5"/>
  <text x="245" y="159" text-anchor="middle" font-size="9" fill="white">0.019</text>
  <rect x="270" y="140" width="50" height="30" fill="rgb(30,27,45)" stroke="#fff" stroke-width="0.5"/>
  <text x="295" y="159" text-anchor="middle" font-size="9" fill="white">0.021</text>
  <rect x="320" y="140" width="50" height="30" fill="rgb(30,27,45)" stroke="#fff" stroke-width="0.5"/>
  <text x="345" y="159" text-anchor="middle" font-size="9" fill="white">0.020</text>
  <rect x="370" y="140" width="50" height="30" fill="rgb(30,27,45)" stroke="#fff" stroke-width="0.5"/>
  <text x="395" y="159" text-anchor="middle" font-size="9" fill="white">0.020</text>
  <rect x="420" y="140" width="50" height="30" fill="rgb(32,28,45)" stroke="#fff" stroke-width="0.5"/>
  <text x="445" y="159" text-anchor="middle" font-size="9" fill="white">0.028</text>
  <rect x="470" y="140" width="50" height="30" fill="rgb(31,27,45)" stroke="#fff" stroke-width="0.5"/>
  <text x="495" y="159" text-anchor="middle" font-size="9" fill="white">0.023</text>
  <rect x="520" y="140" width="50" height="30" fill="rgb(31,27,45)" stroke="#fff" stroke-width="0.5"/>
  <text x="545" y="159" text-anchor="middle" font-size="9" fill="white">0.022</text>
  <rect x="570" y="140" width="50" height="30" fill="rgb(31,27,45)" stroke="#fff" stroke-width="0.5"/>
  <text x="595" y="159" text-anchor="middle" font-size="9" fill="white">0.023</text>
  <rect x="620" y="140" width="50" height="30" fill="rgb(31,27,45)" stroke="#fff" stroke-width="0.5"/>
  <text x="645" y="159" text-anchor="middle" font-size="9" fill="white">0.024</text>
  <rect x="670" y="140" width="50" height="30" fill="rgb(31,27,45)" stroke="#fff" stroke-width="0.5"/>
  <text x="695" y="159" text-anchor="middle" font-size="9" fill="white">0.022</text>
  <rect x="720" y="140" width="50" height="30" fill="rgb(31,27,45)" stroke="#fff" stroke-width="0.5"/>
  <text x="745" y="159" text-anchor="middle" font-size="9" fill="white">0.024</text>
  <rect x="770" y="140" width="50" height="30" fill="rgb(32,28,45)" stroke="#fff" stroke-width="0.5"/>
  <text x="795" y="159" text-anchor="middle" font-size="9" fill="white">0.027</text>
  <rect x="820" y="140" width="50" height="30" fill="rgb(35,29,44)" stroke="#fff" stroke-width="0.5"/>
  <text x="845" y="159" text-anchor="middle" font-size="9" fill="white">0.041</text>
  <rect x="870" y="140" width="50" height="30" fill="rgb(34,29,44)" stroke="#fff" stroke-width="0.5"/>
  <text x="895" y="159" text-anchor="middle" font-size="9" fill="white">0.039</text>
  <rect x="920" y="140" width="50" height="30" fill="rgb(36,29,44)" stroke="#fff" stroke-width="0.5"/>
  <text x="945" y="159" text-anchor="middle" font-size="9" fill="white">0.048</text>
  <rect x="970" y="140" width="50" height="30" fill="rgb(38,30,44)" stroke="#fff" stroke-width="0.5"/>
  <text x="995" y="159" text-anchor="middle" font-size="9" fill="white">0.055</text>
  <rect x="1020" y="140" width="50" height="30" fill="rgb(40,31,43)" stroke="#fff" stroke-width="0.5"/>
  <text x="1045" y="159" text-anchor="middle" font-size="9" fill="white">0.063</text>
  <rect x="1070" y="140" width="50" height="30" fill="rgb(41,31,43)" stroke="#fff" stroke-width="0.5"/>
  <text x="1095" y="159" text-anchor="middle" font-size="9" fill="white">0.068</text>
  <rect x="1120" y="140" width="50" height="30" fill="rgb(43,32,43)" stroke="#fff" stroke-width="0.5"/>
  <text x="1145" y="159" text-anchor="middle" font-size="9" fill="white">0.078</text>
  <rect x="1170" y="140" width="50" height="30" fill="rgb(46,33,42)" stroke="#fff" stroke-width="0.5"/>
  <text x="1195" y="159" text-anchor="middle" font-size="9" fill="white">0.088</text>
  <rect x="1220" y="140" width="50" height="30" fill="rgb(49,34,42)" stroke="#fff" stroke-width="0.5"/>
  <text x="1245" y="159" text-anchor="middle" font-size="9" fill="white">0.101</text>
  <rect x="1270" y="140" width="50" height="30" fill="rgb(53,35,41)" stroke="#fff" stroke-width="0.5"/>
  <text x="1295" y="159" text-anchor="middle" font-size="9" fill="white">0.119</text>
  <text x="110" y="190" text-anchor="end" font-size="11" fill="#333">历史</text>
  <rect x="120" y="170" width="50" height="30" fill="rgb(29,27,45)" stroke="#fff" stroke-width="0.5"/>
  <text x="145" y="189" text-anchor="middle" font-size="9" fill="white">0.014</text>
  <rect x="170" y="170" width="50" height="30" fill="rgb(30,27,45)" stroke="#fff" stroke-width="0.5"/>
  <text x="195" y="189" text-anchor="middle" font-size="9" fill="white">0.018</text>
  <rect x="220" y="170" width="50" height="30" fill="rgb(30,27,45)" stroke="#fff" stroke-width="0.5"/>
  <text x="245" y="189" text-anchor="middle" font-size="9" fill="white">0.019</text>
  <rect x="270" y="170" width="50" height="30" fill="rgb(30,27,45)" stroke="#fff" stroke-width="0.5"/>
  <text x="295" y="189" text-anchor="middle" font-size="9" fill="white">0.021</text>
  <rect x="320" y="170" width="50" height="30" fill="rgb(30,27,45)" stroke="#fff" stroke-width="0.5"/>
  <text x="345" y="189" text-anchor="middle" font-size="9" fill="white">0.021</text>
  <rect x="370" y="170" width="50" height="30" fill="rgb(30,27,45)" stroke="#fff" stroke-width="0.5"/>
  <text x="395" y="189" text-anchor="middle" font-size="9" fill="white">0.021</text>
  <rect x="420" y="170" width="50" height="30" fill="rgb(32,28,45)" stroke="#fff" stroke-width="0.5"/>
  <text x="445" y="189" text-anchor="middle" font-size="9" fill="white">0.027</text>
  <rect x="470" y="170" width="50" height="30" fill="rgb(31,27,45)" stroke="#fff" stroke-width="0.5"/>
  <text x="495" y="189" text-anchor="middle" font-size="9" fill="white">0.023</text>
  <rect x="520" y="170" width="50" height="30" fill="rgb(31,27,45)" stroke="#fff" stroke-width="0.5"/>
  <text x="545" y="189" text-anchor="middle" font-size="9" fill="white">0.022</text>
  <rect x="570" y="170" width="50" height="30" fill="rgb(31,27,45)" stroke="#fff" stroke-width="0.5"/>
  <text x="595" y="189" text-anchor="middle" font-size="9" fill="white">0.023</text>
  <rect x="620" y="170" width="50" height="30" fill="rgb(31,27,45)" stroke="#fff" stroke-width="0.5"/>
  <text x="645" y="189" text-anchor="middle" font-size="9" fill="white">0.024</text>
  <rect x="670" y="170" width="50" height="30" fill="rgb(31,27,45)" stroke="#fff" stroke-width="0.5"/>
  <text x="695" y="189" text-anchor="middle" font-size="9" fill="white">0.023</text>
  <rect x="720" y="170" width="50" height="30" fill="rgb(31,27,45)" stroke="#fff" stroke-width="0.5"/>
  <text x="745" y="189" text-anchor="middle" font-size="9" fill="white">0.024</text>
  <rect x="770" y="170" width="50" height="30" fill="rgb(32,28,45)" stroke="#fff" stroke-width="0.5"/>
  <text x="795" y="189" text-anchor="middle" font-size="9" fill="white">0.026</text>
  <rect x="820" y="170" width="50" height="30" fill="rgb(35,29,44)" stroke="#fff" stroke-width="0.5"/>
  <text x="845" y="189" text-anchor="middle" font-size="9" fill="white">0.039</text>
  <rect x="870" y="170" width="50" height="30" fill="rgb(34,29,44)" stroke="#fff" stroke-width="0.5"/>
  <text x="895" y="189" text-anchor="middle" font-size="9" fill="white">0.039</text>
  <rect x="920" y="170" width="50" height="30" fill="rgb(37,29,44)" stroke="#fff" stroke-width="0.5"/>
  <text x="945" y="189" text-anchor="middle" font-size="9" fill="white">0.049</text>
  <rect x="970" y="170" width="50" height="30" fill="rgb(38,30,44)" stroke="#fff" stroke-width="0.5"/>
  <text x="995" y="189" text-anchor="middle" font-size="9" fill="white">0.055</text>
  <rect x="1020" y="170" width="50" height="30" fill="rgb(40,31,43)" stroke="#fff" stroke-width="0.5"/>
  <text x="1045" y="189" text-anchor="middle" font-size="9" fill="white">0.063</text>
  <rect x="1070" y="170" width="50" height="30" fill="rgb(41,31,43)" stroke="#fff" stroke-width="0.5"/>
  <text x="1095" y="189" text-anchor="middle" font-size="9" fill="white">0.068</text>
  <rect x="1120" y="170" width="50" height="30" fill="rgb(44,32,43)" stroke="#fff" stroke-width="0.5"/>
  <text x="1145" y="189" text-anchor="middle" font-size="9" fill="white">0.079</text>
  <rect x="1170" y="170" width="50" height="30" fill="rgb(46,33,42)" stroke="#fff" stroke-width="0.5"/>
  <text x="1195" y="189" text-anchor="middle" font-size="9" fill="white">0.088</text>
  <rect x="1220" y="170" width="50" height="30" fill="rgb(49,34,42)" stroke="#fff" stroke-width="0.5"/>
  <text x="1245" y="189" text-anchor="middle" font-size="9" fill="white">0.102</text>
  <rect x="1270" y="170" width="50" height="30" fill="rgb(51,35,41)" stroke="#fff" stroke-width="0.5"/>
  <text x="1295" y="189" text-anchor="middle" font-size="9" fill="white">0.113</text>
  <text x="110" y="220" text-anchor="end" font-size="11" fill="#333">地理</text>
  <rect x="120" y="200" width="50" height="30" fill="rgb(29,27,45)" stroke="#fff" stroke-width="0.5"/>
  <text x="145" y="219" text-anchor="middle" font-size="9" fill="white">0.014</text>
  <rect x="170" y="200" width="50" height="30" fill="rgb(29,27,45)" stroke="#fff" stroke-width="0.5"/>
  <text x="195" y="219" text-anchor="middle" font-size="9" fill="white">0.017</text>
  <rect x="220" y="200" width="50" height="30" fill="rgb(30,27,45)" stroke="#fff" stroke-width="0.5"/>
  <text x="245" y="219" text-anchor="middle" font-size="9" fill="white">0.019</text>
  <rect x="270" y="200" width="50" height="30" fill="rgb(30,27,45)" stroke="#fff" stroke-width="0.5"/>
  <text x="295" y="219" text-anchor="middle" font-size="9" fill="white">0.021</text>
  <rect x="320" y="200" width="50" height="30" fill="rgb(30,27,45)" stroke="#fff" stroke-width="0.5"/>
  <text x="345" y="219" text-anchor="middle" font-size="9" fill="white">0.020</text>
  <rect x="370" y="200" width="50" height="30" fill="rgb(30,27,45)" stroke="#fff" stroke-width="0.5"/>
  <text x="395" y="219" text-anchor="middle" font-size="9" fill="white">0.021</text>
  <rect x="420" y="200" width="50" height="30" fill="rgb(32,28,44)" stroke="#fff" stroke-width="0.5"/>
  <text x="445" y="219" text-anchor="middle" font-size="9" fill="white">0.028</text>
  <rect x="470" y="200" width="50" height="30" fill="rgb(31,27,45)" stroke="#fff" stroke-width="0.5"/>
  <text x="495" y="219" text-anchor="middle" font-size="9" fill="white">0.023</text>
  <rect x="520" y="200" width="50" height="30" fill="rgb(31,27,45)" stroke="#fff" stroke-width="0.5"/>
  <text x="545" y="219" text-anchor="middle" font-size="9" fill="white">0.023</text>
  <rect x="570" y="200" width="50" height="30" fill="rgb(31,27,45)" stroke="#fff" stroke-width="0.5"/>
  <text x="595" y="219" text-anchor="middle" font-size="9" fill="white">0.023</text>
  <rect x="620" y="200" width="50" height="30" fill="rgb(31,28,45)" stroke="#fff" stroke-width="0.5"/>
  <text x="645" y="219" text-anchor="middle" font-size="9" fill="white">0.025</text>
  <rect x="670" y="200" width="50" height="30" fill="rgb(31,27,45)" stroke="#fff" stroke-width="0.5"/>
  <text x="695" y="219" text-anchor="middle" font-size="9" fill="white">0.023</text>
  <rect x="720" y="200" width="50" height="30" fill="rgb(31,27,45)" stroke="#fff" stroke-width="0.5"/>
  <text x="745" y="219" text-anchor="middle" font-size="9" fill="white">0.024</text>
  <rect x="770" y="200" width="50" height="30" fill="rgb(32,28,45)" stroke="#fff" stroke-width="0.5"/>
  <text x="795" y="219" text-anchor="middle" font-size="9" fill="white">0.027</text>
  <rect x="820" y="200" width="50" height="30" fill="rgb(35,29,44)" stroke="#fff" stroke-width="0.5"/>
  <text x="845" y="219" text-anchor="middle" font-size="9" fill="white">0.042</text>
  <rect x="870" y="200" width="50" height="30" fill="rgb(35,29,44)" stroke="#fff" stroke-width="0.5"/>
  <text x="895" y="219" text-anchor="middle" font-size="9" fill="white">0.040</text>
  <rect x="920" y="200" width="50" height="30" fill="rgb(36,29,44)" stroke="#fff" stroke-width="0.5"/>
  <text x="945" y="219" text-anchor="middle" font-size="9" fill="white">0.047</text>
  <rect x="970" y="200" width="50" height="30" fill="rgb(38,30,44)" stroke="#fff" stroke-width="0.5"/>
  <text x="995" y="219" text-anchor="middle" font-size="9" fill="white">0.053</text>
  <rect x="1020" y="200" width="50" height="30" fill="rgb(40,30,43)" stroke="#fff" stroke-width="0.5"/>
  <text x="1045" y="219" text-anchor="middle" font-size="9" fill="white">0.062</text>
  <rect x="1070" y="200" width="50" height="30" fill="rgb(41,31,43)" stroke="#fff" stroke-width="0.5"/>
  <text x="1095" y="219" text-anchor="middle" font-size="9" fill="white">0.067</text>
  <rect x="1120" y="200" width="50" height="30" fill="rgb(43,32,43)" stroke="#fff" stroke-width="0.5"/>
  <text x="1145" y="219" text-anchor="middle" font-size="9" fill="white">0.077</text>
  <rect x="1170" y="200" width="50" height="30" fill="rgb(45,33,42)" stroke="#fff" stroke-width="0.5"/>
  <text x="1195" y="219" text-anchor="middle" font-size="9" fill="white">0.087</text>
  <rect x="1220" y="200" width="50" height="30" fill="rgb(49,34,42)" stroke="#fff" stroke-width="0.5"/>
  <text x="1245" y="219" text-anchor="middle" font-size="9" fill="white">0.103</text>
  <rect x="1270" y="200" width="50" height="30" fill="rgb(52,35,41)" stroke="#fff" stroke-width="0.5"/>
  <text x="1295" y="219" text-anchor="middle" font-size="9" fill="white">0.116</text>
  <text x="110" y="250" text-anchor="end" font-size="11" fill="#333">文学</text>
  <rect x="120" y="230" width="50" height="30" fill="rgb(29,27,45)" stroke="#fff" stroke-width="0.5"/>
  <text x="145" y="249" text-anchor="middle" font-size="9" fill="white">0.015</text>
  <rect x="170" y="230" width="50" height="30" fill="rgb(30,27,45)" stroke="#fff" stroke-width="0.5"/>
  <text x="195" y="249" text-anchor="middle" font-size="9" fill="white">0.018</text>
  <rect x="220" y="230" width="50" height="30" fill="rgb(30,27,45)" stroke="#fff" stroke-width="0.5"/>
  <text x="245" y="249" text-anchor="middle" font-size="9" fill="white">0.020</text>
  <rect x="270" y="230" width="50" height="30" fill="rgb(30,27,45)" stroke="#fff" stroke-width="0.5"/>
  <text x="295" y="249" text-anchor="middle" font-size="9" fill="white">0.022</text>
  <rect x="320" y="230" width="50" height="30" fill="rgb(30,27,45)" stroke="#fff" stroke-width="0.5"/>
  <text x="345" y="249" text-anchor="middle" font-size="9" fill="white">0.021</text>
  <rect x="370" y="230" width="50" height="30" fill="rgb(30,27,45)" stroke="#fff" stroke-width="0.5"/>
  <text x="395" y="249" text-anchor="middle" font-size="9" fill="white">0.022</text>
  <rect x="420" y="230" width="50" height="30" fill="rgb(32,28,44)" stroke="#fff" stroke-width="0.5"/>
  <text x="445" y="249" text-anchor="middle" font-size="9" fill="white">0.029</text>
  <rect x="470" y="230" width="50" height="30" fill="rgb(31,27,45)" stroke="#fff" stroke-width="0.5"/>
  <text x="495" y="249" text-anchor="middle" font-size="9" fill="white">0.024</text>
  <rect x="520" y="230" width="50" height="30" fill="rgb(31,27,45)" stroke="#fff" stroke-width="0.5"/>
  <text x="545" y="249" text-anchor="middle" font-size="9" fill="white">0.023</text>
  <rect x="570" y="230" width="50" height="30" fill="rgb(31,27,45)" stroke="#fff" stroke-width="0.5"/>
  <text x="595" y="249" text-anchor="middle" font-size="9" fill="white">0.024</text>
  <rect x="620" y="230" width="50" height="30" fill="rgb(31,28,45)" stroke="#fff" stroke-width="0.5"/>
  <text x="645" y="249" text-anchor="middle" font-size="9" fill="white">0.025</text>
  <rect x="670" y="230" width="50" height="30" fill="rgb(31,27,45)" stroke="#fff" stroke-width="0.5"/>
  <text x="695" y="249" text-anchor="middle" font-size="9" fill="white">0.023</text>
  <rect x="720" y="230" width="50" height="30" fill="rgb(31,27,45)" stroke="#fff" stroke-width="0.5"/>
  <text x="745" y="249" text-anchor="middle" font-size="9" fill="white">0.024</text>
  <rect x="770" y="230" width="50" height="30" fill="rgb(32,28,45)" stroke="#fff" stroke-width="0.5"/>
  <text x="795" y="249" text-anchor="middle" font-size="9" fill="white">0.027</text>
  <rect x="820" y="230" width="50" height="30" fill="rgb(35,29,44)" stroke="#fff" stroke-width="0.5"/>
  <text x="845" y="249" text-anchor="middle" font-size="9" fill="white">0.042</text>
  <rect x="870" y="230" width="50" height="30" fill="rgb(35,29,44)" stroke="#fff" stroke-width="0.5"/>
  <text x="895" y="249" text-anchor="middle" font-size="9" fill="white">0.040</text>
  <rect x="920" y="230" width="50" height="30" fill="rgb(36,29,44)" stroke="#fff" stroke-width="0.5"/>
  <text x="945" y="249" text-anchor="middle" font-size="9" fill="white">0.048</text>
  <rect x="970" y="230" width="50" height="30" fill="rgb(38,30,44)" stroke="#fff" stroke-width="0.5"/>
  <text x="995" y="249" text-anchor="middle" font-size="9" fill="white">0.054</text>
  <rect x="1020" y="230" width="50" height="30" fill="rgb(40,30,43)" stroke="#fff" stroke-width="0.5"/>
  <text x="1045" y="249" text-anchor="middle" font-size="9" fill="white">0.062</text>
  <rect x="1070" y="230" width="50" height="30" fill="rgb(41,31,43)" stroke="#fff" stroke-width="0.5"/>
  <text x="1095" y="249" text-anchor="middle" font-size="9" fill="white">0.067</text>
  <rect x="1120" y="230" width="50" height="30" fill="rgb(43,32,43)" stroke="#fff" stroke-width="0.5"/>
  <text x="1145" y="249" text-anchor="middle" font-size="9" fill="white">0.077</text>
  <rect x="1170" y="230" width="50" height="30" fill="rgb(45,32,42)" stroke="#fff" stroke-width="0.5"/>
  <text x="1195" y="249" text-anchor="middle" font-size="9" fill="white">0.085</text>
  <rect x="1220" y="230" width="50" height="30" fill="rgb(48,33,42)" stroke="#fff" stroke-width="0.5"/>
  <text x="1245" y="249" text-anchor="middle" font-size="9" fill="white">0.098</text>
  <rect x="1270" y="230" width="50" height="30" fill="rgb(51,34,42)" stroke="#fff" stroke-width="0.5"/>
  <text x="1295" y="249" text-anchor="middle" font-size="9" fill="white">0.110</text>
  <text x="145" y="70" text-anchor="middle" font-size="10" fill="#333" transform="rotate(-45, 145, 70)">Layer 0</text>
  <text x="195" y="70" text-anchor="middle" font-size="10" fill="#333" transform="rotate(-45, 195, 70)">Layer 1</text>
  <text x="245" y="70" text-anchor="middle" font-size="10" fill="#333" transform="rotate(-45, 245, 70)">Layer 2</text>
  <text x="295" y="70" text-anchor="middle" font-size="10" fill="#333" transform="rotate(-45, 295, 70)">Layer 3</text>
  <text x="345" y="70" text-anchor="middle" font-size="10" fill="#333" transform="rotate(-45, 345, 70)">Layer 4</text>
  <text x="395" y="70" text-anchor="middle" font-size="10" fill="#333" transform="rotate(-45, 395, 70)">Layer 5</text>
  <text x="445" y="70" text-anchor="middle" font-size="10" fill="#333" transform="rotate(-45, 445, 70)">Layer 6</text>
  <text x="495" y="70" text-anchor="middle" font-size="10" fill="#333" transform="rotate(-45, 495, 70)">Layer 7</text>
  <text x="545" y="70" text-anchor="middle" font-size="10" fill="#333" transform="rotate(-45, 545, 70)">Layer 8</text>
  <text x="595" y="70" text-anchor="middle" font-size="10" fill="#333" transform="rotate(-45, 595, 70)">Layer 9</text>
  <text x="645" y="70" text-anchor="middle" font-size="10" fill="#333" transform="rotate(-45, 645, 70)">Layer 10</text>
  <text x="695" y="70" text-anchor="middle" font-size="10" fill="#333" transform="rotate(-45, 695, 70)">Layer 11</text>
  <text x="745" y="70" text-anchor="middle" font-size="10" fill="#333" transform="rotate(-45, 745, 70)">Layer 12</text>
  <text x="795" y="70" text-anchor="middle" font-size="10" fill="#333" transform="rotate(-45, 795, 70)">Layer 13</text>
  <text x="845" y="70" text-anchor="middle" font-size="10" fill="#333" transform="rotate(-45, 845, 70)">Layer 14</text>
  <text x="895" y="70" text-anchor="middle" font-size="10" fill="#333" transform="rotate(-45, 895, 70)">Layer 15</text>
  <text x="945" y="70" text-anchor="middle" font-size="10" fill="#333" transform="rotate(-45, 945, 70)">Layer 16</text>
  <text x="995" y="70" text-anchor="middle" font-size="10" fill="#333" transform="rotate(-45, 995, 70)">Layer 17</text>
  <text x="1045" y="70" text-anchor="middle" font-size="10" fill="#333" transform="rotate(-45, 1045, 70)">Layer 18</text>
  <text x="1095" y="70" text-anchor="middle" font-size="10" fill="#333" transform="rotate(-45, 1095, 70)">Layer 19</text>
  <text x="1145" y="70" text-anchor="middle" font-size="10" fill="#333" transform="rotate(-45, 1145, 70)">Layer 20</text>
  <text x="1195" y="70" text-anchor="middle" font-size="10" fill="#333" transform="rotate(-45, 1195, 70)">Layer 21</text>
  <text x="1245" y="70" text-anchor="middle" font-size="10" fill="#333" transform="rotate(-45, 1245, 70)">Layer 22</text>
  <text x="1295" y="70" text-anchor="middle" font-size="10" fill="#333" transform="rotate(-45, 1295, 70)">Layer 23</text>
  <text x="1340" y="80" font-size="12" font-weight="bold" fill="#333">敏感度</text>
  <rect x="1340" y="100" width="80" height="12" fill="rgb(26,26,46)"/>
  <text x="1430" y="110" font-size="9" fill="#333">0.00</text>
  <rect x="1340" y="115" width="80" height="12" fill="rgb(51,35,42)"/>
  <text x="1430" y="125" font-size="9" fill="#333">0.11</text>
  <rect x="1340" y="130" width="80" height="12" fill="rgb(76,44,38)"/>
  <text x="1430" y="140" font-size="9" fill="#333">0.22</text>
  <rect x="1340" y="145" width="80" height="12" fill="rgb(102,53,34)"/>
  <text x="1430" y="155" font-size="9" fill="#333">0.33</text>
  <rect x="1340" y="160" width="80" height="12" fill="rgb(127,62,30)"/>
  <text x="1430" y="170" font-size="9" fill="#333">0.44</text>
  <rect x="1340" y="175" width="80" height="12" fill="rgb(153,71,26)"/>
  <text x="1430" y="185" font-size="9" fill="#333">0.56</text>
  <rect x="1340" y="190" width="80" height="12" fill="rgb(178,80,22)"/>
  <text x="1430" y="200" font-size="9" fill="#333">0.67</text>
  <rect x="1340" y="205" width="80" height="12" fill="rgb(204,89,18)"/>
  <text x="1430" y="215" font-size="9" fill="#333">0.78</text>
  <rect x="1340" y="220" width="80" height="12" fill="rgb(229,98,14)"/>
  <text x="1430" y="230" font-size="9" fill="#333">0.89</text>
  <rect x="1340" y="235" width="80" height="12" fill="rgb(255,107,10)"/>
  <text x="1430" y="245" font-size="9" fill="#333">1.00</text>
</svg>