<?xml version="1.0" encoding="UTF-8"?>
<svg xmlns="http://www.w3.org/2000/svg" viewBox="0 0 500 500" font-family="Arial, sans-serif">
  <defs>
    <linearGradient id="bg" x1="0%" y1="0%" x2="0%" y2="100%">
      <stop offset="0%" style="stop-color:#fafafa"/>
      <stop offset="100%" style="stop-color:#f0f0f0"/>
    </linearGradient>
  </defs>
  
  <rect width="500" height="500" fill="url(#bg)"/>
  <text x="250" y="30" text-anchor="middle" font-size="16" font-weight="bold" fill="#1a1a2e">Language-Capability Cross-Dimensional Analysis</text>
  <polygon points="250.0,214.0 281.1769145362398,232.0 281.1769145362398,268.0 250.0,286.0 218.8230854637602,268.0 218.8230854637602,232.0" fill="none" stroke="#ddd" stroke-width="1"/>
  <polygon points="250.0,178.0 312.3538290724796,214.0 312.3538290724796,286.0 250.0,322.0 187.64617092752042,286.0 187.64617092752042,214.0" fill="none" stroke="#ddd" stroke-width="1"/>
  <polygon points="250.0,142.0 343.5307436087194,196.0 343.5307436087194,304.0 250.0,358.0 156.46925639128062,304.00000000000006 156.46925639128062,196.0" fill="none" stroke="#ddd" stroke-width="1"/>
  <polygon points="250.0,106.0 374.70765814495917,178.0 374.70765814495917,322.0 250.0,394.0 125.29234185504086,322.00000000000006 125.29234185504085,178.0" fill="none" stroke="#ddd" stroke-width="1"/>
  <polygon points="250.0,70.0 405.88457268119896,160.0 405.88457268119896,340.0 250.0,430.0 94.11542731880107,340.00000000000006 94.11542731880104,160.0" fill="none" stroke="#ddd" stroke-width="1"/>
  <line x1="250" y1="250" x2="250.0" y2="70.0" stroke="#ccc" stroke-width="1"/>
  <text x="250.0" y="45.0" text-anchor="middle" font-size="10" fill="#333">历史</text>
  <line x1="250" y1="250" x2="405.88457268119896" y2="160.0" stroke="#ccc" stroke-width="1"/>
  <text x="427.5352077758099" y="147.5" text-anchor="middle" font-size="10" fill="#333">地理</text>
  <line x1="250" y1="250" x2="405.88457268119896" y2="340.0" stroke="#ccc" stroke-width="1"/>
  <text x="427.5352077758099" y="352.5" text-anchor="middle" font-size="10" fill="#333">数学推理</text>
  <line x1="250" y1="250" x2="250.0" y2="430.0" stroke="#ccc" stroke-width="1"/>
  <text x="250.0" y="455.0" text-anchor="middle" font-size="10" fill="#333">文学</text>
  <line x1="250" y1="250" x2="94.11542731880107" y2="340.00000000000006" stroke="#ccc" stroke-width="1"/>
  <text x="72.46479222419012" y="352.50000000000006" text-anchor="middle" font-size="10" fill="#333">物理</text>
  <line x1="250" y1="250" x2="94.11542731880104" y2="160.0" stroke="#ccc" stroke-width="1"/>
  <text x="72.46479222419009" y="147.49999999999997" text-anchor="middle" font-size="10" fill="#333">逻辑推理</text>
  <polygon points="250.0,70.29817858567756 405.7059899175051,160.10310480669125 405.3216263047194,339.67498275800017 250.0,429.8785778669079 94.32595183636025,339.8784536131162 94.29245857432679,160.10220904303276" fill="#2563eb" fill-opacity="0.2" stroke="#2563eb" stroke-width="2"/>
  <text x="480" y="40" text-anchor="end" font-size="11" fill="#2563eb">● 中文</text>
  <polygon points="250.0,70.22724459862513 405.77432945877774,160.06364895414123 405.5105891623387,339.78408051471354 250.0,429.88280647793385 94.22297819610452,339.9379054720373 94.19572556492955,160.04636021401774" fill="#ef4444" fill-opacity="0.2" stroke="#ef4444" stroke-width="2"/>
  <text x="480" y="60" text-anchor="end" font-size="11" fill="#ef4444">● 英文</text>
  <polygon points="250.0,70.33130737337265 405.46557275140447,160.24190972225728 404.96460848796426,339.4688584253911 250.0,429.7321637419334 94.655644943553,339.68810520892856 94.788523545468,160.38861228765666" fill="#059669" fill-opacity="0.2" stroke="#059669" stroke-width="2"/>
  <text x="480" y="80" text-anchor="end" font-size="11" fill="#059669">● 日文</text>
  <polygon points="250.0,70.0723807411413 405.81272554963607,160.04148096074834 405.61492471505534,339.8443186741605 250.0,429.8200250291809 94.23574015202385,339.93053735335195 94.43414418007083,160.18401126564936" fill="#8b5cf6" fill-opacity="0.2" stroke="#8b5cf6" stroke-width="2"/>
  <text x="480" y="100" text-anchor="end" font-size="11" fill="#8b5cf6">● 法文</text>
  <polygon points="250.0,70.09997643764768 405.753926286655,160.07542873105865 405.4958015135533,339.7755428617066 250.0,429.7948251219873 94.3264019039205,339.8781937664892 94.55027528746547,160.25105959176494" fill="#f59e0b" fill-opacity="0.2" stroke="#f59e0b" stroke-width="2"/>
  <text x="480" y="120" text-anchor="end" font-size="11" fill="#f59e0b">● 德文</text>
  <polygon points="250.0,70.1634564830718 405.6263964937872,160.14905809130056 405.2765406927306,339.64895256778186 250.0,429.77047720884593 94.4560772646827,339.80332566204584 94.67859623786313,160.3251457270197" fill="#2563eb" fill-opacity="0.2" stroke="#2563eb" stroke-width="2"/>
  <text x="480" y="140" text-anchor="end" font-size="11" fill="#2563eb">● 俄文</text>
  <polygon points="250.0,70.0842419035518 405.8063026381773,160.04518923040803 405.5125348587267,339.7852038630469 250.0,429.8647272275349 94.27343695433012,339.9087730943928 94.4660374785345,160.2024248701027" fill="#ef4444" fill-opacity="0.2" stroke="#ef4444" stroke-width="2"/>
  <text x="480" y="160" text-anchor="end" font-size="11" fill="#ef4444">● 西班牙文</text>
  <polygon points="250.0,70.54374507645568 405.1888443099681,160.40167896241303 404.715325890769,339.3249350507961 250.0,429.4029966801102 94.94483879850475,339.5211390589242 95.18227537375068,160.61594501170958" fill="#059669" fill-opacity="0.2" stroke="#059669" stroke-width="2"/>
  <text x="480" y="180" text-anchor="end" font-size="11" fill="#059669">● 韩文</text>
</svg>