<?xml version="1.0" encoding="UTF-8"?>
<svg xmlns="http://www.w3.org/2000/svg" viewBox="0 0 1600 1200" font-family="Arial, sans-serif">
  <defs>
    <linearGradient id="bg3d" x1="0%" y1="0%" x2="100%" y2="100%">
      <stop offset="0%" style="stop-color:#0a0a1a"/>
      <stop offset="50%" style="stop-color:#1a1a2e"/>
      <stop offset="100%" style="stop-color:#0a0a1a"/>
    </linearGradient>
    
    <linearGradient id="layer_grad" x1="0%" y1="0%" x2="0%" y2="100%">
      <stop offset="0%" style="stop-color:#4a5568;stop-opacity:0.9"/>
      <stop offset="100%" style="stop-color:#2d3748;stop-opacity:0.7"/>
    </linearGradient>
    
    <filter id="glow3d" x="-50%" y="-50%" width="200%" height="200%">
      <feGaussianBlur stdDeviation="3" result="blur"/>
      <feMerge>
        <feMergeNode in="blur"/>
        <feMergeNode in="SourceGraphic"/>
      </feMerge>
    </filter>

    <linearGradient id="cap_数学推理_top" x1="0%" y1="0%" x2="100%" y2="0%">
      <stop offset="0%" style="stop-color:rgb(59,130,246);stop-opacity:0.9"/>
      <stop offset="50%" style="stop-color:rgb(89,160,255);stop-opacity:0.95"/>
      <stop offset="100%" style="stop-color:rgb(59,130,246);stop-opacity:0.9"/>
    </linearGradient>

    <linearGradient id="cap_逻辑推理_top" x1="0%" y1="0%" x2="100%" y2="0%">
      <stop offset="0%" style="stop-color:rgb(16,185,129);stop-opacity:0.9"/>
      <stop offset="50%" style="stop-color:rgb(46,215,159);stop-opacity:0.95"/>
      <stop offset="100%" style="stop-color:rgb(16,185,129);stop-opacity:0.9"/>
    </linearGradient>

    <linearGradient id="cap_物理_top" x1="0%" y1="0%" x2="100%" y2="0%">
      <stop offset="0%" style="stop-color:rgb(139,92,246);stop-opacity:0.9"/>
      <stop offset="50%" style="stop-color:rgb(169,122,255);stop-opacity:0.95"/>
      <stop offset="100%" style="stop-color:rgb(139,92,246);stop-opacity:0.9"/>
    </linearGradient>

    <linearGradient id="cap_历史_top" x1="0%" y1="0%" x2="100%" y2="0%">
      <stop offset="0%" style="stop-color:rgb(245,158,11);stop-opacity:0.9"/>
      <stop offset="50%" style="stop-color:rgb(255,188,41);stop-opacity:0.95"/>
      <stop offset="100%" style="stop-color:rgb(245,158,11);stop-opacity:0.9"/>
    </linearGradient>

    <linearGradient id="cap_地理_top" x1="0%" y1="0%" x2="100%" y2="0%">
      <stop offset="0%" style="stop-color:rgb(34,197,94);stop-opacity:0.9"/>
      <stop offset="50%" style="stop-color:rgb(64,227,124);stop-opacity:0.95"/>
      <stop offset="100%" style="stop-color:rgb(34,197,94);stop-opacity:0.9"/>
    </linearGradient>

    <linearGradient id="cap_文学_top" x1="0%" y1="0%" x2="100%" y2="0%">
      <stop offset="0%" style="stop-color:rgb(236,72,153);stop-opacity:0.9"/>
      <stop offset="50%" style="stop-color:rgb(255,102,183);stop-opacity:0.95"/>
      <stop offset="100%" style="stop-color:rgb(236,72,153);stop-opacity:0.9"/>
    </linearGradient>
  </defs>
  
  <rect width="1600" height="1200" fill="url(#bg3d)"/>
  <circle cx="61.7" cy="835.5" r="0.6" fill="white" opacity="0.34"/>
  <circle cx="1074.6" cy="951.5" r="1.0" fill="white" opacity="0.35"/>
  <circle cx="30.7" cy="518.9" r="0.9" fill="white" opacity="0.46"/>
  <circle cx="875.2" cy="906.4" r="0.9" fill="white" opacity="0.25"/>
  <circle cx="1361.4" cy="984.3" r="0.9" fill="white" opacity="0.23"/>
  <circle cx="819.9" cy="595.2" r="1.3" fill="white" opacity="0.38"/>
  <circle cx="810.7" cy="690.2" r="0.9" fill="white" opacity="0.21"/>
  <circle cx="97.9" cy="1130.3" r="1.3" fill="white" opacity="0.29"/>
  <circle cx="1422.0" cy="626.7" r="0.6" fill="white" opacity="0.46"/>
  <circle cx="935.0" cy="1119.3" r="1.2" fill="white" opacity="0.23"/>
  <circle cx="996.4" cy="944.3" r="1.4" fill="white" opacity="0.30"/>
  <circle cx="846.2" cy="841.4" r="0.7" fill="white" opacity="0.45"/>
  <circle cx="1249.4" cy="60.1" r="1.1" fill="white" opacity="0.31"/>
  <circle cx="297.6" cy="725.4" r="1.5" fill="white" opacity="0.37"/>
  <circle cx="181.3" cy="593.9" r="1.3" fill="white" opacity="0.49"/>
  <circle cx="1144.3" cy="49.6" r="1.5" fill="white" opacity="0.38"/>
  <circle cx="133.8" cy="152.6" r="0.6" fill="white" opacity="0.40"/>
  <circle cx="246.6" cy="969.0" r="0.6" fill="white" opacity="0.36"/>
  <circle cx="708.9" cy="45.6" r="0.5" fill="white" opacity="0.47"/>
  <circle cx="1562.6" cy="149.2" r="1.2" fill="white" opacity="0.50"/>
  <circle cx="1446.1" cy="1062.0" r="0.8" fill="white" opacity="0.42"/>
  <circle cx="797.0" cy="1124.8" r="1.2" fill="white" opacity="0.45"/>
  <circle cx="1371.5" cy="462.7" r="1.2" fill="white" opacity="0.23"/>
  <circle cx="329.8" cy="1123.9" r="0.9" fill="white" opacity="0.41"/>
  <circle cx="921.0" cy="312.4" r="1.1" fill="white" opacity="0.47"/>
  <circle cx="523.8" cy="416.4" r="0.7" fill="white" opacity="0.25"/>
  <circle cx="1323.8" cy="847.5" r="1.5" fill="white" opacity="0.40"/>
  <circle cx="1534.1" cy="266.3" r="0.7" fill="white" opacity="0.26"/>
  <circle cx="614.0" cy="1187.5" r="0.7" fill="white" opacity="0.34"/>
  <circle cx="98.0" cy="32.6" r="1.0" fill="white" opacity="0.38"/>
  <circle cx="817.3" cy="1097.6" r="1.4" fill="white" opacity="0.49"/>
  <circle cx="926.3" cy="316.2" r="0.6" fill="white" opacity="0.43"/>
  <circle cx="247.4" cy="7.3" r="1.2" fill="white" opacity="0.24"/>
  <circle cx="995.9" cy="241.2" r="0.9" fill="white" opacity="0.20"/>
  <circle cx="601.8" cy="394.1" r="0.8" fill="white" opacity="0.24"/>
  <circle cx="921.0" cy="831.1" r="0.7" fill="white" opacity="0.21"/>
  <circle cx="429.2" cy="839.2" r="0.8" fill="white" opacity="0.39"/>
  <circle cx="117.7" cy="844.0" r="0.6" fill="white" opacity="0.27"/>
  <circle cx="1167.4" cy="570.1" r="1.1" fill="white" opacity="0.29"/>
  <circle cx="1069.5" cy="358.8" r="1.0" fill="white" opacity="0.33"/>
  <circle cx="1459.6" cy="902.7" r="1.0" fill="white" opacity="0.45"/>
  <circle cx="976.1" cy="868.6" r="1.0" fill="white" opacity="0.37"/>
  <circle cx="341.9" cy="1116.9" r="1.1" fill="white" opacity="0.45"/>
  <circle cx="970.2" cy="29.8" r="0.6" fill="white" opacity="0.46"/>
  <circle cx="1119.4" cy="1085.3" r="1.4" fill="white" opacity="0.27"/>
  <circle cx="1576.3" cy="732.8" r="1.2" fill="white" opacity="0.35"/>
  <circle cx="410.0" cy="583.2" r="1.0" fill="white" opacity="0.29"/>
  <circle cx="546.9" cy="531.4" r="0.8" fill="white" opacity="0.24"/>
  <circle cx="1287.0" cy="429.8" r="0.9" fill="white" opacity="0.44"/>
  <circle cx="1117.2" cy="537.0" r="0.8" fill="white" opacity="0.44"/>
  <circle cx="378.6" cy="555.6" r="0.9" fill="white" opacity="0.50"/>
  <circle cx="383.9" cy="712.1" r="1.0" fill="white" opacity="0.21"/>
  <circle cx="290.4" cy="1063.1" r="1.3" fill="white" opacity="0.26"/>
  <circle cx="285.7" cy="1126.1" r="1.1" fill="white" opacity="0.41"/>
  <circle cx="1451.4" cy="313.1" r="1.0" fill="white" opacity="0.47"/>
  <circle cx="298.0" cy="305.6" r="1.4" fill="white" opacity="0.45"/>
  <circle cx="824.6" cy="160.5" r="1.3" fill="white" opacity="0.29"/>
  <circle cx="1211.8" cy="305.8" r="0.7" fill="white" opacity="0.41"/>
  <circle cx="629.0" cy="451.3" r="0.9" fill="white" opacity="0.34"/>
  <circle cx="753.3" cy="777.9" r="0.6" fill="white" opacity="0.40"/>
  <circle cx="778.6" cy="982.0" r="0.8" fill="white" opacity="0.40"/>
  <circle cx="328.9" cy="838.8" r="1.2" fill="white" opacity="0.36"/>
  <circle cx="767.2" cy="1140.5" r="0.9" fill="white" opacity="0.22"/>
  <circle cx="529.7" cy="51.5" r="1.4" fill="white" opacity="0.45"/>
  <circle cx="296.3" cy="754.4" r="0.7" fill="white" opacity="0.46"/>
  <circle cx="663.1" cy="70.8" r="1.1" fill="white" opacity="0.23"/>
  <circle cx="1430.8" cy="1114.0" r="1.1" fill="white" opacity="0.27"/>
  <circle cx="1239.4" cy="47.2" r="0.6" fill="white" opacity="0.29"/>
  <circle cx="115.6" cy="1048.4" r="1.2" fill="white" opacity="0.44"/>
  <circle cx="1051.5" cy="269.4" r="0.8" fill="white" opacity="0.38"/>
  <circle cx="1266.0" cy="750.2" r="0.8" fill="white" opacity="0.44"/>
  <circle cx="656.6" cy="753.5" r="1.3" fill="white" opacity="0.40"/>
  <circle cx="735.2" cy="708.8" r="0.7" fill="white" opacity="0.33"/>
  <circle cx="1332.5" cy="581.9" r="0.5" fill="white" opacity="0.44"/>
  <circle cx="247.3" cy="39.1" r="1.1" fill="white" opacity="0.43"/>
  <circle cx="179.7" cy="532.5" r="1.0" fill="white" opacity="0.24"/>
  <circle cx="1006.6" cy="301.7" r="1.2" fill="white" opacity="0.35"/>
  <circle cx="839.1" cy="277.4" r="1.3" fill="white" opacity="0.20"/>
  <circle cx="501.0" cy="122.8" r="0.6" fill="white" opacity="0.20"/>
  <circle cx="836.8" cy="86.5" r="0.6" fill="white" opacity="0.33"/>
  <circle cx="1087.9" cy="242.9" r="1.2" fill="white" opacity="0.37"/>
  <circle cx="1479.1" cy="972.3" r="1.5" fill="white" opacity="0.31"/>
  <circle cx="1416.5" cy="385.0" r="0.8" fill="white" opacity="0.33"/>
  <circle cx="36.8" cy="867.9" r="0.6" fill="white" opacity="0.38"/>
  <circle cx="94.2" cy="512.7" r="0.8" fill="white" opacity="0.48"/>
  <circle cx="477.5" cy="427.7" r="0.8" fill="white" opacity="0.24"/>
  <circle cx="1030.6" cy="363.2" r="0.8" fill="white" opacity="0.29"/>
  <circle cx="564.9" cy="952.2" r="0.7" fill="white" opacity="0.24"/>
  <circle cx="529.0" cy="683.9" r="0.8" fill="white" opacity="0.23"/>
  <circle cx="571.7" cy="1152.9" r="1.4" fill="white" opacity="0.33"/>
  <circle cx="692.7" cy="208.2" r="1.2" fill="white" opacity="0.42"/>
  <circle cx="413.6" cy="751.0" r="0.6" fill="white" opacity="0.29"/>
  <circle cx="462.0" cy="956.1" r="1.1" fill="white" opacity="0.35"/>
  <circle cx="700.2" cy="662.3" r="1.0" fill="white" opacity="0.28"/>
  <circle cx="1329.3" cy="956.3" r="0.9" fill="white" opacity="0.32"/>
  <circle cx="1482.0" cy="24.7" r="1.3" fill="white" opacity="0.25"/>
  <circle cx="304.3" cy="419.8" r="1.1" fill="white" opacity="0.30"/>
  <circle cx="828.3" cy="615.2" r="1.4" fill="white" opacity="0.37"/>
  <circle cx="432.6" cy="759.7" r="1.1" fill="white" opacity="0.29"/>
  <circle cx="1159.0" cy="10.9" r="1.5" fill="white" opacity="0.46"/>
  <circle cx="97.0" cy="853.5" r="0.6" fill="white" opacity="0.50"/>
  <circle cx="723.9" cy="895.0" r="0.8" fill="white" opacity="0.40"/>
  <circle cx="46.1" cy="958.9" r="0.8" fill="white" opacity="0.25"/>
  <circle cx="705.9" cy="602.1" r="0.5" fill="white" opacity="0.25"/>
  <circle cx="610.3" cy="653.1" r="1.2" fill="white" opacity="0.24"/>
  <circle cx="1315.8" cy="431.3" r="1.5" fill="white" opacity="0.31"/>
  <circle cx="716.1" cy="431.4" r="0.6" fill="white" opacity="0.48"/>
  <circle cx="946.1" cy="908.2" r="0.7" fill="white" opacity="0.35"/>
  <circle cx="456.2" cy="326.0" r="0.9" fill="white" opacity="0.39"/>
  <circle cx="731.9" cy="838.0" r="1.5" fill="white" opacity="0.38"/>
  <circle cx="1279.0" cy="1142.1" r="1.5" fill="white" opacity="0.30"/>
  <circle cx="1340.1" cy="837.0" r="0.5" fill="white" opacity="0.45"/>
  <circle cx="1436.0" cy="1075.5" r="0.8" fill="white" opacity="0.42"/>
  <circle cx="1324.3" cy="533.5" r="1.1" fill="white" opacity="0.31"/>
  <circle cx="1473.6" cy="629.0" r="0.7" fill="white" opacity="0.33"/>
  <circle cx="939.4" cy="451.5" r="0.8" fill="white" opacity="0.39"/>
  <circle cx="510.7" cy="585.3" r="0.6" fill="white" opacity="0.30"/>
  <circle cx="182.0" cy="578.4" r="0.8" fill="white" opacity="0.31"/>
  <circle cx="48.6" cy="1187.8" r="0.7" fill="white" opacity="0.20"/>
  <circle cx="935.1" cy="46.4" r="1.1" fill="white" opacity="0.47"/>
  <circle cx="93.1" cy="569.3" r="1.3" fill="white" opacity="0.27"/>
  <circle cx="210.8" cy="69.7" r="1.2" fill="white" opacity="0.43"/>
  <circle cx="682.9" cy="418.1" r="1.5" fill="white" opacity="0.27"/>
  <circle cx="1279.9" cy="969.6" r="1.0" fill="white" opacity="0.44"/>
  <circle cx="522.8" cy="1082.9" r="1.2" fill="white" opacity="0.39"/>
  <circle cx="1343.4" cy="809.5" r="1.4" fill="white" opacity="0.31"/>
  <circle cx="599.9" cy="1133.9" r="0.9" fill="white" opacity="0.29"/>
  <circle cx="1292.3" cy="422.6" r="0.9" fill="white" opacity="0.37"/>
  <circle cx="140.7" cy="1009.4" r="1.1" fill="white" opacity="0.21"/>
  <circle cx="150.5" cy="352.6" r="0.9" fill="white" opacity="0.44"/>
  <circle cx="1281.1" cy="888.4" r="1.2" fill="white" opacity="0.35"/>
  <circle cx="139.9" cy="420.8" r="1.2" fill="white" opacity="0.21"/>
  <circle cx="386.5" cy="20.0" r="0.8" fill="white" opacity="0.30"/>
  <circle cx="766.5" cy="211.9" r="1.0" fill="white" opacity="0.24"/>
  <circle cx="1262.5" cy="1002.0" r="0.9" fill="white" opacity="0.47"/>
  <circle cx="1063.0" cy="671.4" r="1.1" fill="white" opacity="0.33"/>
  <circle cx="221.9" cy="1078.7" r="0.7" fill="white" opacity="0.46"/>
  <circle cx="612.7" cy="660.4" r="1.1" fill="white" opacity="0.31"/>
  <circle cx="1585.9" cy="1017.3" r="0.9" fill="white" opacity="0.30"/>
  <circle cx="1419.5" cy="1127.9" r="0.9" fill="white" opacity="0.24"/>
  <circle cx="856.6" cy="555.2" r="0.9" fill="white" opacity="0.38"/>
  <circle cx="22.5" cy="678.7" r="1.2" fill="white" opacity="0.37"/>
  <circle cx="2.8" cy="681.9" r="1.4" fill="white" opacity="0.41"/>
  <circle cx="825.2" cy="451.7" r="0.7" fill="white" opacity="0.34"/>
  <circle cx="1533.9" cy="180.6" r="1.1" fill="white" opacity="0.36"/>
  <circle cx="145.6" cy="292.2" r="0.8" fill="white" opacity="0.23"/>
  <circle cx="149.7" cy="993.3" r="0.8" fill="white" opacity="0.40"/>
  <circle cx="781.4" cy="618.8" r="1.0" fill="white" opacity="0.21"/>
  <circle cx="115.6" cy="149.8" r="1.3" fill="white" opacity="0.41"/>
  <circle cx="1537.4" cy="829.3" r="0.7" fill="white" opacity="0.37"/>

  <text x="800" y="45" text-anchor="middle" font-size="28" font-weight="bold" fill="white">
    Neural Network 3D Structure - Capability Dimensions
  </text>
  <text x="800" y="70" text-anchor="middle" font-size="14" fill="#94a3b8">
    Qwen3.5-0.8B · 24 Layers · Gradient-based Parameter Sensitivity
  </text>

  <!-- 神经网络层 -->

  <g id="layer_0">
    <rect x="200.0" y="100.0" width="900.0" height="60" 
          fill="url(#layer_grad)" stroke="#4a5568" stroke-width="1" rx="3" opacity="0.6"/>
    <polygon points="200.0,160.0 1100.0,160.0 
                     1085.0,175.0 
                     185.0,175.0"
          fill="#1a1a2e" stroke="#4a5568" stroke-width="0.5" opacity="0.4"/>

    <rect x="210.0" y="109.0" width="123.1" height="42.0"
          fill="url(#cap_数学推理_top)" filter="url(#glow3d)" rx="2"/>

    <rect x="333.1" y="109.0" width="130.6" height="42.0"
          fill="url(#cap_逻辑推理_top)" filter="url(#glow3d)" rx="2"/>

    <rect x="463.7" y="109.0" width="142.5" height="42.0"
          fill="url(#cap_物理_top)" filter="url(#glow3d)" rx="2"/>

    <rect x="606.2" y="109.0" width="158.3" height="42.0"
          fill="url(#cap_历史_top)" filter="url(#glow3d)" rx="2"/>

    <rect x="764.6" y="109.0" width="155.6" height="42.0"
          fill="url(#cap_地理_top)" filter="url(#glow3d)" rx="2"/>

    <rect x="920.2" y="109.0" width="169.8" height="42.0"
          fill="url(#cap_文学_top)" filter="url(#glow3d)" rx="2"/>
    <text x="150.0" y="134.0" 
          text-anchor="end" font-size="10" fill="#94a3b8">L0</text>
  </g>

  <g id="layer_1">
    <rect x="203.1" y="135.0" width="892.5" height="60" 
          fill="url(#layer_grad)" stroke="#4a5568" stroke-width="1" rx="3" opacity="0.6"/>
    <polygon points="203.1,195.0 1095.6,195.0 
                     1080.6,210.0 
                     188.1,210.0"
          fill="#1a1a2e" stroke="#4a5568" stroke-width="0.5" opacity="0.4"/>

    <rect x="213.1" y="144.0" width="132.0" height="42.0"
          fill="url(#cap_数学推理_top)" filter="url(#glow3d)" rx="2"/>

    <rect x="345.2" y="144.0" width="131.4" height="42.0"
          fill="url(#cap_逻辑推理_top)" filter="url(#glow3d)" rx="2"/>

    <rect x="476.6" y="144.0" width="144.9" height="42.0"
          fill="url(#cap_物理_top)" filter="url(#glow3d)" rx="2"/>

    <rect x="621.5" y="144.0" width="157.2" height="42.0"
          fill="url(#cap_历史_top)" filter="url(#glow3d)" rx="2"/>

    <rect x="778.7" y="144.0" width="148.8" height="42.0"
          fill="url(#cap_地理_top)" filter="url(#glow3d)" rx="2"/>

    <rect x="927.5" y="144.0" width="158.1" height="42.0"
          fill="url(#cap_文学_top)" filter="url(#glow3d)" rx="2"/>
    <text x="153.125" y="169.0" 
          text-anchor="end" font-size="10" fill="#94a3b8">L1</text>
  </g>

  <g id="layer_2">
    <rect x="206.2" y="170.0" width="885.0" height="60" 
          fill="url(#layer_grad)" stroke="#4a5568" stroke-width="1" rx="3" opacity="0.6"/>
    <polygon points="206.2,230.0 1091.2,230.0 
                     1076.2,245.0 
                     191.2,245.0"
          fill="#1a1a2e" stroke="#4a5568" stroke-width="0.5" opacity="0.4"/>

    <rect x="216.2" y="179.0" width="129.7" height="42.0"
          fill="url(#cap_数学推理_top)" filter="url(#glow3d)" rx="2"/>

    <rect x="345.9" y="179.0" width="132.3" height="42.0"
          fill="url(#cap_逻辑推理_top)" filter="url(#glow3d)" rx="2"/>

    <rect x="478.2" y="179.0" width="150.6" height="42.0"
          fill="url(#cap_物理_top)" filter="url(#glow3d)" rx="2"/>

    <rect x="628.7" y="179.0" width="150.5" height="42.0"
          fill="url(#cap_历史_top)" filter="url(#glow3d)" rx="2"/>

    <rect x="779.3" y="179.0" width="146.8" height="42.0"
          fill="url(#cap_地理_top)" filter="url(#glow3d)" rx="2"/>

    <rect x="926.1" y="179.0" width="155.1" height="42.0"
          fill="url(#cap_文学_top)" filter="url(#glow3d)" rx="2"/>
    <text x="156.25" y="204.0" 
          text-anchor="end" font-size="10" fill="#94a3b8">L2</text>
  </g>

  <g id="layer_3">
    <rect x="209.4" y="205.0" width="877.5" height="60" 
          fill="url(#layer_grad)" stroke="#4a5568" stroke-width="1" rx="3" opacity="0.6"/>
    <polygon points="209.4,265.0 1086.9,265.0 
                     1071.9,280.0 
                     194.4,280.0"
          fill="#1a1a2e" stroke="#4a5568" stroke-width="0.5" opacity="0.4"/>

    <rect x="219.4" y="214.0" width="127.0" height="42.0"
          fill="url(#cap_数学推理_top)" filter="url(#glow3d)" rx="2"/>

    <rect x="346.4" y="214.0" width="134.6" height="42.0"
          fill="url(#cap_逻辑推理_top)" filter="url(#glow3d)" rx="2"/>

    <rect x="480.9" y="214.0" width="147.0" height="42.0"
          fill="url(#cap_物理_top)" filter="url(#glow3d)" rx="2"/>

    <rect x="627.9" y="214.0" width="148.2" height="42.0"
          fill="url(#cap_历史_top)" filter="url(#glow3d)" rx="2"/>

    <rect x="776.1" y="214.0" width="146.9" height="42.0"
          fill="url(#cap_地理_top)" filter="url(#glow3d)" rx="2"/>

    <rect x="923.0" y="214.0" width="153.9" height="42.0"
          fill="url(#cap_文学_top)" filter="url(#glow3d)" rx="2"/>
    <text x="159.375" y="239.0" 
          text-anchor="end" font-size="10" fill="#94a3b8">L3</text>
  </g>

  <g id="layer_4">
    <rect x="212.5" y="240.0" width="870.0" height="60" 
          fill="url(#layer_grad)" stroke="#4a5568" stroke-width="1" rx="3" opacity="0.6"/>
    <polygon points="212.5,300.0 1082.5,300.0 
                     1067.5,315.0 
                     197.5,315.0"
          fill="#1a1a2e" stroke="#4a5568" stroke-width="0.5" opacity="0.4"/>

    <rect x="222.5" y="249.0" width="126.8" height="42.0"
          fill="url(#cap_数学推理_top)" filter="url(#glow3d)" rx="2"/>

    <rect x="349.3" y="249.0" width="134.7" height="42.0"
          fill="url(#cap_逻辑推理_top)" filter="url(#glow3d)" rx="2"/>

    <rect x="484.0" y="249.0" width="144.2" height="42.0"
          fill="url(#cap_物理_top)" filter="url(#glow3d)" rx="2"/>

    <rect x="628.2" y="249.0" width="149.1" height="42.0"
          fill="url(#cap_历史_top)" filter="url(#glow3d)" rx="2"/>

    <rect x="777.3" y="249.0" width="144.5" height="42.0"
          fill="url(#cap_地理_top)" filter="url(#glow3d)" rx="2"/>

    <rect x="921.8" y="249.0" width="150.7" height="42.0"
          fill="url(#cap_文学_top)" filter="url(#glow3d)" rx="2"/>
    <text x="162.5" y="274.0" 
          text-anchor="end" font-size="10" fill="#94a3b8">L4</text>
  </g>

  <g id="layer_5">
    <rect x="215.6" y="275.0" width="862.5" height="60" 
          fill="url(#layer_grad)" stroke="#4a5568" stroke-width="1" rx="3" opacity="0.6"/>
    <polygon points="215.6,335.0 1078.1,335.0 
                     1063.1,350.0 
                     200.6,350.0"
          fill="#1a1a2e" stroke="#4a5568" stroke-width="0.5" opacity="0.4"/>

    <rect x="225.6" y="284.0" width="128.5" height="42.0"
          fill="url(#cap_数学推理_top)" filter="url(#glow3d)" rx="2"/>

    <rect x="354.1" y="284.0" width="135.6" height="42.0"
          fill="url(#cap_逻辑推理_top)" filter="url(#glow3d)" rx="2"/>

    <rect x="489.7" y="284.0" width="139.1" height="42.0"
          fill="url(#cap_物理_top)" filter="url(#glow3d)" rx="2"/>

    <rect x="628.8" y="284.0" width="145.4" height="42.0"
          fill="url(#cap_历史_top)" filter="url(#glow3d)" rx="2"/>

    <rect x="774.2" y="284.0" width="144.6" height="42.0"
          fill="url(#cap_地理_top)" filter="url(#glow3d)" rx="2"/>

    <rect x="918.8" y="284.0" width="149.3" height="42.0"
          fill="url(#cap_文学_top)" filter="url(#glow3d)" rx="2"/>
    <text x="165.625" y="309.0" 
          text-anchor="end" font-size="10" fill="#94a3b8">L5</text>
  </g>

  <g id="layer_6">
    <rect x="218.8" y="310.0" width="855.0" height="60" 
          fill="url(#layer_grad)" stroke="#4a5568" stroke-width="1" rx="3" opacity="0.6"/>
    <polygon points="218.8,370.0 1073.8,370.0 
                     1058.8,385.0 
                     203.8,385.0"
          fill="#1a1a2e" stroke="#4a5568" stroke-width="0.5" opacity="0.4"/>

    <rect x="228.8" y="319.0" width="124.9" height="42.0"
          fill="url(#cap_数学推理_top)" filter="url(#glow3d)" rx="2"/>

    <rect x="353.7" y="319.0" width="136.6" height="42.0"
          fill="url(#cap_逻辑推理_top)" filter="url(#glow3d)" rx="2"/>

    <rect x="490.3" y="319.0" width="141.0" height="42.0"
          fill="url(#cap_物理_top)" filter="url(#glow3d)" rx="2"/>

    <rect x="631.3" y="319.0" width="138.5" height="42.0"
          fill="url(#cap_历史_top)" filter="url(#glow3d)" rx="2"/>

    <rect x="769.7" y="319.0" width="145.7" height="42.0"
          fill="url(#cap_地理_top)" filter="url(#glow3d)" rx="2"/>

    <rect x="915.5" y="319.0" width="148.3" height="42.0"
          fill="url(#cap_文学_top)" filter="url(#glow3d)" rx="2"/>
    <text x="168.75" y="344.0" 
          text-anchor="end" font-size="10" fill="#94a3b8">L6</text>
  </g>

  <g id="layer_7">
    <rect x="221.9" y="345.0" width="847.5" height="60" 
          fill="url(#layer_grad)" stroke="#4a5568" stroke-width="1" rx="3" opacity="0.6"/>
    <polygon points="221.9,405.0 1069.4,405.0 
                     1054.4,420.0 
                     206.9,420.0"
          fill="#1a1a2e" stroke="#4a5568" stroke-width="0.5" opacity="0.4"/>

    <rect x="231.9" y="354.0" width="128.8" height="42.0"
          fill="url(#cap_数学推理_top)" filter="url(#glow3d)" rx="2"/>

    <rect x="360.7" y="354.0" width="138.4" height="42.0"
          fill="url(#cap_逻辑推理_top)" filter="url(#glow3d)" rx="2"/>

    <rect x="499.1" y="354.0" width="136.8" height="42.0"
          fill="url(#cap_物理_top)" filter="url(#glow3d)" rx="2"/>

    <rect x="636.0" y="354.0" width="137.8" height="42.0"
          fill="url(#cap_历史_top)" filter="url(#glow3d)" rx="2"/>

    <rect x="773.8" y="354.0" width="140.6" height="42.0"
          fill="url(#cap_地理_top)" filter="url(#glow3d)" rx="2"/>

    <rect x="914.4" y="354.0" width="145.0" height="42.0"
          fill="url(#cap_文学_top)" filter="url(#glow3d)" rx="2"/>
    <text x="171.875" y="379.0" 
          text-anchor="end" font-size="10" fill="#94a3b8">L7</text>
  </g>

  <g id="layer_8">
    <rect x="225.0" y="380.0" width="840.0" height="60" 
          fill="url(#layer_grad)" stroke="#4a5568" stroke-width="1" rx="3" opacity="0.6"/>
    <polygon points="225.0,440.0 1065.0,440.0 
                     1050.0,455.0 
                     210.0,455.0"
          fill="#1a1a2e" stroke="#4a5568" stroke-width="0.5" opacity="0.4"/>

    <rect x="235.0" y="389.0" width="127.0" height="42.0"
          fill="url(#cap_数学推理_top)" filter="url(#glow3d)" rx="2"/>

    <rect x="362.0" y="389.0" width="138.3" height="42.0"
          fill="url(#cap_逻辑推理_top)" filter="url(#glow3d)" rx="2"/>

    <rect x="500.3" y="389.0" width="136.0" height="42.0"
          fill="url(#cap_物理_top)" filter="url(#glow3d)" rx="2"/>

    <rect x="636.3" y="389.0" width="136.3" height="42.0"
          fill="url(#cap_历史_top)" filter="url(#glow3d)" rx="2"/>

    <rect x="772.6" y="389.0" width="138.8" height="42.0"
          fill="url(#cap_地理_top)" filter="url(#glow3d)" rx="2"/>

    <rect x="911.4" y="389.0" width="143.6" height="42.0"
          fill="url(#cap_文学_top)" filter="url(#glow3d)" rx="2"/>
    <text x="175.0" y="414.0" 
          text-anchor="end" font-size="10" fill="#94a3b8">L8</text>
  </g>

  <g id="layer_9">
    <rect x="228.1" y="415.0" width="832.5" height="60" 
          fill="url(#layer_grad)" stroke="#4a5568" stroke-width="1" rx="3" opacity="0.6"/>
    <polygon points="228.1,475.0 1060.6,475.0 
                     1045.6,490.0 
                     213.1,490.0"
          fill="#1a1a2e" stroke="#4a5568" stroke-width="0.5" opacity="0.4"/>

    <rect x="238.1" y="424.0" width="128.9" height="42.0"
          fill="url(#cap_数学推理_top)" filter="url(#glow3d)" rx="2"/>

    <rect x="367.0" y="424.0" width="139.4" height="42.0"
          fill="url(#cap_逻辑推理_top)" filter="url(#glow3d)" rx="2"/>

    <rect x="506.4" y="424.0" width="134.0" height="42.0"
          fill="url(#cap_物理_top)" filter="url(#glow3d)" rx="2"/>

    <rect x="640.5" y="424.0" width="132.9" height="42.0"
          fill="url(#cap_历史_top)" filter="url(#glow3d)" rx="2"/>

    <rect x="773.4" y="424.0" width="136.7" height="42.0"
          fill="url(#cap_地理_top)" filter="url(#glow3d)" rx="2"/>

    <rect x="910.1" y="424.0" width="140.6" height="42.0"
          fill="url(#cap_文学_top)" filter="url(#glow3d)" rx="2"/>
    <text x="178.125" y="449.0" 
          text-anchor="end" font-size="10" fill="#94a3b8">L9</text>
  </g>

  <g id="layer_10">
    <rect x="231.2" y="450.0" width="825.0" height="60" 
          fill="url(#layer_grad)" stroke="#4a5568" stroke-width="1" rx="3" opacity="0.6"/>
    <polygon points="231.2,510.0 1056.2,510.0 
                     1041.2,525.0 
                     216.2,525.0"
          fill="#1a1a2e" stroke="#4a5568" stroke-width="0.5" opacity="0.4"/>

    <rect x="241.2" y="459.0" width="125.7" height="42.0"
          fill="url(#cap_数学推理_top)" filter="url(#glow3d)" rx="2"/>

    <rect x="367.0" y="459.0" width="137.0" height="42.0"
          fill="url(#cap_逻辑推理_top)" filter="url(#glow3d)" rx="2"/>

    <rect x="503.9" y="459.0" width="133.6" height="42.0"
          fill="url(#cap_物理_top)" filter="url(#glow3d)" rx="2"/>

    <rect x="637.6" y="459.0" width="132.0" height="42.0"
          fill="url(#cap_历史_top)" filter="url(#glow3d)" rx="2"/>

    <rect x="769.5" y="459.0" width="137.4" height="42.0"
          fill="url(#cap_地理_top)" filter="url(#glow3d)" rx="2"/>

    <rect x="907.0" y="459.0" width="139.3" height="42.0"
          fill="url(#cap_文学_top)" filter="url(#glow3d)" rx="2"/>
    <text x="181.25" y="484.0" 
          text-anchor="end" font-size="10" fill="#94a3b8">L10</text>
  </g>

  <g id="layer_11">
    <rect x="234.4" y="485.0" width="817.5" height="60" 
          fill="url(#layer_grad)" stroke="#4a5568" stroke-width="1" rx="3" opacity="0.6"/>
    <polygon points="234.4,545.0 1051.9,545.0 
                     1036.9,560.0 
                     219.4,560.0"
          fill="#1a1a2e" stroke="#4a5568" stroke-width="0.5" opacity="0.4"/>

    <rect x="244.4" y="494.0" width="131.5" height="42.0"
          fill="url(#cap_数学推理_top)" filter="url(#glow3d)" rx="2"/>

    <rect x="375.9" y="494.0" width="136.6" height="42.0"
          fill="url(#cap_逻辑推理_top)" filter="url(#glow3d)" rx="2"/>

    <rect x="512.5" y="494.0" width="130.2" height="42.0"
          fill="url(#cap_物理_top)" filter="url(#glow3d)" rx="2"/>

    <rect x="642.7" y="494.0" width="131.2" height="42.0"
          fill="url(#cap_历史_top)" filter="url(#glow3d)" rx="2"/>

    <rect x="773.9" y="494.0" width="133.2" height="42.0"
          fill="url(#cap_地理_top)" filter="url(#glow3d)" rx="2"/>

    <rect x="907.1" y="494.0" width="134.7" height="42.0"
          fill="url(#cap_文学_top)" filter="url(#glow3d)" rx="2"/>
    <text x="184.375" y="519.0" 
          text-anchor="end" font-size="10" fill="#94a3b8">L11</text>
  </g>

  <g id="layer_12">
    <rect x="237.5" y="520.0" width="810.0" height="60" 
          fill="url(#layer_grad)" stroke="#4a5568" stroke-width="1" rx="3" opacity="0.6"/>
    <polygon points="237.5,580.0 1047.5,580.0 
                     1032.5,595.0 
                     222.5,595.0"
          fill="#1a1a2e" stroke="#4a5568" stroke-width="0.5" opacity="0.4"/>

    <rect x="247.5" y="529.0" width="132.9" height="42.0"
          fill="url(#cap_数学推理_top)" filter="url(#glow3d)" rx="2"/>

    <rect x="380.4" y="529.0" width="134.9" height="42.0"
          fill="url(#cap_逻辑推理_top)" filter="url(#glow3d)" rx="2"/>

    <rect x="515.3" y="529.0" width="128.2" height="42.0"
          fill="url(#cap_物理_top)" filter="url(#glow3d)" rx="2"/>

    <rect x="643.5" y="529.0" width="129.7" height="42.0"
          fill="url(#cap_历史_top)" filter="url(#glow3d)" rx="2"/>

    <rect x="773.2" y="529.0" width="131.6" height="42.0"
          fill="url(#cap_地理_top)" filter="url(#glow3d)" rx="2"/>

    <rect x="904.9" y="529.0" width="132.6" height="42.0"
          fill="url(#cap_文学_top)" filter="url(#glow3d)" rx="2"/>
    <text x="187.5" y="554.0" 
          text-anchor="end" font-size="10" fill="#94a3b8">L12</text>
  </g>

  <g id="layer_13">
    <rect x="240.6" y="555.0" width="802.5" height="60" 
          fill="url(#layer_grad)" stroke="#4a5568" stroke-width="1" rx="3" opacity="0.6"/>
    <polygon points="240.6,615.0 1043.1,615.0 
                     1028.1,630.0 
                     225.6,630.0"
          fill="#1a1a2e" stroke="#4a5568" stroke-width="0.5" opacity="0.4"/>

    <rect x="250.6" y="564.0" width="134.7" height="42.0"
          fill="url(#cap_数学推理_top)" filter="url(#glow3d)" rx="2"/>

    <rect x="385.3" y="564.0" width="135.2" height="42.0"
          fill="url(#cap_逻辑推理_top)" filter="url(#glow3d)" rx="2"/>

    <rect x="520.6" y="564.0" width="127.8" height="42.0"
          fill="url(#cap_物理_top)" filter="url(#glow3d)" rx="2"/>

    <rect x="648.4" y="564.0" width="126.6" height="42.0"
          fill="url(#cap_历史_top)" filter="url(#glow3d)" rx="2"/>

    <rect x="775.0" y="564.0" width="129.5" height="42.0"
          fill="url(#cap_地理_top)" filter="url(#glow3d)" rx="2"/>

    <rect x="904.4" y="564.0" width="128.7" height="42.0"
          fill="url(#cap_文学_top)" filter="url(#glow3d)" rx="2"/>
    <text x="190.625" y="589.0" 
          text-anchor="end" font-size="10" fill="#94a3b8">L13</text>
  </g>

  <g id="layer_14">
    <rect x="243.8" y="590.0" width="795.0" height="60" 
          fill="url(#layer_grad)" stroke="#4a5568" stroke-width="1" rx="3" opacity="0.6"/>
    <polygon points="243.8,650.0 1038.8,650.0 
                     1023.8,665.0 
                     228.8,665.0"
          fill="#1a1a2e" stroke="#4a5568" stroke-width="0.5" opacity="0.4"/>

    <rect x="253.8" y="599.0" width="121.5" height="42.0"
          fill="url(#cap_数学推理_top)" filter="url(#glow3d)" rx="2"/>

    <rect x="375.2" y="599.0" width="133.1" height="42.0"
          fill="url(#cap_逻辑推理_top)" filter="url(#glow3d)" rx="2"/>

    <rect x="508.3" y="599.0" width="129.1" height="42.0"
          fill="url(#cap_物理_top)" filter="url(#glow3d)" rx="2"/>

    <rect x="637.4" y="599.0" width="124.7" height="42.0"
          fill="url(#cap_历史_top)" filter="url(#glow3d)" rx="2"/>

    <rect x="762.1" y="599.0" width="133.5" height="42.0"
          fill="url(#cap_地理_top)" filter="url(#glow3d)" rx="2"/>

    <rect x="895.6" y="599.0" width="133.1" height="42.0"
          fill="url(#cap_文学_top)" filter="url(#glow3d)" rx="2"/>
    <text x="193.75" y="624.0" 
          text-anchor="end" font-size="10" fill="#94a3b8">L14</text>
  </g>

  <g id="layer_15">
    <rect x="246.9" y="625.0" width="787.5" height="60" 
          fill="url(#layer_grad)" stroke="#4a5568" stroke-width="1" rx="3" opacity="0.6"/>
    <polygon points="246.9,685.0 1034.4,685.0 
                     1019.4,700.0 
                     231.9,700.0"
          fill="#1a1a2e" stroke="#4a5568" stroke-width="0.5" opacity="0.4"/>

    <rect x="256.9" y="634.0" width="132.4" height="42.0"
          fill="url(#cap_数学推理_top)" filter="url(#glow3d)" rx="2"/>

    <rect x="389.3" y="634.0" width="132.8" height="42.0"
          fill="url(#cap_逻辑推理_top)" filter="url(#glow3d)" rx="2"/>

    <rect x="522.1" y="634.0" width="123.6" height="42.0"
          fill="url(#cap_物理_top)" filter="url(#glow3d)" rx="2"/>

    <rect x="645.7" y="634.0" width="124.7" height="42.0"
          fill="url(#cap_历史_top)" filter="url(#glow3d)" rx="2"/>

    <rect x="770.4" y="634.0" width="126.9" height="42.0"
          fill="url(#cap_地理_top)" filter="url(#glow3d)" rx="2"/>

    <rect x="897.3" y="634.0" width="127.1" height="42.0"
          fill="url(#cap_文学_top)" filter="url(#glow3d)" rx="2"/>
    <text x="196.875" y="659.0" 
          text-anchor="end" font-size="10" fill="#94a3b8">L15</text>
  </g>

  <g id="layer_16">
    <rect x="250.0" y="660.0" width="780.0" height="60" 
          fill="url(#layer_grad)" stroke="#4a5568" stroke-width="1" rx="3" opacity="0.6"/>
    <polygon points="250.0,720.0 1030.0,720.0 
                     1015.0,735.0 
                     235.0,735.0"
          fill="#1a1a2e" stroke="#4a5568" stroke-width="0.5" opacity="0.4"/>

    <rect x="260.0" y="669.0" width="127.7" height="42.0"
          fill="url(#cap_数学推理_top)" filter="url(#glow3d)" rx="2"/>

    <rect x="387.7" y="669.0" width="130.7" height="42.0"
          fill="url(#cap_逻辑推理_top)" filter="url(#glow3d)" rx="2"/>

    <rect x="518.4" y="669.0" width="125.1" height="42.0"
          fill="url(#cap_物理_top)" filter="url(#glow3d)" rx="2"/>

    <rect x="643.4" y="669.0" width="127.7" height="42.0"
          fill="url(#cap_历史_top)" filter="url(#glow3d)" rx="2"/>

    <rect x="771.1" y="669.0" width="123.8" height="42.0"
          fill="url(#cap_地理_top)" filter="url(#glow3d)" rx="2"/>

    <rect x="894.9" y="669.0" width="125.1" height="42.0"
          fill="url(#cap_文学_top)" filter="url(#glow3d)" rx="2"/>
    <text x="200.0" y="694.0" 
          text-anchor="end" font-size="10" fill="#94a3b8">L16</text>
  </g>

  <g id="layer_17">
    <rect x="253.1" y="695.0" width="772.5" height="60" 
          fill="url(#layer_grad)" stroke="#4a5568" stroke-width="1" rx="3" opacity="0.6"/>
    <polygon points="253.1,755.0 1025.6,755.0 
                     1010.6,770.0 
                     238.1,770.0"
          fill="#1a1a2e" stroke="#4a5568" stroke-width="0.5" opacity="0.4"/>

    <rect x="263.1" y="704.0" width="125.6" height="42.0"
          fill="url(#cap_数学推理_top)" filter="url(#glow3d)" rx="2"/>

    <rect x="388.7" y="704.0" width="127.9" height="42.0"
          fill="url(#cap_逻辑推理_top)" filter="url(#glow3d)" rx="2"/>

    <rect x="516.6" y="704.0" width="126.4" height="42.0"
          fill="url(#cap_物理_top)" filter="url(#glow3d)" rx="2"/>

    <rect x="643.0" y="704.0" width="126.3" height="42.0"
          fill="url(#cap_历史_top)" filter="url(#glow3d)" rx="2"/>

    <rect x="769.2" y="704.0" width="121.3" height="42.0"
          fill="url(#cap_地理_top)" filter="url(#glow3d)" rx="2"/>

    <rect x="890.5" y="704.0" width="125.1" height="42.0"
          fill="url(#cap_文学_top)" filter="url(#glow3d)" rx="2"/>
    <text x="203.125" y="729.0" 
          text-anchor="end" font-size="10" fill="#94a3b8">L17</text>
  </g>

  <g id="layer_18">
    <rect x="256.2" y="730.0" width="765.0" height="60" 
          fill="url(#layer_grad)" stroke="#4a5568" stroke-width="1" rx="3" opacity="0.6"/>
    <polygon points="256.2,790.0 1021.2,790.0 
                     1006.2,805.0 
                     241.2,805.0"
          fill="#1a1a2e" stroke="#4a5568" stroke-width="0.5" opacity="0.4"/>

    <rect x="266.2" y="739.0" width="123.4" height="42.0"
          fill="url(#cap_数学推理_top)" filter="url(#glow3d)" rx="2"/>

    <rect x="389.6" y="739.0" width="124.3" height="42.0"
          fill="url(#cap_逻辑推理_top)" filter="url(#glow3d)" rx="2"/>

    <rect x="513.9" y="739.0" width="125.5" height="42.0"
          fill="url(#cap_物理_top)" filter="url(#glow3d)" rx="2"/>

    <rect x="639.4" y="739.0" width="125.1" height="42.0"
          fill="url(#cap_历史_top)" filter="url(#glow3d)" rx="2"/>

    <rect x="764.4" y="739.0" width="123.4" height="42.0"
          fill="url(#cap_地理_top)" filter="url(#glow3d)" rx="2"/>

    <rect x="887.9" y="739.0" width="123.4" height="42.0"
          fill="url(#cap_文学_top)" filter="url(#glow3d)" rx="2"/>
    <text x="206.25" y="764.0" 
          text-anchor="end" font-size="10" fill="#94a3b8">L18</text>
  </g>

  <g id="layer_19">
    <rect x="259.4" y="765.0" width="757.5" height="60" 
          fill="url(#layer_grad)" stroke="#4a5568" stroke-width="1" rx="3" opacity="0.6"/>
    <polygon points="259.4,825.0 1016.9,825.0 
                     1001.9,840.0 
                     244.4,840.0"
          fill="#1a1a2e" stroke="#4a5568" stroke-width="0.5" opacity="0.4"/>

    <rect x="269.4" y="774.0" width="126.3" height="42.0"
          fill="url(#cap_数学推理_top)" filter="url(#glow3d)" rx="2"/>

    <rect x="395.6" y="774.0" width="125.4" height="42.0"
          fill="url(#cap_逻辑推理_top)" filter="url(#glow3d)" rx="2"/>

    <rect x="521.1" y="774.0" width="122.8" height="42.0"
          fill="url(#cap_物理_top)" filter="url(#glow3d)" rx="2"/>

    <rect x="643.9" y="774.0" width="122.0" height="42.0"
          fill="url(#cap_历史_top)" filter="url(#glow3d)" rx="2"/>

    <rect x="765.9" y="774.0" width="119.7" height="42.0"
          fill="url(#cap_地理_top)" filter="url(#glow3d)" rx="2"/>

    <rect x="885.7" y="774.0" width="121.2" height="42.0"
          fill="url(#cap_文学_top)" filter="url(#glow3d)" rx="2"/>
    <text x="209.375" y="799.0" 
          text-anchor="end" font-size="10" fill="#94a3b8">L19</text>
  </g>

  <g id="layer_20">
    <rect x="262.5" y="800.0" width="750.0" height="60" 
          fill="url(#layer_grad)" stroke="#4a5568" stroke-width="1" rx="3" opacity="0.6"/>
    <polygon points="262.5,860.0 1012.5,860.0 
                     997.5,875.0 
                     247.5,875.0"
          fill="#1a1a2e" stroke="#4a5568" stroke-width="0.5" opacity="0.4"/>

    <rect x="272.5" y="809.0" width="124.6" height="42.0"
          fill="url(#cap_数学推理_top)" filter="url(#glow3d)" rx="2"/>

    <rect x="397.1" y="809.0" width="121.4" height="42.0"
          fill="url(#cap_逻辑推理_top)" filter="url(#glow3d)" rx="2"/>

    <rect x="518.5" y="809.0" width="121.7" height="42.0"
          fill="url(#cap_物理_top)" filter="url(#glow3d)" rx="2"/>

    <rect x="640.2" y="809.0" width="123.5" height="42.0"
          fill="url(#cap_历史_top)" filter="url(#glow3d)" rx="2"/>

    <rect x="763.7" y="809.0" width="119.4" height="42.0"
          fill="url(#cap_地理_top)" filter="url(#glow3d)" rx="2"/>

    <rect x="883.1" y="809.0" width="119.4" height="42.0"
          fill="url(#cap_文学_top)" filter="url(#glow3d)" rx="2"/>
    <text x="212.5" y="834.0" 
          text-anchor="end" font-size="10" fill="#94a3b8">L20</text>
  </g>

  <g id="layer_21">
    <rect x="265.6" y="835.0" width="742.5" height="60" 
          fill="url(#layer_grad)" stroke="#4a5568" stroke-width="1" rx="3" opacity="0.6"/>
    <polygon points="265.6,895.0 1008.1,895.0 
                     993.1,910.0 
                     250.6,910.0"
          fill="#1a1a2e" stroke="#4a5568" stroke-width="0.5" opacity="0.4"/>

    <rect x="275.6" y="844.0" width="126.6" height="42.0"
          fill="url(#cap_数学推理_top)" filter="url(#glow3d)" rx="2"/>

    <rect x="402.2" y="844.0" width="118.2" height="42.0"
          fill="url(#cap_逻辑推理_top)" filter="url(#glow3d)" rx="2"/>

    <rect x="520.4" y="844.0" width="120.1" height="42.0"
          fill="url(#cap_物理_top)" filter="url(#glow3d)" rx="2"/>

    <rect x="640.5" y="844.0" width="121.0" height="42.0"
          fill="url(#cap_历史_top)" filter="url(#glow3d)" rx="2"/>

    <rect x="761.5" y="844.0" width="119.7" height="42.0"
          fill="url(#cap_地理_top)" filter="url(#glow3d)" rx="2"/>

    <rect x="881.2" y="844.0" width="116.9" height="42.0"
          fill="url(#cap_文学_top)" filter="url(#glow3d)" rx="2"/>
    <text x="215.625" y="869.0" 
          text-anchor="end" font-size="10" fill="#94a3b8">L21</text>
  </g>

  <g id="layer_22">
    <rect x="268.8" y="870.0" width="735.0" height="60" 
          fill="url(#layer_grad)" stroke="#4a5568" stroke-width="1" rx="3" opacity="0.6"/>
    <polygon points="268.8,930.0 1003.8,930.0 
                     988.8,945.0 
                     253.8,945.0"
          fill="#1a1a2e" stroke="#4a5568" stroke-width="0.5" opacity="0.4"/>

    <rect x="278.8" y="879.0" width="123.8" height="42.0"
          fill="url(#cap_数学推理_top)" filter="url(#glow3d)" rx="2"/>

    <rect x="402.5" y="879.0" width="113.8" height="42.0"
          fill="url(#cap_逻辑推理_top)" filter="url(#glow3d)" rx="2"/>

    <rect x="516.3" y="879.0" width="119.5" height="42.0"
          fill="url(#cap_物理_top)" filter="url(#glow3d)" rx="2"/>

    <rect x="635.8" y="879.0" width="121.0" height="42.0"
          fill="url(#cap_历史_top)" filter="url(#glow3d)" rx="2"/>

    <rect x="756.8" y="879.0" width="121.1" height="42.0"
          fill="url(#cap_地理_top)" filter="url(#glow3d)" rx="2"/>

    <rect x="877.9" y="879.0" width="115.9" height="42.0"
          fill="url(#cap_文学_top)" filter="url(#glow3d)" rx="2"/>
    <text x="218.75" y="904.0" 
          text-anchor="end" font-size="10" fill="#94a3b8">L22</text>
  </g>

  <g id="layer_23">
    <rect x="271.9" y="905.0" width="727.5" height="60" 
          fill="url(#layer_grad)" stroke="#4a5568" stroke-width="1" rx="3" opacity="0.6"/>
    <polygon points="271.9,965.0 999.4,965.0 
                     984.4,980.0 
                     256.9,980.0"
          fill="#1a1a2e" stroke="#4a5568" stroke-width="0.5" opacity="0.4"/>

    <rect x="281.9" y="914.0" width="126.0" height="42.0"
          fill="url(#cap_数学推理_top)" filter="url(#glow3d)" rx="2"/>

    <rect x="407.9" y="914.0" width="121.6" height="42.0"
          fill="url(#cap_逻辑推理_top)" filter="url(#glow3d)" rx="2"/>

    <rect x="529.5" y="914.0" width="119.6" height="42.0"
          fill="url(#cap_物理_top)" filter="url(#glow3d)" rx="2"/>

    <rect x="649.1" y="914.0" width="113.2" height="42.0"
          fill="url(#cap_历史_top)" filter="url(#glow3d)" rx="2"/>

    <rect x="762.3" y="914.0" width="116.4" height="42.0"
          fill="url(#cap_地理_top)" filter="url(#glow3d)" rx="2"/>

    <rect x="878.6" y="914.0" width="110.8" height="42.0"
          fill="url(#cap_文学_top)" filter="url(#glow3d)" rx="2"/>
    <text x="221.875" y="939.0" 
          text-anchor="end" font-size="10" fill="#94a3b8">L23</text>
  </g>

  <!-- 区域标签 -->

  <text x="120" y="240.0" font-size="14" font-weight="bold" fill="#60a5fa" transform="rotate(-90, 120, 240.0)">Shallow</text>
  <text x="120" y="520.0" font-size="14" font-weight="bold" fill="#34d399" transform="rotate(-90, 120, 520.0)">Middle</text>
  <text x="120" y="800.0" font-size="14" font-weight="bold" fill="#f472b6" transform="rotate(-90, 120, 800.0)">Deep</text>

  <rect x="1365" y="105" width="200" height="172" 
        fill="#0f172a" fill-opacity="0.9" rx="8" stroke="#334155" stroke-width="1"/>
  <text x="1380" y="125" font-size="14" font-weight="bold" fill="white">Capabilities</text>
  <rect x="1380" y="145" width="16" height="16" fill="#3b82f6" rx="3" filter="url(#glow3d)"/>
  <text x="1404" y="157" font-size="11" fill="#cbd5e1">数学推理</text>
  <rect x="1380" y="167" width="16" height="16" fill="#10b981" rx="3" filter="url(#glow3d)"/>
  <text x="1404" y="179" font-size="11" fill="#cbd5e1">逻辑推理</text>
  <rect x="1380" y="189" width="16" height="16" fill="#8b5cf6" rx="3" filter="url(#glow3d)"/>
  <text x="1404" y="201" font-size="11" fill="#cbd5e1">物理</text>
  <rect x="1380" y="211" width="16" height="16" fill="#f59e0b" rx="3" filter="url(#glow3d)"/>
  <text x="1404" y="223" font-size="11" fill="#cbd5e1">历史</text>
  <rect x="1380" y="233" width="16" height="16" fill="#22c55e" rx="3" filter="url(#glow3d)"/>
  <text x="1404" y="245" font-size="11" fill="#cbd5e1">地理</text>
  <rect x="1380" y="255" width="16" height="16" fill="#ec4899" rx="3" filter="url(#glow3d)"/>
  <text x="1404" y="267" font-size="11" fill="#cbd5e1">文学</text>

  <text x="800" y="1170" text-anchor="middle" font-size="11" fill="#475569">
    Each layer shows capability distribution by gradient sensitivity · Brighter = Higher sensitivity
  </text>
  <text x="800" y="1188" text-anchor="middle" font-size="10" fill="#475569">
    Generated: 2026-05-17 07:52:40
  </text>
</svg>