<?xml version="1.0" encoding="utf-8" standalone="no"?>
<!DOCTYPE svg PUBLIC "-//W3C//DTD SVG 1.1//EN"
  "http://www.w3.org/Graphics/SVG/1.1/DTD/svg11.dtd">
<svg xmlns:xlink="http://www.w3.org/1999/xlink" width="397.8pt" height="145.8pt" viewBox="0 0 397.8 145.8" xmlns="http://www.w3.org/2000/svg" version="1.1">
 <metadata>
  <rdf:RDF xmlns:dc="http://purl.org/dc/elements/1.1/" xmlns:cc="http://creativecommons.org/ns#" xmlns:rdf="http://www.w3.org/1999/02/22-rdf-syntax-ns#">
   <cc:Work>
    <dc:type rdf:resource="http://purl.org/dc/dcmitype/StillImage"/>
    <dc:date>2026-05-26T08:35:24.931833</dc:date>
    <dc:format>image/svg+xml</dc:format>
    <dc:creator>
     <cc:Agent>
      <dc:title>Matplotlib v3.10.8, https://matplotlib.org/</dc:title>
     </cc:Agent>
    </dc:creator>
   </cc:Work>
  </rdf:RDF>
 </metadata>
 <defs>
  <style type="text/css">*{stroke-linejoin: round; stroke-linecap: butt}</style>
 </defs>
 <g id="figure_1">
  <g id="patch_1">
   <path d="M 0 145.8 
L 397.8 145.8 
L 397.8 0 
L 0 0 
z
" style="fill: #ffffff"/>
  </g>
  <g id="axes_1">
   <g id="patch_2">
    <path d="M 23.13 119.1 
L 179.37 119.1 
L 179.37 26.7 
L 23.13 26.7 
z
" clip-path="url(#p8f5c9549c1)" style="fill: #e8f4fd; opacity: 0.8; stroke: #56b4e9; stroke-width: 1.5; stroke-linejoin: miter"/>
   </g>
   <g id="patch_3">
    <path d="M 218.43 119.1 
L 374.67 119.1 
L 374.67 26.7 
L 218.43 26.7 
z
" clip-path="url(#p8f5c9549c1)" style="fill: #fde8e8; opacity: 0.8; stroke: #e69f00; stroke-width: 1.5; stroke-linejoin: miter"/>
   </g>
   <g id="text_1">
    <!-- Stage 1: Layer Selection -->
    <g style="fill: #56b4e9" transform="translate(46.773438 40.56) scale(0.1 -0.1)">
     <defs>
      <path id="Helvetica-53" d="M 894 1481 
Q 916 1091 1078 847 
Q 1388 391 2169 391 
Q 2519 391 2806 491 
Q 3363 684 3363 1184 
Q 3363 1559 3128 1719 
Q 2891 1875 2384 1991 
L 1763 2131 
Q 1153 2269 900 2434 
Q 463 2722 463 3294 
Q 463 3913 891 4309 
Q 1319 4706 2103 4706 
Q 2825 4706 3329 4357 
Q 3834 4009 3834 3244 
L 3250 3244 
Q 3203 3613 3050 3809 
Q 2766 4169 2084 4169 
Q 1534 4169 1293 3937 
Q 1053 3706 1053 3400 
Q 1053 3063 1334 2906 
Q 1519 2806 2169 2656 
L 2813 2509 
Q 3278 2403 3531 2219 
Q 3969 1897 3969 1284 
Q 3969 522 3414 194 
Q 2859 -134 2125 -134 
Q 1269 -134 784 303 
Q 300 738 309 1481 
L 894 1481 
z
M 2150 4716 
L 2150 4716 
z
" transform="scale(0.015625)"/>
      <path id="Helvetica-74" d="M 525 4281 
L 1094 4281 
L 1094 3347 
L 1628 3347 
L 1628 2888 
L 1094 2888 
L 1094 703 
Q 1094 528 1213 469 
Q 1278 434 1431 434 
Q 1472 434 1519 436 
Q 1566 438 1628 444 
L 1628 0 
Q 1531 -28 1426 -40 
Q 1322 -53 1200 -53 
Q 806 -53 665 148 
Q 525 350 525 672 
L 525 2888 
L 72 2888 
L 72 3347 
L 525 3347 
L 525 4281 
z
" transform="scale(0.015625)"/>
      <path id="Helvetica-61" d="M 844 891 
Q 844 647 1022 506 
Q 1200 366 1444 366 
Q 1741 366 2019 503 
Q 2488 731 2488 1250 
L 2488 1703 
Q 2384 1638 2221 1594 
Q 2059 1550 1903 1531 
L 1563 1488 
Q 1256 1447 1103 1359 
Q 844 1213 844 891 
z
M 2206 2028 
Q 2400 2053 2466 2191 
Q 2503 2266 2503 2406 
Q 2503 2694 2298 2823 
Q 2094 2953 1713 2953 
Q 1272 2953 1088 2716 
Q 984 2584 953 2325 
L 428 2325 
Q 444 2944 830 3186 
Q 1216 3428 1725 3428 
Q 2316 3428 2684 3203 
Q 3050 2978 3050 2503 
L 3050 575 
Q 3050 488 3086 434 
Q 3122 381 3238 381 
Q 3275 381 3322 386 
Q 3369 391 3422 400 
L 3422 -16 
Q 3291 -53 3222 -62 
Q 3153 -72 3034 -72 
Q 2744 -72 2613 134 
Q 2544 244 2516 444 
Q 2344 219 2022 53 
Q 1700 -113 1313 -113 
Q 847 -113 551 170 
Q 256 453 256 878 
Q 256 1344 547 1600 
Q 838 1856 1309 1916 
L 2206 2028 
z
M 1741 3428 
L 1741 3428 
z
" transform="scale(0.015625)"/>
      <path id="Helvetica-67" d="M 1594 3406 
Q 1988 3406 2281 3213 
Q 2441 3103 2606 2894 
L 2606 3316 
L 3125 3316 
L 3125 272 
Q 3125 -366 2938 -734 
Q 2588 -1416 1616 -1416 
Q 1075 -1416 706 -1173 
Q 338 -931 294 -416 
L 866 -416 
Q 906 -641 1028 -763 
Q 1219 -950 1628 -950 
Q 2275 -950 2475 -494 
Q 2594 -225 2584 466 
Q 2416 209 2178 84 
Q 1941 -41 1550 -41 
Q 1006 -41 598 345 
Q 191 731 191 1622 
Q 191 2463 602 2934 
Q 1013 3406 1594 3406 
z
M 2606 1688 
Q 2606 2309 2350 2609 
Q 2094 2909 1697 2909 
Q 1103 2909 884 2353 
Q 769 2056 769 1575 
Q 769 1009 998 714 
Q 1228 419 1616 419 
Q 2222 419 2469 966 
Q 2606 1275 2606 1688 
z
M 1659 3428 
L 1659 3428 
z
" transform="scale(0.015625)"/>
      <path id="Helvetica-65" d="M 1806 3422 
Q 2163 3422 2497 3255 
Q 2831 3088 3006 2822 
Q 3175 2569 3231 2231 
Q 3281 2000 3281 1494 
L 828 1494 
Q 844 984 1069 676 
Q 1294 369 1766 369 
Q 2206 369 2469 659 
Q 2619 828 2681 1050 
L 3234 1050 
Q 3213 866 3089 639 
Q 2966 413 2813 269 
Q 2556 19 2178 -69 
Q 1975 -119 1719 -119 
Q 1094 -119 659 336 
Q 225 791 225 1609 
Q 225 2416 662 2919 
Q 1100 3422 1806 3422 
z
M 2703 1941 
Q 2669 2306 2544 2525 
Q 2313 2931 1772 2931 
Q 1384 2931 1121 2651 
Q 859 2372 844 1941 
L 2703 1941 
z
M 1753 3428 
L 1753 3428 
z
" transform="scale(0.015625)"/>
      <path id="Helvetica-20" transform="scale(0.015625)"/>
      <path id="Helvetica-31" d="M 613 3169 
L 613 3600 
Q 1222 3659 1462 3798 
Q 1703 3938 1822 4456 
L 2266 4456 
L 2266 0 
L 1666 0 
L 1666 3169 
L 613 3169 
z
" transform="scale(0.015625)"/>
      <path id="Helvetica-3a" d="M 709 3303 
L 1363 3303 
L 1363 2622 
L 709 2622 
L 709 3303 
z
M 709 681 
L 1363 681 
L 1363 0 
L 709 0 
L 709 681 
z
" transform="scale(0.015625)"/>
      <path id="Helvetica-4c" d="M 488 4591 
L 1109 4591 
L 1109 547 
L 3434 547 
L 3434 0 
L 488 0 
L 488 4591 
z
" transform="scale(0.015625)"/>
      <path id="Helvetica-79" d="M 2503 3347 
L 3125 3347 
Q 3006 3025 2597 1878 
Q 2291 1016 2084 472 
Q 1597 -809 1397 -1090 
Q 1197 -1372 709 -1372 
Q 591 -1372 527 -1362 
Q 463 -1353 369 -1328 
L 369 -816 
Q 516 -856 581 -865 
Q 647 -875 697 -875 
Q 853 -875 926 -823 
Q 1000 -772 1050 -697 
Q 1066 -672 1162 -440 
Q 1259 -209 1303 -97 
L 66 3347 
L 703 3347 
L 1600 622 
L 2503 3347 
z
M 1597 3428 
L 1597 3428 
z
" transform="scale(0.015625)"/>
      <path id="Helvetica-72" d="M 428 3347 
L 963 3347 
L 963 2769 
Q 1028 2938 1284 3180 
Q 1541 3422 1875 3422 
Q 1891 3422 1928 3419 
Q 1966 3416 2056 3406 
L 2056 2813 
Q 2006 2822 1964 2825 
Q 1922 2828 1872 2828 
Q 1447 2828 1219 2554 
Q 991 2281 991 1925 
L 991 0 
L 428 0 
L 428 3347 
z
" transform="scale(0.015625)"/>
      <path id="Helvetica-6c" d="M 428 4591 
L 991 4591 
L 991 0 
L 428 0 
L 428 4591 
z
" transform="scale(0.015625)"/>
      <path id="Helvetica-63" d="M 1703 3444 
Q 2269 3444 2623 3169 
Q 2978 2894 3050 2222 
L 2503 2222 
Q 2453 2531 2275 2736 
Q 2097 2941 1703 2941 
Q 1166 2941 934 2416 
Q 784 2075 784 1575 
Q 784 1072 996 728 
Q 1209 384 1666 384 
Q 2016 384 2220 598 
Q 2425 813 2503 1184 
L 3050 1184 
Q 2956 519 2581 211 
Q 2206 -97 1622 -97 
Q 966 -97 575 383 
Q 184 863 184 1581 
Q 184 2463 612 2953 
Q 1041 3444 1703 3444 
z
M 1616 3428 
L 1616 3428 
z
" transform="scale(0.015625)"/>
      <path id="Helvetica-69" d="M 413 3331 
L 984 3331 
L 984 0 
L 413 0 
L 413 3331 
z
M 413 4591 
L 984 4591 
L 984 3953 
L 413 3953 
L 413 4591 
z
" transform="scale(0.015625)"/>
      <path id="Helvetica-6f" d="M 1741 363 
Q 2300 363 2508 786 
Q 2716 1209 2716 1728 
Q 2716 2197 2566 2491 
Q 2328 2953 1747 2953 
Q 1231 2953 997 2559 
Q 763 2166 763 1609 
Q 763 1075 997 719 
Q 1231 363 1741 363 
z
M 1763 3444 
Q 2409 3444 2856 3012 
Q 3303 2581 3303 1744 
Q 3303 934 2909 406 
Q 2516 -122 1688 -122 
Q 997 -122 590 345 
Q 184 813 184 1600 
Q 184 2444 612 2944 
Q 1041 3444 1763 3444 
z
M 1744 3428 
L 1744 3428 
z
" transform="scale(0.015625)"/>
      <path id="Helvetica-6e" d="M 413 3347 
L 947 3347 
L 947 2872 
Q 1184 3166 1450 3294 
Q 1716 3422 2041 3422 
Q 2753 3422 3003 2925 
Q 3141 2653 3141 2147 
L 3141 0 
L 2569 0 
L 2569 2109 
Q 2569 2416 2478 2603 
Q 2328 2916 1934 2916 
Q 1734 2916 1606 2875 
Q 1375 2806 1200 2600 
Q 1059 2434 1017 2257 
Q 975 2081 975 1753 
L 975 0 
L 413 0 
L 413 3347 
z
M 1734 3428 
L 1734 3428 
z
" transform="scale(0.015625)"/>
     </defs>
     <use xlink:href="#Helvetica-53"/>
     <use xlink:href="#Helvetica-74" transform="translate(66.699219 0)"/>
     <use xlink:href="#Helvetica-61" transform="translate(94.482422 0)"/>
     <use xlink:href="#Helvetica-67" transform="translate(150.097656 0)"/>
     <use xlink:href="#Helvetica-65" transform="translate(205.712891 0)"/>
     <use xlink:href="#Helvetica-20" transform="translate(261.328125 0)"/>
     <use xlink:href="#Helvetica-31" transform="translate(289.111328 0)"/>
     <use xlink:href="#Helvetica-3a" transform="translate(344.726562 0)"/>
     <use xlink:href="#Helvetica-20" transform="translate(372.509766 0)"/>
     <use xlink:href="#Helvetica-4c" transform="translate(400.292969 0)"/>
     <use xlink:href="#Helvetica-61" transform="translate(455.908203 0)"/>
     <use xlink:href="#Helvetica-79" transform="translate(511.523438 0)"/>
     <use xlink:href="#Helvetica-65" transform="translate(561.523438 0)"/>
     <use xlink:href="#Helvetica-72" transform="translate(617.138672 0)"/>
     <use xlink:href="#Helvetica-20" transform="translate(650.439453 0)"/>
     <use xlink:href="#Helvetica-53" transform="translate(678.222656 0)"/>
     <use xlink:href="#Helvetica-65" transform="translate(744.921875 0)"/>
     <use xlink:href="#Helvetica-6c" transform="translate(800.537109 0)"/>
     <use xlink:href="#Helvetica-65" transform="translate(822.753906 0)"/>
     <use xlink:href="#Helvetica-63" transform="translate(878.369141 0)"/>
     <use xlink:href="#Helvetica-74" transform="translate(928.369141 0)"/>
     <use xlink:href="#Helvetica-69" transform="translate(956.152344 0)"/>
     <use xlink:href="#Helvetica-6f" transform="translate(978.369141 0)"/>
     <use xlink:href="#Helvetica-6e" transform="translate(1033.984375 0)"/>
    </g>
   </g>
   <g id="text_2">
    <!-- • Activation scoring -->
    <g style="fill: #333333" transform="translate(67.391875 55.432) scale(0.08 -0.08)">
     <defs>
      <path id="Helvetica-2022" d="M 1847 2294 
Q 1847 1994 1651 1797 
Q 1456 1600 1156 1600 
Q 856 1600 661 1797 
Q 466 1994 466 2294 
Q 466 2594 661 2787 
Q 856 2981 1156 2981 
Q 1456 2981 1651 2787 
Q 1847 2594 1847 2294 
z
" transform="scale(0.015625)"/>
      <path id="Helvetica-41" d="M 2844 1881 
L 2147 3909 
L 1406 1881 
L 2844 1881 
z
M 1822 4591 
L 2525 4591 
L 4191 0 
L 3509 0 
L 3044 1375 
L 1228 1375 
L 731 0 
L 94 0 
L 1822 4591 
z
" transform="scale(0.015625)"/>
      <path id="Helvetica-76" d="M 688 3347 
L 1581 622 
L 2516 3347 
L 3131 3347 
L 1869 0 
L 1269 0 
L 34 3347 
L 688 3347 
z
" transform="scale(0.015625)"/>
      <path id="Helvetica-73" d="M 747 1050 
Q 772 769 888 619 
Q 1100 347 1625 347 
Q 1938 347 2175 483 
Q 2413 619 2413 903 
Q 2413 1119 2222 1231 
Q 2100 1300 1741 1391 
L 1294 1503 
Q 866 1609 663 1741 
Q 300 1969 300 2372 
Q 300 2847 642 3140 
Q 984 3434 1563 3434 
Q 2319 3434 2653 2991 
Q 2863 2709 2856 2384 
L 2325 2384 
Q 2309 2575 2191 2731 
Q 1997 2953 1519 2953 
Q 1200 2953 1036 2831 
Q 872 2709 872 2509 
Q 872 2291 1088 2159 
Q 1213 2081 1456 2022 
L 1828 1931 
Q 2434 1784 2641 1647 
Q 2969 1431 2969 969 
Q 2969 522 2630 197 
Q 2291 -128 1597 -128 
Q 850 -128 539 211 
Q 228 550 206 1050 
L 747 1050 
z
M 1578 3428 
L 1578 3428 
z
" transform="scale(0.015625)"/>
     </defs>
     <use xlink:href="#Helvetica-2022"/>
     <use xlink:href="#Helvetica-20" transform="translate(35.009766 0)"/>
     <use xlink:href="#Helvetica-41" transform="translate(62.792969 0)"/>
     <use xlink:href="#Helvetica-63" transform="translate(129.492188 0)"/>
     <use xlink:href="#Helvetica-74" transform="translate(179.492188 0)"/>
     <use xlink:href="#Helvetica-69" transform="translate(207.275391 0)"/>
     <use xlink:href="#Helvetica-76" transform="translate(229.492188 0)"/>
     <use xlink:href="#Helvetica-61" transform="translate(279.492188 0)"/>
     <use xlink:href="#Helvetica-74" transform="translate(335.107422 0)"/>
     <use xlink:href="#Helvetica-69" transform="translate(362.890625 0)"/>
     <use xlink:href="#Helvetica-6f" transform="translate(385.107422 0)"/>
     <use xlink:href="#Helvetica-6e" transform="translate(440.722656 0)"/>
     <use xlink:href="#Helvetica-20" transform="translate(496.337891 0)"/>
     <use xlink:href="#Helvetica-73" transform="translate(524.121094 0)"/>
     <use xlink:href="#Helvetica-63" transform="translate(574.121094 0)"/>
     <use xlink:href="#Helvetica-6f" transform="translate(624.121094 0)"/>
     <use xlink:href="#Helvetica-72" transform="translate(679.736328 0)"/>
     <use xlink:href="#Helvetica-69" transform="translate(713.037109 0)"/>
     <use xlink:href="#Helvetica-6e" transform="translate(735.253906 0)"/>
     <use xlink:href="#Helvetica-67" transform="translate(790.869141 0)"/>
    </g>
    <!-- • Ablation analysis -->
    <g style="fill: #333333" transform="translate(68.721875 64.111) scale(0.08 -0.08)">
     <defs>
      <path id="Helvetica-62" d="M 369 4606 
L 916 4606 
L 916 2941 
Q 1100 3181 1356 3307 
Q 1613 3434 1913 3434 
Q 2538 3434 2927 3004 
Q 3316 2575 3316 1738 
Q 3316 944 2931 419 
Q 2547 -106 1866 -106 
Q 1484 -106 1222 78 
Q 1066 188 888 428 
L 888 0 
L 369 0 
L 369 4606 
z
M 1831 391 
Q 2288 391 2514 753 
Q 2741 1116 2741 1709 
Q 2741 2238 2514 2584 
Q 2288 2931 1847 2931 
Q 1463 2931 1173 2647 
Q 884 2363 884 1709 
Q 884 1238 1003 944 
Q 1225 391 1831 391 
z
" transform="scale(0.015625)"/>
     </defs>
     <use xlink:href="#Helvetica-2022"/>
     <use xlink:href="#Helvetica-20" transform="translate(35.009766 0)"/>
     <use xlink:href="#Helvetica-41" transform="translate(62.792969 0)"/>
     <use xlink:href="#Helvetica-62" transform="translate(129.492188 0)"/>
     <use xlink:href="#Helvetica-6c" transform="translate(185.107422 0)"/>
     <use xlink:href="#Helvetica-61" transform="translate(207.324219 0)"/>
     <use xlink:href="#Helvetica-74" transform="translate(262.939453 0)"/>
     <use xlink:href="#Helvetica-69" transform="translate(290.722656 0)"/>
     <use xlink:href="#Helvetica-6f" transform="translate(312.939453 0)"/>
     <use xlink:href="#Helvetica-6e" transform="translate(368.554688 0)"/>
     <use xlink:href="#Helvetica-20" transform="translate(424.169922 0)"/>
     <use xlink:href="#Helvetica-61" transform="translate(451.953125 0)"/>
     <use xlink:href="#Helvetica-6e" transform="translate(507.568359 0)"/>
     <use xlink:href="#Helvetica-61" transform="translate(563.183594 0)"/>
     <use xlink:href="#Helvetica-6c" transform="translate(618.798828 0)"/>
     <use xlink:href="#Helvetica-79" transform="translate(641.015625 0)"/>
     <use xlink:href="#Helvetica-73" transform="translate(691.015625 0)"/>
     <use xlink:href="#Helvetica-69" transform="translate(741.015625 0)"/>
     <use xlink:href="#Helvetica-73" transform="translate(763.232422 0)"/>
    </g>
    <!-- • Composite importance -->
    <g style="fill: #333333" transform="translate(58.723125 72.9) scale(0.08 -0.08)">
     <defs>
      <path id="Helvetica-43" d="M 2422 4716 
Q 3294 4716 3775 4256 
Q 4256 3797 4309 3213 
L 3703 3213 
Q 3600 3656 3292 3915 
Q 2984 4175 2428 4175 
Q 1750 4175 1333 3698 
Q 916 3222 916 2238 
Q 916 1431 1292 929 
Q 1669 428 2416 428 
Q 3103 428 3463 956 
Q 3653 1234 3747 1688 
L 4353 1688 
Q 4272 963 3816 472 
Q 3269 -119 2341 -119 
Q 1541 -119 997 366 
Q 281 1006 281 2344 
Q 281 3359 819 4009 
Q 1400 4716 2422 4716 
z
M 2297 4716 
L 2297 4716 
z
" transform="scale(0.015625)"/>
      <path id="Helvetica-6d" d="M 413 3347 
L 969 3347 
L 969 2872 
Q 1169 3119 1331 3231 
Q 1609 3422 1963 3422 
Q 2363 3422 2606 3225 
Q 2744 3113 2856 2894 
Q 3044 3163 3297 3292 
Q 3550 3422 3866 3422 
Q 4541 3422 4784 2934 
Q 4916 2672 4916 2228 
L 4916 0 
L 4331 0 
L 4331 2325 
Q 4331 2659 4164 2784 
Q 3997 2909 3756 2909 
Q 3425 2909 3186 2687 
Q 2947 2466 2947 1947 
L 2947 0 
L 2375 0 
L 2375 2184 
Q 2375 2525 2294 2681 
Q 2166 2916 1816 2916 
Q 1497 2916 1236 2669 
Q 975 2422 975 1775 
L 975 0 
L 413 0 
L 413 3347 
z
" transform="scale(0.015625)"/>
      <path id="Helvetica-70" d="M 1825 378 
Q 2219 378 2480 708 
Q 2741 1038 2741 1694 
Q 2741 2094 2625 2381 
Q 2406 2934 1825 2934 
Q 1241 2934 1025 2350 
Q 909 2038 909 1556 
Q 909 1169 1025 897 
Q 1244 378 1825 378 
z
M 369 3331 
L 916 3331 
L 916 2888 
Q 1084 3116 1284 3241 
Q 1569 3428 1953 3428 
Q 2522 3428 2919 2992 
Q 3316 2556 3316 1747 
Q 3316 653 2744 184 
Q 2381 -113 1900 -113 
Q 1522 -113 1266 53 
Q 1116 147 931 375 
L 931 -1334 
L 369 -1334 
L 369 3331 
z
" transform="scale(0.015625)"/>
     </defs>
     <use xlink:href="#Helvetica-2022"/>
     <use xlink:href="#Helvetica-20" transform="translate(35.009766 0)"/>
     <use xlink:href="#Helvetica-43" transform="translate(62.792969 0)"/>
     <use xlink:href="#Helvetica-6f" transform="translate(135.009766 0)"/>
     <use xlink:href="#Helvetica-6d" transform="translate(190.625 0)"/>
     <use xlink:href="#Helvetica-70" transform="translate(273.925781 0)"/>
     <use xlink:href="#Helvetica-6f" transform="translate(329.541016 0)"/>
     <use xlink:href="#Helvetica-73" transform="translate(385.15625 0)"/>
     <use xlink:href="#Helvetica-69" transform="translate(435.15625 0)"/>
     <use xlink:href="#Helvetica-74" transform="translate(457.373047 0)"/>
     <use xlink:href="#Helvetica-65" transform="translate(485.15625 0)"/>
     <use xlink:href="#Helvetica-20" transform="translate(540.771484 0)"/>
     <use xlink:href="#Helvetica-69" transform="translate(568.554688 0)"/>
     <use xlink:href="#Helvetica-6d" transform="translate(590.771484 0)"/>
     <use xlink:href="#Helvetica-70" transform="translate(674.072266 0)"/>
     <use xlink:href="#Helvetica-6f" transform="translate(729.6875 0)"/>
     <use xlink:href="#Helvetica-72" transform="translate(785.302734 0)"/>
     <use xlink:href="#Helvetica-74" transform="translate(818.603516 0)"/>
     <use xlink:href="#Helvetica-61" transform="translate(846.386719 0)"/>
     <use xlink:href="#Helvetica-6e" transform="translate(902.001953 0)"/>
     <use xlink:href="#Helvetica-63" transform="translate(957.617188 0)"/>
     <use xlink:href="#Helvetica-65" transform="translate(1007.617188 0)"/>
    </g>
   </g>
   <g id="text_3">
    <!-- $S_{comp}(l) = \sum w_c \cdot S(l,c)$ -->
    <g transform="translate(53.82 105.24) scale(0.09 -0.09)">
     <defs>
      <path id="DejaVuSans-Oblique-53" d="M 3859 4513 
L 3738 3897 
Q 3422 4066 3111 4152 
Q 2800 4238 2509 4238 
Q 1944 4238 1609 3991 
Q 1275 3744 1275 3334 
Q 1275 3109 1398 2989 
Q 1522 2869 2034 2731 
L 2413 2638 
Q 3053 2472 3303 2217 
Q 3553 1963 3553 1503 
Q 3553 797 2998 353 
Q 2444 -91 1538 -91 
Q 1166 -91 791 -17 
Q 416 56 38 206 
L 166 856 
Q 513 641 861 531 
Q 1209 422 1556 422 
Q 2147 422 2503 684 
Q 2859 947 2859 1369 
Q 2859 1650 2717 1795 
Q 2575 1941 2106 2059 
L 1728 2156 
Q 1081 2325 845 2545 
Q 609 2766 609 3163 
Q 609 3859 1145 4304 
Q 1681 4750 2541 4750 
Q 2875 4750 3203 4690 
Q 3531 4631 3859 4513 
z
" transform="scale(0.015625)"/>
      <path id="DejaVuSans-Oblique-63" d="M 3431 3366 
L 3316 2797 
Q 3109 2947 2876 3022 
Q 2644 3097 2394 3097 
Q 2119 3097 1870 3000 
Q 1622 2903 1453 2725 
Q 1184 2453 1037 2087 
Q 891 1722 891 1331 
Q 891 859 1127 628 
Q 1363 397 1844 397 
Q 2081 397 2348 469 
Q 2616 541 2906 684 
L 2797 116 
Q 2547 13 2283 -39 
Q 2019 -91 1741 -91 
Q 1044 -91 669 257 
Q 294 606 294 1253 
Q 294 1797 489 2255 
Q 684 2713 1069 3078 
Q 1331 3328 1684 3456 
Q 2038 3584 2456 3584 
Q 2700 3584 2940 3529 
Q 3181 3475 3431 3366 
z
" transform="scale(0.015625)"/>
      <path id="DejaVuSans-Oblique-6f" d="M 1625 -91 
Q 1009 -91 651 289 
Q 294 669 294 1325 
Q 294 1706 417 2101 
Q 541 2497 738 2766 
Q 1047 3184 1428 3384 
Q 1809 3584 2291 3584 
Q 2888 3584 3255 3212 
Q 3622 2841 3622 2241 
Q 3622 1825 3500 1412 
Q 3378 1000 3181 728 
Q 2875 309 2494 109 
Q 2113 -91 1625 -91 
z
M 891 1344 
Q 891 869 1089 633 
Q 1288 397 1691 397 
Q 2269 397 2648 901 
Q 3028 1406 3028 2181 
Q 3028 2634 2825 2865 
Q 2622 3097 2228 3097 
Q 1903 3097 1650 2945 
Q 1397 2794 1197 2484 
Q 1050 2253 970 1956 
Q 891 1659 891 1344 
z
" transform="scale(0.015625)"/>
      <path id="DejaVuSans-Oblique-6d" d="M 5747 2113 
L 5338 0 
L 4763 0 
L 5166 2094 
Q 5191 2228 5203 2325 
Q 5216 2422 5216 2491 
Q 5216 2772 5059 2928 
Q 4903 3084 4622 3084 
Q 4203 3084 3875 2770 
Q 3547 2456 3450 1953 
L 3066 0 
L 2491 0 
L 2900 2094 
Q 2925 2209 2937 2307 
Q 2950 2406 2950 2484 
Q 2950 2769 2794 2926 
Q 2638 3084 2363 3084 
Q 1938 3084 1609 2770 
Q 1281 2456 1184 1953 
L 800 0 
L 225 0 
L 909 3500 
L 1484 3500 
L 1375 2956 
Q 1609 3263 1923 3423 
Q 2238 3584 2597 3584 
Q 2978 3584 3223 3384 
Q 3469 3184 3519 2828 
Q 3781 3197 4126 3390 
Q 4472 3584 4856 3584 
Q 5306 3584 5551 3325 
Q 5797 3066 5797 2591 
Q 5797 2488 5784 2364 
Q 5772 2241 5747 2113 
z
" transform="scale(0.015625)"/>
      <path id="DejaVuSans-Oblique-70" d="M 3175 2156 
Q 3175 2616 2975 2859 
Q 2775 3103 2400 3103 
Q 2144 3103 1911 2972 
Q 1678 2841 1497 2591 
Q 1319 2344 1212 1994 
Q 1106 1644 1106 1300 
Q 1106 863 1306 627 
Q 1506 391 1875 391 
Q 2147 391 2380 519 
Q 2613 647 2778 891 
Q 2956 1147 3065 1494 
Q 3175 1841 3175 2156 
z
M 1394 2969 
Q 1625 3272 1939 3428 
Q 2253 3584 2638 3584 
Q 3175 3584 3472 3232 
Q 3769 2881 3769 2247 
Q 3769 1728 3584 1258 
Q 3400 788 3053 416 
Q 2822 169 2531 39 
Q 2241 -91 1919 -91 
Q 1547 -91 1294 64 
Q 1041 219 916 525 
L 556 -1331 
L -19 -1331 
L 922 3500 
L 1497 3500 
L 1394 2969 
z
" transform="scale(0.015625)"/>
      <path id="DejaVuSans-28" d="M 1984 4856 
Q 1566 4138 1362 3434 
Q 1159 2731 1159 2009 
Q 1159 1288 1364 580 
Q 1569 -128 1984 -844 
L 1484 -844 
Q 1016 -109 783 600 
Q 550 1309 550 2009 
Q 550 2706 781 3412 
Q 1013 4119 1484 4856 
L 1984 4856 
z
" transform="scale(0.015625)"/>
      <path id="DejaVuSans-Oblique-6c" d="M 1172 4863 
L 1747 4863 
L 800 0 
L 225 0 
L 1172 4863 
z
" transform="scale(0.015625)"/>
      <path id="DejaVuSans-29" d="M 513 4856 
L 1013 4856 
Q 1481 4119 1714 3412 
Q 1947 2706 1947 2009 
Q 1947 1309 1714 600 
Q 1481 -109 1013 -844 
L 513 -844 
Q 928 -128 1133 580 
Q 1338 1288 1338 2009 
Q 1338 2731 1133 3434 
Q 928 4138 513 4856 
z
" transform="scale(0.015625)"/>
      <path id="DejaVuSans-3d" d="M 678 2906 
L 4684 2906 
L 4684 2381 
L 678 2381 
L 678 2906 
z
M 678 1631 
L 4684 1631 
L 4684 1100 
L 678 1100 
L 678 1631 
z
" transform="scale(0.015625)"/>
      <path id="DejaVuSansDisplay-2211" d="M 244 6509 
L 5803 6509 
L 5803 5656 
L 1566 5656 
L 4534 2488 
L 1469 -888 
L 5919 -888 
L 5919 -1738 
L 109 -1738 
L 109 -1078 
L 3316 2463 
L 244 5728 
L 244 6509 
z
" transform="scale(0.015625)"/>
      <path id="DejaVuSans-Oblique-77" d="M 544 3500 
L 1113 3500 
L 1259 684 
L 2566 3500 
L 3231 3500 
L 3425 684 
L 4666 3500 
L 5241 3500 
L 3641 0 
L 2969 0 
L 2797 2900 
L 1459 0 
L 781 0 
L 544 3500 
z
" transform="scale(0.015625)"/>
      <path id="DejaVuSans-22c5" d="M 684 2619 
L 1344 2619 
L 1344 1825 
L 684 1825 
L 684 2619 
z
" transform="scale(0.015625)"/>
      <path id="DejaVuSans-2c" d="M 750 794 
L 1409 794 
L 1409 256 
L 897 -744 
L 494 -744 
L 750 256 
L 750 794 
z
" transform="scale(0.015625)"/>
     </defs>
     <use xlink:href="#DejaVuSans-Oblique-53" transform="translate(0 0.296875)"/>
     <use xlink:href="#DejaVuSans-Oblique-63" transform="translate(63.476562 -16.109375) scale(0.7)"/>
     <use xlink:href="#DejaVuSans-Oblique-6f" transform="translate(101.962891 -16.109375) scale(0.7)"/>
     <use xlink:href="#DejaVuSans-Oblique-6d" transform="translate(144.790039 -16.109375) scale(0.7)"/>
     <use xlink:href="#DejaVuSans-Oblique-70" transform="translate(212.978516 -16.109375) scale(0.7)"/>
     <use xlink:href="#DejaVuSans-28" transform="translate(260.146484 0.296875)"/>
     <use xlink:href="#DejaVuSans-Oblique-6c" transform="translate(299.160156 0.296875)"/>
     <use xlink:href="#DejaVuSans-29" transform="translate(326.943359 0.296875)"/>
     <use xlink:href="#DejaVuSans-3d" transform="translate(385.439453 0.296875)"/>
     <use xlink:href="#DejaVuSansDisplay-2211" transform="translate(488.710938 0.296875)"/>
     <use xlink:href="#DejaVuSans-Oblique-77" transform="translate(583.974609 0.296875)"/>
     <use xlink:href="#DejaVuSans-Oblique-63" transform="translate(665.761719 -16.109375) scale(0.7)"/>
     <use xlink:href="#DejaVuSans-22c5" transform="translate(726.464844 0.296875)"/>
     <use xlink:href="#DejaVuSans-Oblique-53" transform="translate(777.734375 0.296875)"/>
     <use xlink:href="#DejaVuSans-28" transform="translate(841.210938 0.296875)"/>
     <use xlink:href="#DejaVuSans-Oblique-6c" transform="translate(880.224609 0.296875)"/>
     <use xlink:href="#DejaVuSans-2c" transform="translate(908.007812 0.296875)"/>
     <use xlink:href="#DejaVuSans-Oblique-63" transform="translate(959.277344 0.296875)"/>
     <use xlink:href="#DejaVuSans-29" transform="translate(1014.257812 0.296875)"/>
    </g>
   </g>
   <g id="patch_4">
    <path d="M 181.36782 72.9 
Q 189.134456 72.9 195.224041 72.9 
" style="fill: none; stroke: #333333; stroke-width: 1.5; stroke-linecap: round"/>
    <path d="M 191.624041 71.1 
L 195.224041 72.9 
L 191.624041 74.7 
" style="fill: none; stroke: #333333; stroke-width: 1.5; stroke-linecap: round"/>
   </g>
   <g id="text_4">
    <!-- Top-K -->
    <g style="fill: #666666" transform="translate(179.604609 59.04) scale(0.07 -0.07)">
     <defs>
      <path id="Helvetica-54" d="M 3828 4591 
L 3828 4044 
L 2281 4044 
L 2281 0 
L 1650 0 
L 1650 4044 
L 103 4044 
L 103 4591 
L 3828 4591 
z
" transform="scale(0.015625)"/>
      <path id="Helvetica-2d" d="M 266 2072 
L 1834 2072 
L 1834 1494 
L 266 1494 
L 266 2072 
z
" transform="scale(0.015625)"/>
      <path id="Helvetica-4b" d="M 488 4591 
L 1094 4591 
L 1094 2353 
L 3331 4591 
L 4191 4591 
L 2281 2741 
L 4244 0 
L 3434 0 
L 1828 2303 
L 1094 1600 
L 1094 0 
L 488 0 
L 488 4591 
z
" transform="scale(0.015625)"/>
     </defs>
     <use xlink:href="#Helvetica-54"/>
     <use xlink:href="#Helvetica-6f" transform="translate(61.083984 0)"/>
     <use xlink:href="#Helvetica-70" transform="translate(116.699219 0)"/>
     <use xlink:href="#Helvetica-2d" transform="translate(172.314453 0)"/>
     <use xlink:href="#Helvetica-4b" transform="translate(205.615234 0)"/>
    </g>
   </g>
   <g id="text_5">
    <!-- Stage 2: Parameter Sparsification -->
    <g style="fill: #e69f00" transform="translate(221.79375 40.56) scale(0.1 -0.1)">
     <defs>
      <path id="Helvetica-32" d="M 200 0 
Q 231 578 439 1006 
Q 647 1434 1250 1784 
L 1850 2131 
Q 2253 2366 2416 2531 
Q 2672 2791 2672 3125 
Q 2672 3516 2437 3745 
Q 2203 3975 1813 3975 
Q 1234 3975 1013 3538 
Q 894 3303 881 2888 
L 309 2888 
Q 319 3472 525 3841 
Q 891 4491 1816 4491 
Q 2584 4491 2939 4075 
Q 3294 3659 3294 3150 
Q 3294 2613 2916 2231 
Q 2697 2009 2131 1694 
L 1703 1456 
Q 1397 1288 1222 1134 
Q 909 863 828 531 
L 3272 531 
L 3272 0 
L 200 0 
z
" transform="scale(0.015625)"/>
      <path id="Helvetica-50" d="M 547 4591 
L 2613 4591 
Q 3225 4591 3600 4245 
Q 3975 3900 3975 3275 
Q 3975 2738 3640 2339 
Q 3306 1941 2613 1941 
L 1169 1941 
L 1169 0 
L 547 0 
L 547 4591 
z
M 3347 3272 
Q 3347 3778 2972 3959 
Q 2766 4056 2406 4056 
L 1169 4056 
L 1169 2466 
L 2406 2466 
Q 2825 2466 3086 2644 
Q 3347 2822 3347 3272 
z
" transform="scale(0.015625)"/>
      <path id="Helvetica-66" d="M 553 3856 
Q 566 4206 675 4369 
Q 872 4656 1434 4656 
Q 1488 4656 1544 4653 
Q 1600 4650 1672 4644 
L 1672 4131 
Q 1584 4138 1545 4139 
Q 1506 4141 1472 4141 
Q 1216 4141 1166 4008 
Q 1116 3875 1116 3331 
L 1672 3331 
L 1672 2888 
L 1109 2888 
L 1109 0 
L 553 0 
L 553 2888 
L 88 2888 
L 88 3331 
L 553 3331 
L 553 3856 
z
" transform="scale(0.015625)"/>
     </defs>
     <use xlink:href="#Helvetica-53"/>
     <use xlink:href="#Helvetica-74" transform="translate(66.699219 0)"/>
     <use xlink:href="#Helvetica-61" transform="translate(94.482422 0)"/>
     <use xlink:href="#Helvetica-67" transform="translate(150.097656 0)"/>
     <use xlink:href="#Helvetica-65" transform="translate(205.712891 0)"/>
     <use xlink:href="#Helvetica-20" transform="translate(261.328125 0)"/>
     <use xlink:href="#Helvetica-32" transform="translate(289.111328 0)"/>
     <use xlink:href="#Helvetica-3a" transform="translate(344.726562 0)"/>
     <use xlink:href="#Helvetica-20" transform="translate(372.509766 0)"/>
     <use xlink:href="#Helvetica-50" transform="translate(400.292969 0)"/>
     <use xlink:href="#Helvetica-61" transform="translate(466.992188 0)"/>
     <use xlink:href="#Helvetica-72" transform="translate(522.607422 0)"/>
     <use xlink:href="#Helvetica-61" transform="translate(555.908203 0)"/>
     <use xlink:href="#Helvetica-6d" transform="translate(611.523438 0)"/>
     <use xlink:href="#Helvetica-65" transform="translate(694.824219 0)"/>
     <use xlink:href="#Helvetica-74" transform="translate(750.439453 0)"/>
     <use xlink:href="#Helvetica-65" transform="translate(778.222656 0)"/>
     <use xlink:href="#Helvetica-72" transform="translate(833.837891 0)"/>
     <use xlink:href="#Helvetica-20" transform="translate(867.138672 0)"/>
     <use xlink:href="#Helvetica-53" transform="translate(894.921875 0)"/>
     <use xlink:href="#Helvetica-70" transform="translate(961.621094 0)"/>
     <use xlink:href="#Helvetica-61" transform="translate(1017.236328 0)"/>
     <use xlink:href="#Helvetica-72" transform="translate(1072.851562 0)"/>
     <use xlink:href="#Helvetica-73" transform="translate(1106.152344 0)"/>
     <use xlink:href="#Helvetica-69" transform="translate(1156.152344 0)"/>
     <use xlink:href="#Helvetica-66" transform="translate(1178.369141 0)"/>
     <use xlink:href="#Helvetica-69" transform="translate(1206.152344 0)"/>
     <use xlink:href="#Helvetica-63" transform="translate(1228.369141 0)"/>
     <use xlink:href="#Helvetica-61" transform="translate(1278.369141 0)"/>
     <use xlink:href="#Helvetica-74" transform="translate(1333.984375 0)"/>
     <use xlink:href="#Helvetica-69" transform="translate(1361.767578 0)"/>
     <use xlink:href="#Helvetica-6f" transform="translate(1383.984375 0)"/>
     <use xlink:href="#Helvetica-6e" transform="translate(1439.599609 0)"/>
    </g>
   </g>
   <g id="text_6">
    <!-- • Wanda-style pruning -->
    <g style="fill: #333333" transform="translate(257.355 55.542) scale(0.08 -0.08)">
     <defs>
      <path id="Helvetica-57" d="M 791 4591 
L 1656 856 
L 2694 4591 
L 3369 4591 
L 4406 856 
L 5272 4591 
L 5953 4591 
L 4747 0 
L 4094 0 
L 3034 3806 
L 1969 0 
L 1316 0 
L 116 4591 
L 791 4591 
z
" transform="scale(0.015625)"/>
      <path id="Helvetica-64" d="M 769 1634 
Q 769 1097 997 734 
Q 1225 372 1728 372 
Q 2119 372 2370 708 
Q 2622 1044 2622 1672 
Q 2622 2306 2362 2611 
Q 2103 2916 1722 2916 
Q 1297 2916 1033 2591 
Q 769 2266 769 1634 
z
M 1616 3406 
Q 2000 3406 2259 3244 
Q 2409 3150 2600 2916 
L 2600 4606 
L 3141 4606 
L 3141 0 
L 2634 0 
L 2634 466 
Q 2438 156 2169 18 
Q 1900 -119 1553 -119 
Q 994 -119 584 351 
Q 175 822 175 1603 
Q 175 2334 548 2870 
Q 922 3406 1616 3406 
z
" transform="scale(0.015625)"/>
      <path id="Helvetica-75" d="M 975 3347 
L 975 1125 
Q 975 869 1056 706 
Q 1206 406 1616 406 
Q 2203 406 2416 931 
Q 2531 1213 2531 1703 
L 2531 3347 
L 3094 3347 
L 3094 0 
L 2563 0 
L 2569 494 
Q 2459 303 2297 172 
Q 1975 -91 1516 -91 
Q 800 -91 541 388 
Q 400 644 400 1072 
L 400 3347 
L 975 3347 
z
M 1747 3428 
L 1747 3428 
z
" transform="scale(0.015625)"/>
     </defs>
     <use xlink:href="#Helvetica-2022"/>
     <use xlink:href="#Helvetica-20" transform="translate(35.009766 0)"/>
     <use xlink:href="#Helvetica-57" transform="translate(62.792969 0)"/>
     <use xlink:href="#Helvetica-61" transform="translate(157.177734 0)"/>
     <use xlink:href="#Helvetica-6e" transform="translate(212.792969 0)"/>
     <use xlink:href="#Helvetica-64" transform="translate(268.408203 0)"/>
     <use xlink:href="#Helvetica-61" transform="translate(324.023438 0)"/>
     <use xlink:href="#Helvetica-2d" transform="translate(379.638672 0)"/>
     <use xlink:href="#Helvetica-73" transform="translate(412.939453 0)"/>
     <use xlink:href="#Helvetica-74" transform="translate(462.939453 0)"/>
     <use xlink:href="#Helvetica-79" transform="translate(490.722656 0)"/>
     <use xlink:href="#Helvetica-6c" transform="translate(540.722656 0)"/>
     <use xlink:href="#Helvetica-65" transform="translate(562.939453 0)"/>
     <use xlink:href="#Helvetica-20" transform="translate(618.554688 0)"/>
     <use xlink:href="#Helvetica-70" transform="translate(646.337891 0)"/>
     <use xlink:href="#Helvetica-72" transform="translate(701.953125 0)"/>
     <use xlink:href="#Helvetica-75" transform="translate(735.253906 0)"/>
     <use xlink:href="#Helvetica-6e" transform="translate(790.869141 0)"/>
     <use xlink:href="#Helvetica-69" transform="translate(846.484375 0)"/>
     <use xlink:href="#Helvetica-6e" transform="translate(868.701172 0)"/>
     <use xlink:href="#Helvetica-67" transform="translate(924.316406 0)"/>
    </g>
    <!-- • Weight × Activation -->
    <g style="fill: #333333" transform="translate(259.689375 64.221) scale(0.08 -0.08)">
     <defs>
      <path id="Helvetica-68" d="M 413 4606 
L 975 4606 
L 975 2894 
Q 1175 3147 1334 3250 
Q 1606 3428 2013 3428 
Q 2741 3428 3000 2919 
Q 3141 2641 3141 2147 
L 3141 0 
L 2563 0 
L 2563 2109 
Q 2563 2478 2469 2650 
Q 2316 2925 1894 2925 
Q 1544 2925 1259 2684 
Q 975 2444 975 1775 
L 975 0 
L 413 0 
L 413 4606 
z
" transform="scale(0.015625)"/>
      <path id="Helvetica-d7" d="M 363 2822 
L 731 3191 
L 1916 2006 
L 3103 3191 
L 3481 2822 
L 2294 1634 
L 3481 450 
L 3103 72 
L 1916 1256 
L 731 72 
L 363 450 
L 1547 1634 
L 363 2822 
z
" transform="scale(0.015625)"/>
     </defs>
     <use xlink:href="#Helvetica-2022"/>
     <use xlink:href="#Helvetica-20" transform="translate(35.009766 0)"/>
     <use xlink:href="#Helvetica-57" transform="translate(62.792969 0)"/>
     <use xlink:href="#Helvetica-65" transform="translate(157.177734 0)"/>
     <use xlink:href="#Helvetica-69" transform="translate(212.792969 0)"/>
     <use xlink:href="#Helvetica-67" transform="translate(235.009766 0)"/>
     <use xlink:href="#Helvetica-68" transform="translate(290.625 0)"/>
     <use xlink:href="#Helvetica-74" transform="translate(346.240234 0)"/>
     <use xlink:href="#Helvetica-20" transform="translate(374.023438 0)"/>
     <use xlink:href="#Helvetica-d7" transform="translate(401.806641 0)"/>
     <use xlink:href="#Helvetica-20" transform="translate(460.205078 0)"/>
     <use xlink:href="#Helvetica-41" transform="translate(487.988281 0)"/>
     <use xlink:href="#Helvetica-63" transform="translate(554.6875 0)"/>
     <use xlink:href="#Helvetica-74" transform="translate(604.6875 0)"/>
     <use xlink:href="#Helvetica-69" transform="translate(632.470703 0)"/>
     <use xlink:href="#Helvetica-76" transform="translate(654.6875 0)"/>
     <use xlink:href="#Helvetica-61" transform="translate(704.6875 0)"/>
     <use xlink:href="#Helvetica-74" transform="translate(760.302734 0)"/>
     <use xlink:href="#Helvetica-69" transform="translate(788.085938 0)"/>
     <use xlink:href="#Helvetica-6f" transform="translate(810.302734 0)"/>
     <use xlink:href="#Helvetica-6e" transform="translate(865.917969 0)"/>
    </g>
    <!-- • Threshold masking -->
    <g style="fill: #333333" transform="translate(260.2475 72.9) scale(0.08 -0.08)">
     <defs>
      <path id="Helvetica-6b" d="M 400 4591 
L 941 4591 
L 941 1925 
L 2384 3347 
L 3103 3347 
L 1822 2094 
L 3175 0 
L 2456 0 
L 1413 1688 
L 941 1256 
L 941 0 
L 400 0 
L 400 4591 
z
" transform="scale(0.015625)"/>
     </defs>
     <use xlink:href="#Helvetica-2022"/>
     <use xlink:href="#Helvetica-20" transform="translate(35.009766 0)"/>
     <use xlink:href="#Helvetica-54" transform="translate(62.792969 0)"/>
     <use xlink:href="#Helvetica-68" transform="translate(123.876953 0)"/>
     <use xlink:href="#Helvetica-72" transform="translate(179.492188 0)"/>
     <use xlink:href="#Helvetica-65" transform="translate(212.792969 0)"/>
     <use xlink:href="#Helvetica-73" transform="translate(268.408203 0)"/>
     <use xlink:href="#Helvetica-68" transform="translate(318.408203 0)"/>
     <use xlink:href="#Helvetica-6f" transform="translate(374.023438 0)"/>
     <use xlink:href="#Helvetica-6c" transform="translate(429.638672 0)"/>
     <use xlink:href="#Helvetica-64" transform="translate(451.855469 0)"/>
     <use xlink:href="#Helvetica-20" transform="translate(507.470703 0)"/>
     <use xlink:href="#Helvetica-6d" transform="translate(535.253906 0)"/>
     <use xlink:href="#Helvetica-61" transform="translate(618.554688 0)"/>
     <use xlink:href="#Helvetica-73" transform="translate(674.169922 0)"/>
     <use xlink:href="#Helvetica-6b" transform="translate(724.169922 0)"/>
     <use xlink:href="#Helvetica-69" transform="translate(774.169922 0)"/>
     <use xlink:href="#Helvetica-6e" transform="translate(796.386719 0)"/>
     <use xlink:href="#Helvetica-67" transform="translate(852.001953 0)"/>
    </g>
   </g>
   <g id="text_7">
    <!-- $S_{ij} = |W_{ij}| \cdot \|X_j\|_2$ -->
    <g transform="translate(262.98 105.24) scale(0.09 -0.09)">
     <defs>
      <path id="DejaVuSans-Oblique-69" d="M 1172 4863 
L 1747 4863 
L 1606 4134 
L 1031 4134 
L 1172 4863 
z
M 909 3500 
L 1484 3500 
L 800 0 
L 225 0 
L 909 3500 
z
" transform="scale(0.015625)"/>
      <path id="DejaVuSans-Oblique-6a" d="M 928 3500 
L 1503 3500 
L 813 -63 
L 809 -78 
Q 694 -675 544 -897 
Q 403 -1106 132 -1218 
Q -138 -1331 -506 -1331 
L -722 -1331 
L -628 -844 
L -481 -844 
Q -144 -844 -1 -703 
Q 141 -563 238 -63 
L 928 3500 
z
M 1197 4863 
L 1772 4863 
L 1631 4134 
L 1056 4134 
L 1197 4863 
z
" transform="scale(0.015625)"/>
      <path id="DejaVuSans-7c" d="M 1344 4891 
L 1344 -1509 
L 813 -1509 
L 813 4891 
L 1344 4891 
z
" transform="scale(0.015625)"/>
      <path id="DejaVuSans-Oblique-57" d="M 616 4666 
L 1228 4666 
L 1453 697 
L 3213 4666 
L 3916 4666 
L 4147 697 
L 5888 4666 
L 6528 4666 
L 4453 0 
L 3659 0 
L 3444 3891 
L 1697 0 
L 903 0 
L 616 4666 
z
" transform="scale(0.015625)"/>
      <path id="DejaVuSans-2016" d="M 1344 4891 
L 1344 -1509 
L 813 -1509 
L 813 4891 
L 1344 4891 
z
M 2376 4891 
L 2376 -1509 
L 1845 -1509 
L 1845 4891 
L 2376 4891 
z
" transform="scale(0.015625)"/>
      <path id="DejaVuSans-Oblique-58" d="M 878 4666 
L 1516 4666 
L 2316 2981 
L 3763 4666 
L 4500 4666 
L 2578 2438 
L 3738 0 
L 3103 0 
L 2163 1966 
L 459 0 
L -275 0 
L 1906 2509 
L 878 4666 
z
" transform="scale(0.015625)"/>
      <path id="DejaVuSans-32" d="M 1228 531 
L 3431 531 
L 3431 0 
L 469 0 
L 469 531 
Q 828 903 1448 1529 
Q 2069 2156 2228 2338 
Q 2531 2678 2651 2914 
Q 2772 3150 2772 3378 
Q 2772 3750 2511 3984 
Q 2250 4219 1831 4219 
Q 1534 4219 1204 4116 
Q 875 4013 500 3803 
L 500 4441 
Q 881 4594 1212 4672 
Q 1544 4750 1819 4750 
Q 2544 4750 2975 4387 
Q 3406 4025 3406 3419 
Q 3406 3131 3298 2873 
Q 3191 2616 2906 2266 
Q 2828 2175 2409 1742 
Q 1991 1309 1228 531 
z
" transform="scale(0.015625)"/>
     </defs>
     <use xlink:href="#DejaVuSans-Oblique-53" transform="translate(0 0.578125)"/>
     <use xlink:href="#DejaVuSans-Oblique-69" transform="translate(63.476562 -15.828125) scale(0.7)"/>
     <use xlink:href="#DejaVuSans-Oblique-6a" transform="translate(82.924805 -15.828125) scale(0.7)"/>
     <use xlink:href="#DejaVuSans-3d" transform="translate(124.589844 0.578125)"/>
     <use xlink:href="#DejaVuSans-7c" transform="translate(227.861328 0.578125)"/>
     <use xlink:href="#DejaVuSans-Oblique-57" transform="translate(261.552734 0.578125)"/>
     <use xlink:href="#DejaVuSans-Oblique-69" transform="translate(360.429688 -15.828125) scale(0.7)"/>
     <use xlink:href="#DejaVuSans-Oblique-6a" transform="translate(379.87793 -15.828125) scale(0.7)"/>
     <use xlink:href="#DejaVuSans-7c" transform="translate(402.060547 0.578125)"/>
     <use xlink:href="#DejaVuSans-22c5" transform="translate(455.234375 0.578125)"/>
     <use xlink:href="#DejaVuSans-2016" transform="translate(506.503906 0.578125)"/>
     <use xlink:href="#DejaVuSans-Oblique-58" transform="translate(556.503906 0.578125)"/>
     <use xlink:href="#DejaVuSans-Oblique-6a" transform="translate(625.009766 -15.828125) scale(0.7)"/>
     <use xlink:href="#DejaVuSans-2016" transform="translate(647.192383 0.578125)"/>
     <use xlink:href="#DejaVuSans-32" transform="translate(698.149414 -15.828125) scale(0.7)"/>
    </g>
   </g>
  </g>
 </g>
 <defs>
  <clipPath id="p8f5c9549c1">
   <rect x="3.6" y="3.6" width="390.6" height="138.6"/>
  </clipPath>
 </defs>
</svg>
