<?xml version="1.0" encoding="utf-8" standalone="no"?>
<!DOCTYPE svg PUBLIC "-//W3C//DTD SVG 1.1//EN"
  "http://www.w3.org/Graphics/SVG/1.1/DTD/svg11.dtd">
<svg xmlns:xlink="http://www.w3.org/1999/xlink" width="1054.309375pt" height="416.156312pt" viewBox="0 0 1054.309375 416.156312" xmlns="http://www.w3.org/2000/svg" version="1.1">
 <metadata>
  <rdf:RDF xmlns:dc="http://purl.org/dc/elements/1.1/" xmlns:cc="http://creativecommons.org/ns#" xmlns:rdf="http://www.w3.org/1999/02/22-rdf-syntax-ns#">
   <cc:Work>
    <dc:type rdf:resource="http://purl.org/dc/dcmitype/StillImage"/>
    <dc:date>2026-05-27T14:18:59.329307</dc:date>
    <dc:format>image/svg+xml</dc:format>
    <dc:creator>
     <cc:Agent>
      <dc:title>Matplotlib v3.10.9, https://matplotlib.org/</dc:title>
     </cc:Agent>
    </dc:creator>
   </cc:Work>
  </rdf:RDF>
 </metadata>
 <defs>
  <style type="text/css">*{stroke-linejoin: round; stroke-linecap: butt}</style>
 </defs>
 <g id="figure_1">
  <g id="patch_1">
   <path d="M 0 416.156312 
L 1054.309375 416.156312 
L 1054.309375 0 
L 0 0 
z
" style="fill: #ffffff"/>
  </g>
  <g id="axes_1">
   <g id="patch_2">
    <path d="M 42.709375 383.04 
L 338.12114 383.04 
L 338.12114 50.4 
L 42.709375 50.4 
z
" style="fill: #ffffff"/>
   </g>
   <g id="patch_3">
    <path d="M 56.137182 383.04 
L 87.732024 383.04 
L 87.732024 109.6704 
L 56.137182 109.6704 
z
" clip-path="url(#p0bad4d3188)" style="fill: #95a5a6; stroke: #000000; stroke-width: 0.5; stroke-linejoin: miter"/>
   </g>
   <g id="patch_4">
    <path d="M 95.630734 383.04 
L 127.225575 383.04 
L 127.225575 205.2288 
L 95.630734 205.2288 
z
" clip-path="url(#p0bad4d3188)" style="fill: #e74c3c; stroke: #000000; stroke-width: 0.5; stroke-linejoin: miter"/>
   </g>
   <g id="patch_5">
    <path d="M 135.124285 383.04 
L 166.719126 383.04 
L 166.719126 192.528 
L 135.124285 192.528 
z
" clip-path="url(#p0bad4d3188)" style="fill: #e67e22; stroke: #000000; stroke-width: 0.5; stroke-linejoin: miter"/>
   </g>
   <g id="patch_6">
    <path d="M 174.617837 383.04 
L 206.212678 383.04 
L 206.212678 220.9536 
L 174.617837 220.9536 
z
" clip-path="url(#p0bad4d3188)" style="fill: #f39c12; stroke: #000000; stroke-width: 0.5; stroke-linejoin: miter"/>
   </g>
   <g id="patch_7">
    <path d="M 214.111388 383.04 
L 245.706229 383.04 
L 245.706229 209.4624 
L 214.111388 209.4624 
z
" clip-path="url(#p0bad4d3188)" style="fill: #9b59b6; stroke: #000000; stroke-width: 0.5; stroke-linejoin: miter"/>
   </g>
   <g id="patch_8">
    <path d="M 253.60494 383.04 
L 285.199781 383.04 
L 285.199781 383.04 
L 253.60494 383.04 
z
" clip-path="url(#p0bad4d3188)" style="fill: #1abc9c; stroke: #000000; stroke-width: 0.5; stroke-linejoin: miter"/>
   </g>
   <g id="patch_9">
    <path d="M 293.098491 383.04 
L 324.693332 383.04 
L 324.693332 124.1856 
L 293.098491 124.1856 
z
" clip-path="url(#p0bad4d3188)" style="fill: #2ecc71; stroke: #000000; stroke-width: 0.5; stroke-linejoin: miter"/>
   </g>
   <g id="matplotlib.axis_1">
    <g id="xtick_1">
     <g id="line2d_1">
      <defs>
       <path id="mdfec1e70a8" d="M 0 0 
L 0 3.5 
" style="stroke: #000000; stroke-width: 0.8"/>
      </defs>
      <g>
       <use xlink:href="#mdfec1e70a8" x="71.934603" y="383.04" style="stroke: #000000; stroke-width: 0.8"/>
      </g>
     </g>
     <g id="text_1">
      <!-- Original -->
      <g transform="translate(53.314447 396.878594) scale(0.09 -0.09)">
       <defs>
        <path id="DejaVuSerif-4f" d="M 2625 244 
Q 3391 244 3781 770 
Q 4172 1297 4172 2328 
Q 4172 3363 3781 3889 
Q 3391 4416 2625 4416 
Q 1856 4416 1465 3889 
Q 1075 3363 1075 2328 
Q 1075 1297 1465 770 
Q 1856 244 2625 244 
z
M 2625 -91 
Q 2150 -91 1751 65 
Q 1353 222 1050 525 
Q 700 875 529 1319 
Q 359 1763 359 2328 
Q 359 2894 529 3339 
Q 700 3784 1050 4134 
Q 1356 4441 1750 4595 
Q 2144 4750 2625 4750 
Q 3641 4750 4266 4084 
Q 4891 3419 4891 2328 
Q 4891 1769 4719 1320 
Q 4547 872 4197 525 
Q 3891 219 3497 64 
Q 3103 -91 2625 -91 
z
" transform="scale(0.015625)"/>
        <path id="DejaVuSerif-72" d="M 3059 3328 
L 3059 2497 
L 2728 2497 
Q 2713 2744 2591 2866 
Q 2469 2988 2234 2988 
Q 1809 2988 1582 2694 
Q 1356 2400 1356 1850 
L 1356 331 
L 2022 331 
L 2022 0 
L 263 0 
L 263 331 
L 781 331 
L 781 2994 
L 231 2994 
L 231 3322 
L 1356 3322 
L 1356 2731 
Q 1525 3078 1790 3245 
Q 2056 3413 2438 3413 
Q 2578 3413 2733 3391 
Q 2888 3369 3059 3328 
z
" transform="scale(0.015625)"/>
        <path id="DejaVuSerif-69" d="M 622 4353 
Q 622 4497 726 4603 
Q 831 4709 978 4709 
Q 1122 4709 1226 4603 
Q 1331 4497 1331 4353 
Q 1331 4206 1228 4103 
Q 1125 4000 978 4000 
Q 831 4000 726 4103 
Q 622 4206 622 4353 
z
M 1356 331 
L 1900 331 
L 1900 0 
L 231 0 
L 231 331 
L 781 331 
L 781 2988 
L 231 2988 
L 231 3322 
L 1356 3322 
L 1356 331 
z
" transform="scale(0.015625)"/>
        <path id="DejaVuSerif-67" d="M 3359 2988 
L 3359 72 
Q 3359 -644 2965 -1033 
Q 2572 -1422 1844 -1422 
Q 1516 -1422 1216 -1362 
Q 916 -1303 641 -1184 
L 641 -488 
L 941 -488 
Q 997 -813 1206 -963 
Q 1416 -1113 1806 -1113 
Q 2313 -1113 2548 -827 
Q 2784 -541 2784 72 
L 2784 519 
Q 2616 206 2355 57 
Q 2094 -91 1709 -91 
Q 1097 -91 708 395 
Q 319 881 319 1663 
Q 319 2444 706 2928 
Q 1094 3413 1709 3413 
Q 2094 3413 2355 3264 
Q 2616 3116 2784 2803 
L 2784 3322 
L 3909 3322 
L 3909 2988 
L 3359 2988 
z
M 2784 1825 
Q 2784 2422 2554 2737 
Q 2325 3053 1888 3053 
Q 1444 3053 1217 2703 
Q 991 2353 991 1663 
Q 991 975 1217 622 
Q 1444 269 1888 269 
Q 2325 269 2554 583 
Q 2784 897 2784 1497 
L 2784 1825 
z
" transform="scale(0.015625)"/>
        <path id="DejaVuSerif-6e" d="M 263 0 
L 263 331 
L 781 331 
L 781 2988 
L 231 2988 
L 231 3322 
L 1356 3322 
L 1356 2731 
Q 1516 3069 1770 3241 
Q 2025 3413 2363 3413 
Q 2913 3413 3172 3097 
Q 3431 2781 3431 2113 
L 3431 331 
L 3944 331 
L 3944 0 
L 2356 0 
L 2356 331 
L 2853 331 
L 2853 1931 
Q 2853 2541 2703 2767 
Q 2553 2994 2175 2994 
Q 1775 2994 1565 2701 
Q 1356 2409 1356 1850 
L 1356 331 
L 1856 331 
L 1856 0 
L 263 0 
z
" transform="scale(0.015625)"/>
        <path id="DejaVuSerif-61" d="M 2547 1044 
L 2547 1747 
L 1806 1747 
Q 1378 1747 1168 1562 
Q 959 1378 959 997 
Q 959 650 1171 447 
Q 1384 244 1747 244 
Q 2106 244 2326 466 
Q 2547 688 2547 1044 
z
M 3122 2075 
L 3122 331 
L 3634 331 
L 3634 0 
L 2547 0 
L 2547 359 
Q 2356 128 2106 18 
Q 1856 -91 1522 -91 
Q 969 -91 644 203 
Q 319 497 319 997 
Q 319 1513 691 1797 
Q 1063 2081 1741 2081 
L 2547 2081 
L 2547 2309 
Q 2547 2688 2317 2895 
Q 2088 3103 1672 3103 
Q 1328 3103 1125 2947 
Q 922 2791 872 2484 
L 575 2484 
L 575 3156 
Q 875 3284 1158 3348 
Q 1441 3413 1709 3413 
Q 2400 3413 2761 3070 
Q 3122 2728 3122 2075 
z
" transform="scale(0.015625)"/>
        <path id="DejaVuSerif-6c" d="M 1313 331 
L 1856 331 
L 1856 0 
L 184 0 
L 184 331 
L 738 331 
L 738 4531 
L 184 4531 
L 184 4863 
L 1313 4863 
L 1313 331 
z
" transform="scale(0.015625)"/>
       </defs>
       <use xlink:href="#DejaVuSerif-4f"/>
       <use xlink:href="#DejaVuSerif-72" transform="translate(81.982422 0)"/>
       <use xlink:href="#DejaVuSerif-69" transform="translate(129.785156 0)"/>
       <use xlink:href="#DejaVuSerif-67" transform="translate(161.767578 0)"/>
       <use xlink:href="#DejaVuSerif-69" transform="translate(225.78125 0)"/>
       <use xlink:href="#DejaVuSerif-6e" transform="translate(257.763672 0)"/>
       <use xlink:href="#DejaVuSerif-61" transform="translate(322.167969 0)"/>
       <use xlink:href="#DejaVuSerif-6c" transform="translate(381.787109 0)"/>
      </g>
      <!-- 0.8B -->
      <g transform="translate(61.4714 407.084594) scale(0.09 -0.09)">
       <defs>
        <path id="DejaVuSerif-30" d="M 2034 219 
Q 2513 219 2750 744 
Q 2988 1269 2988 2328 
Q 2988 3391 2750 3916 
Q 2513 4441 2034 4441 
Q 1556 4441 1318 3916 
Q 1081 3391 1081 2328 
Q 1081 1269 1318 744 
Q 1556 219 2034 219 
z
M 2034 -91 
Q 1275 -91 848 546 
Q 422 1184 422 2328 
Q 422 3475 848 4112 
Q 1275 4750 2034 4750 
Q 2797 4750 3222 4112 
Q 3647 3475 3647 2328 
Q 3647 1184 3222 546 
Q 2797 -91 2034 -91 
z
" transform="scale(0.015625)"/>
        <path id="DejaVuSerif-2e" d="M 603 325 
Q 603 500 722 622 
Q 841 744 1019 744 
Q 1191 744 1312 622 
Q 1434 500 1434 325 
Q 1434 153 1312 31 
Q 1191 -91 1019 -91 
Q 841 -91 722 29 
Q 603 150 603 325 
z
" transform="scale(0.015625)"/>
        <path id="DejaVuSerif-38" d="M 2981 1275 
Q 2981 1775 2732 2051 
Q 2484 2328 2034 2328 
Q 1584 2328 1336 2051 
Q 1088 1775 1088 1275 
Q 1088 772 1336 495 
Q 1584 219 2034 219 
Q 2484 219 2732 495 
Q 2981 772 2981 1275 
z
M 2853 3541 
Q 2853 3966 2637 4203 
Q 2422 4441 2034 4441 
Q 1650 4441 1433 4203 
Q 1216 3966 1216 3541 
Q 1216 3113 1433 2875 
Q 1650 2638 2034 2638 
Q 2422 2638 2637 2875 
Q 2853 3113 2853 3541 
z
M 2516 2484 
Q 3047 2413 3344 2092 
Q 3641 1772 3641 1275 
Q 3641 619 3225 264 
Q 2809 -91 2034 -91 
Q 1263 -91 845 264 
Q 428 619 428 1275 
Q 428 1772 725 2092 
Q 1022 2413 1556 2484 
Q 1084 2569 832 2842 
Q 581 3116 581 3541 
Q 581 4103 968 4426 
Q 1356 4750 2034 4750 
Q 2713 4750 3100 4426 
Q 3488 4103 3488 3541 
Q 3488 3116 3236 2842 
Q 2984 2569 2516 2484 
z
" transform="scale(0.015625)"/>
        <path id="DejaVuSerif-42" d="M 1581 331 
L 2516 331 
Q 3078 331 3337 575 
Q 3597 819 3597 1350 
Q 3597 1878 3339 2120 
Q 3081 2363 2516 2363 
L 1581 2363 
L 1581 331 
z
M 1581 2694 
L 2375 2694 
Q 2888 2694 3123 2891 
Q 3359 3088 3359 3513 
Q 3359 3941 3123 4136 
Q 2888 4331 2375 4331 
L 1581 4331 
L 1581 2694 
z
M 353 0 
L 353 331 
L 947 331 
L 947 4331 
L 353 4331 
L 353 4666 
L 2656 4666 
Q 3363 4666 3720 4377 
Q 4078 4088 4078 3513 
Q 4078 3097 3829 2850 
Q 3581 2603 3103 2547 
Q 3697 2472 4005 2167 
Q 4313 1863 4313 1350 
Q 4313 656 3875 328 
Q 3438 0 2509 0 
L 353 0 
z
" transform="scale(0.015625)"/>
       </defs>
       <use xlink:href="#DejaVuSerif-30"/>
       <use xlink:href="#DejaVuSerif-2e" transform="translate(63.623047 0)"/>
       <use xlink:href="#DejaVuSerif-38" transform="translate(95.410156 0)"/>
       <use xlink:href="#DejaVuSerif-42" transform="translate(159.033203 0)"/>
      </g>
     </g>
    </g>
    <g id="xtick_2">
     <g id="line2d_2">
      <g>
       <use xlink:href="#mdfec1e70a8" x="111.428154" y="383.04" style="stroke: #000000; stroke-width: 0.8"/>
      </g>
     </g>
     <g id="text_2">
      <!-- Wanda -->
      <g transform="translate(96.051514 396.878594) scale(0.09 -0.09)">
       <defs>
        <path id="DejaVuSerif-57" d="M 4878 0 
L 4366 0 
L 3297 3794 
L 2228 0 
L 1716 0 
L 494 4331 
L 31 4331 
L 31 4666 
L 1734 4666 
L 1734 4331 
L 1153 4331 
L 2125 884 
L 3188 4666 
L 3694 4666 
L 4775 844 
L 5753 4331 
L 5216 4331 
L 5216 4666 
L 6559 4666 
L 6559 4331 
L 6100 4331 
L 4878 0 
z
" transform="scale(0.015625)"/>
        <path id="DejaVuSerif-64" d="M 3359 331 
L 3909 331 
L 3909 0 
L 2784 0 
L 2784 519 
Q 2616 206 2355 57 
Q 2094 -91 1709 -91 
Q 1097 -91 708 395 
Q 319 881 319 1663 
Q 319 2444 706 2928 
Q 1094 3413 1709 3413 
Q 2094 3413 2355 3264 
Q 2616 3116 2784 2803 
L 2784 4531 
L 2241 4531 
L 2241 4863 
L 3359 4863 
L 3359 331 
z
M 2784 1497 
L 2784 1825 
Q 2784 2422 2554 2737 
Q 2325 3053 1888 3053 
Q 1444 3053 1217 2703 
Q 991 2353 991 1663 
Q 991 975 1217 622 
Q 1444 269 1888 269 
Q 2325 269 2554 583 
Q 2784 897 2784 1497 
z
" transform="scale(0.015625)"/>
       </defs>
       <use xlink:href="#DejaVuSerif-57"/>
       <use xlink:href="#DejaVuSerif-61" transform="translate(94.033203 0)"/>
       <use xlink:href="#DejaVuSerif-6e" transform="translate(153.652344 0)"/>
       <use xlink:href="#DejaVuSerif-64" transform="translate(218.056641 0)"/>
       <use xlink:href="#DejaVuSerif-61" transform="translate(282.070312 0)"/>
      </g>
      <!-- 50% -->
      <g transform="translate(101.426201 406.956625) scale(0.09 -0.09)">
       <defs>
        <path id="DejaVuSerif-35" d="M 3219 4666 
L 3219 4153 
L 1081 4153 
L 1081 2816 
Q 1244 2928 1461 2984 
Q 1678 3041 1947 3041 
Q 2703 3041 3140 2622 
Q 3578 2203 3578 1478 
Q 3578 738 3136 323 
Q 2694 -91 1894 -91 
Q 1572 -91 1234 -12 
Q 897 66 544 225 
L 544 1131 
L 897 1131 
Q 925 688 1179 453 
Q 1434 219 1894 219 
Q 2388 219 2653 544 
Q 2919 869 2919 1478 
Q 2919 2084 2655 2407 
Q 2391 2731 1894 2731 
Q 1613 2731 1398 2631 
Q 1184 2531 1019 2322 
L 750 2322 
L 750 4666 
L 3219 4666 
z
" transform="scale(0.015625)"/>
        <path id="DejaVuSerif-25" d="M 1434 4459 
Q 1159 4459 1004 4200 
Q 850 3941 850 3475 
Q 850 3016 1008 2753 
Q 1166 2491 1434 2491 
Q 1700 2491 1854 2752 
Q 2009 3013 2009 3475 
Q 2009 3938 1854 4198 
Q 1700 4459 1434 4459 
z
M 4653 2169 
Q 4381 2169 4226 1906 
Q 4072 1644 4072 1178 
Q 4072 719 4228 458 
Q 4384 197 4653 197 
Q 4922 197 5075 458 
Q 5228 719 5228 1178 
Q 5228 1641 5073 1905 
Q 4919 2169 4653 2169 
z
M 4653 2450 
Q 5147 2450 5437 2106 
Q 5728 1763 5728 1178 
Q 5728 594 5436 251 
Q 5144 -91 4653 -91 
Q 4153 -91 3862 251 
Q 3572 594 3572 1178 
Q 3572 1766 3864 2108 
Q 4156 2450 4653 2450 
z
M 4263 4750 
L 4738 4750 
L 1819 -91 
L 1344 -91 
L 4263 4750 
z
M 1428 4750 
Q 1922 4750 2215 4408 
Q 2509 4066 2509 3481 
Q 2509 2891 2217 2550 
Q 1925 2209 1428 2209 
Q 931 2209 642 2551 
Q 353 2894 353 3481 
Q 353 4063 643 4406 
Q 934 4750 1428 4750 
z
" transform="scale(0.015625)"/>
       </defs>
       <use xlink:href="#DejaVuSerif-35"/>
       <use xlink:href="#DejaVuSerif-30" transform="translate(63.623047 0)"/>
       <use xlink:href="#DejaVuSerif-25" transform="translate(127.246094 0)"/>
      </g>
     </g>
    </g>
    <g id="xtick_3">
     <g id="line2d_3">
      <g>
       <use xlink:href="#mdfec1e70a8" x="150.921706" y="383.04" style="stroke: #000000; stroke-width: 0.8"/>
      </g>
     </g>
     <g id="text_3">
      <!-- SparseGPT -->
      <g transform="translate(125.527643 396.878594) scale(0.09 -0.09)">
       <defs>
        <path id="DejaVuSerif-53" d="M 594 225 
L 594 1288 
L 953 1284 
Q 969 753 1261 498 
Q 1553 244 2150 244 
Q 2706 244 2998 464 
Q 3291 684 3291 1106 
Q 3291 1444 3114 1625 
Q 2938 1806 2369 1978 
L 1753 2163 
Q 1084 2366 811 2669 
Q 538 2972 538 3500 
Q 538 4094 959 4422 
Q 1381 4750 2144 4750 
Q 2469 4750 2856 4679 
Q 3244 4609 3681 4475 
L 3681 3481 
L 3328 3481 
Q 3275 3975 2998 4195 
Q 2722 4416 2156 4416 
Q 1663 4416 1405 4214 
Q 1147 4013 1147 3628 
Q 1147 3294 1340 3103 
Q 1534 2913 2163 2725 
L 2741 2553 
Q 3375 2363 3645 2067 
Q 3916 1772 3916 1275 
Q 3916 597 3481 253 
Q 3047 -91 2188 -91 
Q 1803 -91 1404 -12 
Q 1006 66 594 225 
z
" transform="scale(0.015625)"/>
        <path id="DejaVuSerif-70" d="M 1313 1825 
L 1313 1497 
Q 1313 897 1542 583 
Q 1772 269 2209 269 
Q 2650 269 2876 622 
Q 3103 975 3103 1663 
Q 3103 2353 2876 2703 
Q 2650 3053 2209 3053 
Q 1772 3053 1542 2737 
Q 1313 2422 1313 1825 
z
M 738 2988 
L 184 2988 
L 184 3322 
L 1313 3322 
L 1313 2803 
Q 1481 3116 1742 3264 
Q 2003 3413 2388 3413 
Q 3000 3413 3387 2928 
Q 3775 2444 3775 1663 
Q 3775 881 3387 395 
Q 3000 -91 2388 -91 
Q 2003 -91 1742 57 
Q 1481 206 1313 519 
L 1313 -997 
L 1856 -997 
L 1856 -1331 
L 184 -1331 
L 184 -997 
L 738 -997 
L 738 2988 
z
" transform="scale(0.015625)"/>
        <path id="DejaVuSerif-73" d="M 359 184 
L 359 959 
L 691 959 
Q 703 588 923 403 
Q 1144 219 1575 219 
Q 1963 219 2166 364 
Q 2369 509 2369 788 
Q 2369 1006 2220 1140 
Q 2072 1275 1594 1428 
L 1178 1569 
Q 750 1706 558 1912 
Q 366 2119 366 2438 
Q 366 2894 700 3153 
Q 1034 3413 1625 3413 
Q 1888 3413 2178 3344 
Q 2469 3275 2778 3144 
L 2778 2419 
L 2447 2419 
Q 2434 2741 2221 2922 
Q 2009 3103 1644 3103 
Q 1281 3103 1095 2975 
Q 909 2847 909 2591 
Q 909 2381 1050 2254 
Q 1191 2128 1613 1997 
L 2069 1856 
Q 2541 1709 2748 1489 
Q 2956 1269 2956 922 
Q 2956 450 2595 179 
Q 2234 -91 1600 -91 
Q 1278 -91 972 -22 
Q 666 47 359 184 
z
" transform="scale(0.015625)"/>
        <path id="DejaVuSerif-65" d="M 3469 1600 
L 991 1600 
L 991 1575 
Q 991 903 1244 561 
Q 1497 219 1991 219 
Q 2369 219 2611 417 
Q 2853 616 2950 1006 
L 3413 1006 
Q 3275 459 2904 184 
Q 2534 -91 1931 -91 
Q 1203 -91 761 389 
Q 319 869 319 1663 
Q 319 2450 753 2931 
Q 1188 3413 1894 3413 
Q 2647 3413 3050 2948 
Q 3453 2484 3469 1600 
z
M 2791 1931 
Q 2772 2513 2545 2808 
Q 2319 3103 1894 3103 
Q 1497 3103 1269 2806 
Q 1041 2509 991 1931 
L 2791 1931 
z
" transform="scale(0.015625)"/>
        <path id="DejaVuSerif-47" d="M 4097 3272 
Q 3988 3856 3641 4136 
Q 3294 4416 2675 4416 
Q 1869 4416 1472 3897 
Q 1075 3378 1075 2328 
Q 1075 1300 1484 772 
Q 1894 244 2688 244 
Q 3041 244 3362 331 
Q 3684 419 3975 594 
L 3975 1797 
L 3097 1797 
L 3097 2131 
L 4609 2131 
L 4609 391 
Q 4194 150 3714 29 
Q 3234 -91 2688 -91 
Q 1631 -91 995 570 
Q 359 1231 359 2328 
Q 359 3434 996 4092 
Q 1634 4750 2713 4750 
Q 3113 4750 3539 4658 
Q 3966 4566 4447 4378 
L 4447 3272 
L 4097 3272 
z
" transform="scale(0.015625)"/>
        <path id="DejaVuSerif-50" d="M 1581 2375 
L 2406 2375 
Q 2872 2375 3115 2626 
Q 3359 2878 3359 3353 
Q 3359 3831 3115 4081 
Q 2872 4331 2406 4331 
L 1581 4331 
L 1581 2375 
z
M 353 0 
L 353 331 
L 947 331 
L 947 4331 
L 353 4331 
L 353 4666 
L 2559 4666 
Q 3259 4666 3668 4311 
Q 4078 3956 4078 3353 
Q 4078 2753 3668 2397 
Q 3259 2041 2559 2041 
L 1581 2041 
L 1581 331 
L 2303 331 
L 2303 0 
L 353 0 
z
" transform="scale(0.015625)"/>
        <path id="DejaVuSerif-54" d="M 1222 0 
L 1222 331 
L 1819 331 
L 1819 4294 
L 447 4294 
L 447 3566 
L 63 3566 
L 63 4666 
L 4206 4666 
L 4206 3566 
L 3822 3566 
L 3822 4294 
L 2450 4294 
L 2450 331 
L 3047 331 
L 3047 0 
L 1222 0 
z
" transform="scale(0.015625)"/>
       </defs>
       <use xlink:href="#DejaVuSerif-53"/>
       <use xlink:href="#DejaVuSerif-70" transform="translate(68.505859 0)"/>
       <use xlink:href="#DejaVuSerif-61" transform="translate(132.519531 0)"/>
       <use xlink:href="#DejaVuSerif-72" transform="translate(192.138672 0)"/>
       <use xlink:href="#DejaVuSerif-73" transform="translate(239.941406 0)"/>
       <use xlink:href="#DejaVuSerif-65" transform="translate(291.259766 0)"/>
       <use xlink:href="#DejaVuSerif-47" transform="translate(350.439453 0)"/>
       <use xlink:href="#DejaVuSerif-50" transform="translate(430.322266 0)"/>
       <use xlink:href="#DejaVuSerif-54" transform="translate(497.607422 0)"/>
      </g>
      <!-- 50% -->
      <g transform="translate(140.919753 406.956625) scale(0.09 -0.09)">
       <use xlink:href="#DejaVuSerif-35"/>
       <use xlink:href="#DejaVuSerif-30" transform="translate(63.623047 0)"/>
       <use xlink:href="#DejaVuSerif-25" transform="translate(127.246094 0)"/>
      </g>
     </g>
    </g>
    <g id="xtick_4">
     <g id="line2d_4">
      <g>
       <use xlink:href="#mdfec1e70a8" x="190.415257" y="383.04" style="stroke: #000000; stroke-width: 0.8"/>
      </g>
     </g>
     <g id="text_4">
      <!-- LayerDrop -->
      <g transform="translate(166.038617 396.750625) scale(0.09 -0.09)">
       <defs>
        <path id="DejaVuSerif-4c" d="M 353 0 
L 353 331 
L 947 331 
L 947 4331 
L 353 4331 
L 353 4666 
L 2175 4666 
L 2175 4331 
L 1581 4331 
L 1581 384 
L 3713 384 
L 3713 1166 
L 4097 1166 
L 4097 0 
L 353 0 
z
" transform="scale(0.015625)"/>
        <path id="DejaVuSerif-79" d="M 1381 -609 
L 1600 -56 
L 359 2988 
L -19 2988 
L -19 3322 
L 1509 3322 
L 1509 2988 
L 978 2988 
L 1913 703 
L 2847 2988 
L 2350 2988 
L 2350 3322 
L 3597 3322 
L 3597 2988 
L 3225 2988 
L 1703 -750 
Q 1547 -1138 1356 -1280 
Q 1166 -1422 819 -1422 
Q 672 -1422 517 -1397 
Q 363 -1372 206 -1325 
L 206 -691 
L 500 -691 
Q 519 -903 608 -995 
Q 697 -1088 884 -1088 
Q 1056 -1088 1161 -992 
Q 1266 -897 1381 -609 
z
" transform="scale(0.015625)"/>
        <path id="DejaVuSerif-44" d="M 1581 331 
L 2163 331 
Q 3072 331 3558 850 
Q 4044 1369 4044 2338 
Q 4044 3306 3559 3818 
Q 3075 4331 2163 4331 
L 1581 4331 
L 1581 331 
z
M 353 0 
L 353 331 
L 947 331 
L 947 4331 
L 353 4331 
L 353 4666 
L 2209 4666 
Q 3416 4666 4089 4050 
Q 4763 3434 4763 2338 
Q 4763 1238 4088 619 
Q 3413 0 2209 0 
L 353 0 
z
" transform="scale(0.015625)"/>
        <path id="DejaVuSerif-6f" d="M 1925 219 
Q 2388 219 2623 584 
Q 2859 950 2859 1663 
Q 2859 2375 2623 2739 
Q 2388 3103 1925 3103 
Q 1463 3103 1227 2739 
Q 991 2375 991 1663 
Q 991 950 1228 584 
Q 1466 219 1925 219 
z
M 1925 -91 
Q 1200 -91 759 389 
Q 319 869 319 1663 
Q 319 2456 758 2934 
Q 1197 3413 1925 3413 
Q 2653 3413 3092 2934 
Q 3531 2456 3531 1663 
Q 3531 869 3092 389 
Q 2653 -91 1925 -91 
z
" transform="scale(0.015625)"/>
       </defs>
       <use xlink:href="#DejaVuSerif-4c"/>
       <use xlink:href="#DejaVuSerif-61" transform="translate(66.40625 0)"/>
       <use xlink:href="#DejaVuSerif-79" transform="translate(126.025391 0)"/>
       <use xlink:href="#DejaVuSerif-65" transform="translate(182.519531 0)"/>
       <use xlink:href="#DejaVuSerif-72" transform="translate(241.699219 0)"/>
       <use xlink:href="#DejaVuSerif-44" transform="translate(289.501953 0)"/>
       <use xlink:href="#DejaVuSerif-72" transform="translate(369.677734 0)"/>
       <use xlink:href="#DejaVuSerif-6f" transform="translate(417.480469 0)"/>
       <use xlink:href="#DejaVuSerif-70" transform="translate(477.685547 0)"/>
      </g>
      <!-- 50% -->
      <g transform="translate(180.413304 406.956625) scale(0.09 -0.09)">
       <use xlink:href="#DejaVuSerif-35"/>
       <use xlink:href="#DejaVuSerif-30" transform="translate(63.623047 0)"/>
       <use xlink:href="#DejaVuSerif-25" transform="translate(127.246094 0)"/>
      </g>
     </g>
    </g>
    <g id="xtick_5">
     <g id="line2d_5">
      <g>
       <use xlink:href="#mdfec1e70a8" x="229.908809" y="383.04" style="stroke: #000000; stroke-width: 0.8"/>
      </g>
     </g>
     <g id="text_5">
      <!-- LLM- -->
      <g transform="translate(217.803809 396.878594) scale(0.09 -0.09)">
       <defs>
        <path id="DejaVuSerif-4d" d="M 353 0 
L 353 331 
L 947 331 
L 947 4331 
L 319 4331 
L 319 4666 
L 1678 4666 
L 3316 1344 
L 4953 4666 
L 6228 4666 
L 6228 4331 
L 5606 4331 
L 5606 331 
L 6203 331 
L 6203 0 
L 4378 0 
L 4378 331 
L 4972 331 
L 4972 3938 
L 3372 684 
L 2931 684 
L 1331 3938 
L 1331 331 
L 1925 331 
L 1925 0 
L 353 0 
z
" transform="scale(0.015625)"/>
        <path id="DejaVuSerif-2d" d="M 281 1959 
L 1881 1959 
L 1881 1472 
L 281 1472 
L 281 1959 
z
" transform="scale(0.015625)"/>
       </defs>
       <use xlink:href="#DejaVuSerif-4c"/>
       <use xlink:href="#DejaVuSerif-4c" transform="translate(66.40625 0)"/>
       <use xlink:href="#DejaVuSerif-4d" transform="translate(132.8125 0)"/>
       <use xlink:href="#DejaVuSerif-2d" transform="translate(235.205078 0)"/>
      </g>
      <!-- Pruner -->
      <g transform="translate(214.119434 406.956625) scale(0.09 -0.09)">
       <defs>
        <path id="DejaVuSerif-75" d="M 2266 3322 
L 3341 3322 
L 3341 331 
L 3884 331 
L 3884 0 
L 2766 0 
L 2766 588 
Q 2606 256 2353 82 
Q 2100 -91 1766 -91 
Q 1213 -91 952 223 
Q 691 538 691 1209 
L 691 2988 
L 172 2988 
L 172 3322 
L 1269 3322 
L 1269 1388 
Q 1269 781 1417 556 
Q 1566 331 1947 331 
Q 2347 331 2556 625 
Q 2766 919 2766 1478 
L 2766 2988 
L 2266 2988 
L 2266 3322 
z
" transform="scale(0.015625)"/>
       </defs>
       <use xlink:href="#DejaVuSerif-50"/>
       <use xlink:href="#DejaVuSerif-72" transform="translate(67.285156 0)"/>
       <use xlink:href="#DejaVuSerif-75" transform="translate(115.087891 0)"/>
       <use xlink:href="#DejaVuSerif-6e" transform="translate(179.492188 0)"/>
       <use xlink:href="#DejaVuSerif-65" transform="translate(243.896484 0)"/>
       <use xlink:href="#DejaVuSerif-72" transform="translate(303.076172 0)"/>
      </g>
     </g>
    </g>
    <g id="xtick_6">
     <g id="line2d_6">
      <g>
       <use xlink:href="#mdfec1e70a8" x="269.40236" y="383.04" style="stroke: #000000; stroke-width: 0.8"/>
      </g>
     </g>
     <g id="text_6">
      <!-- Needle -->
      <g transform="translate(253.154548 396.878594) scale(0.09 -0.09)">
       <defs>
        <path id="DejaVuSerif-4e" d="M 313 0 
L 313 331 
L 941 331 
L 941 4331 
L 313 4331 
L 313 4666 
L 1509 4666 
L 4306 984 
L 4306 4331 
L 3681 4331 
L 3681 4666 
L 5319 4666 
L 5319 4331 
L 4691 4331 
L 4691 -91 
L 4313 -91 
L 1325 3841 
L 1325 331 
L 1953 331 
L 1953 0 
L 313 0 
z
" transform="scale(0.015625)"/>
       </defs>
       <use xlink:href="#DejaVuSerif-4e"/>
       <use xlink:href="#DejaVuSerif-65" transform="translate(87.5 0)"/>
       <use xlink:href="#DejaVuSerif-65" transform="translate(146.679688 0)"/>
       <use xlink:href="#DejaVuSerif-64" transform="translate(205.859375 0)"/>
       <use xlink:href="#DejaVuSerif-6c" transform="translate(269.873047 0)"/>
       <use xlink:href="#DejaVuSerif-65" transform="translate(301.855469 0)"/>
      </g>
      <!-- FC-only -->
      <g transform="translate(251.726501 406.956625) scale(0.09 -0.09)">
       <defs>
        <path id="DejaVuSerif-46" d="M 353 0 
L 353 331 
L 947 331 
L 947 4331 
L 353 4331 
L 353 4666 
L 4172 4666 
L 4172 3628 
L 3788 3628 
L 3788 4281 
L 1581 4281 
L 1581 2719 
L 3175 2719 
L 3175 3303 
L 3559 3303 
L 3559 1753 
L 3175 1753 
L 3175 2338 
L 1581 2338 
L 1581 331 
L 2328 331 
L 2328 0 
L 353 0 
z
" transform="scale(0.015625)"/>
        <path id="DejaVuSerif-43" d="M 4513 1234 
Q 4306 581 3820 245 
Q 3334 -91 2591 -91 
Q 2134 -91 1743 65 
Q 1353 222 1050 525 
Q 700 875 529 1320 
Q 359 1766 359 2328 
Q 359 3416 987 4083 
Q 1616 4750 2644 4750 
Q 3025 4750 3456 4650 
Q 3888 4550 4384 4347 
L 4384 3272 
L 4031 3272 
Q 3916 3859 3567 4137 
Q 3219 4416 2591 4416 
Q 1844 4416 1459 3886 
Q 1075 3356 1075 2328 
Q 1075 1303 1459 773 
Q 1844 244 2591 244 
Q 3113 244 3450 492 
Q 3788 741 3938 1234 
L 4513 1234 
z
" transform="scale(0.015625)"/>
       </defs>
       <use xlink:href="#DejaVuSerif-46"/>
       <use xlink:href="#DejaVuSerif-43" transform="translate(69.384766 0)"/>
       <use xlink:href="#DejaVuSerif-2d" transform="translate(145.898438 0)"/>
       <use xlink:href="#DejaVuSerif-6f" transform="translate(179.6875 0)"/>
       <use xlink:href="#DejaVuSerif-6e" transform="translate(239.892578 0)"/>
       <use xlink:href="#DejaVuSerif-6c" transform="translate(304.296875 0)"/>
       <use xlink:href="#DejaVuSerif-79" transform="translate(336.279297 0)"/>
      </g>
     </g>
    </g>
    <g id="xtick_7">
     <g id="line2d_7">
      <g>
       <use xlink:href="#mdfec1e70a8" x="308.895912" y="383.04" style="stroke: #000000; stroke-width: 0.8"/>
      </g>
     </g>
     <g id="text_7">
      <!-- PARSE -->
      <g transform="translate(293.273177 396.878594) scale(0.09 -0.09)">
       <defs>
        <path id="DejaVuSerif-41" d="M 1281 1691 
L 2994 1691 
L 2138 3909 
L 1281 1691 
z
M -38 0 
L -38 331 
L 372 331 
L 2034 4666 
L 2559 4666 
L 4225 331 
L 4684 331 
L 4684 0 
L 2988 0 
L 2988 331 
L 3506 331 
L 3116 1356 
L 1153 1356 
L 763 331 
L 1275 331 
L 1275 0 
L -38 0 
z
" transform="scale(0.015625)"/>
        <path id="DejaVuSerif-52" d="M 3066 2316 
Q 3284 2256 3442 2114 
Q 3600 1972 3725 1716 
L 4403 331 
L 4972 331 
L 4972 0 
L 3872 0 
L 3144 1484 
Q 2934 1916 2759 2042 
Q 2584 2169 2278 2169 
L 1581 2169 
L 1581 331 
L 2241 331 
L 2241 0 
L 353 0 
L 353 331 
L 947 331 
L 947 4331 
L 353 4331 
L 353 4666 
L 2719 4666 
Q 3400 4666 3770 4341 
Q 4141 4016 4141 3419 
Q 4141 2938 3870 2661 
Q 3600 2384 3066 2316 
z
M 1581 2503 
L 2503 2503 
Q 2975 2503 3200 2726 
Q 3425 2950 3425 3419 
Q 3425 3888 3200 4109 
Q 2975 4331 2503 4331 
L 1581 4331 
L 1581 2503 
z
" transform="scale(0.015625)"/>
        <path id="DejaVuSerif-45" d="M 353 0 
L 353 331 
L 947 331 
L 947 4331 
L 353 4331 
L 353 4666 
L 4109 4666 
L 4109 3628 
L 3725 3628 
L 3725 4281 
L 1581 4281 
L 1581 2719 
L 3109 2719 
L 3109 3303 
L 3494 3303 
L 3494 1753 
L 3109 1753 
L 3109 2338 
L 1581 2338 
L 1581 384 
L 3775 384 
L 3775 1038 
L 4159 1038 
L 4159 0 
L 353 0 
z
" transform="scale(0.015625)"/>
       </defs>
       <use xlink:href="#DejaVuSerif-50"/>
       <use xlink:href="#DejaVuSerif-41" transform="translate(58.160156 0)"/>
       <use xlink:href="#DejaVuSerif-52" transform="translate(130.376953 0)"/>
       <use xlink:href="#DejaVuSerif-53" transform="translate(205.669922 0)"/>
       <use xlink:href="#DejaVuSerif-45" transform="translate(274.175781 0)"/>
      </g>
      <!-- P1 -->
      <g transform="translate(303.00513 406.956625) scale(0.09 -0.09)">
       <defs>
        <path id="DejaVuSerif-31" d="M 909 0 
L 909 331 
L 1722 331 
L 1722 4213 
L 781 3603 
L 781 4013 
L 1919 4750 
L 2350 4750 
L 2350 331 
L 3163 331 
L 3163 0 
L 909 0 
z
" transform="scale(0.015625)"/>
       </defs>
       <use xlink:href="#DejaVuSerif-50"/>
       <use xlink:href="#DejaVuSerif-31" transform="translate(67.285156 0)"/>
      </g>
     </g>
    </g>
   </g>
   <g id="matplotlib.axis_2">
    <g id="ytick_1">
     <g id="line2d_8">
      <defs>
       <path id="m50bf80e5b7" d="M 0 0 
L -3.5 0 
" style="stroke: #000000; stroke-width: 0.8"/>
      </defs>
      <g>
       <use xlink:href="#m50bf80e5b7" x="42.709375" y="383.04" style="stroke: #000000; stroke-width: 0.8"/>
      </g>
     </g>
     <g id="text_8">
      <!-- 0 -->
      <g transform="translate(29.346875 386.839219) scale(0.1 -0.1)">
       <use xlink:href="#DejaVuSerif-30"/>
      </g>
     </g>
    </g>
    <g id="ytick_2">
     <g id="line2d_9">
      <g>
       <use xlink:href="#m50bf80e5b7" x="42.709375" y="322.56" style="stroke: #000000; stroke-width: 0.8"/>
      </g>
     </g>
     <g id="text_9">
      <!-- 10 -->
      <g transform="translate(22.984375 326.359219) scale(0.1 -0.1)">
       <use xlink:href="#DejaVuSerif-31"/>
       <use xlink:href="#DejaVuSerif-30" transform="translate(63.623047 0)"/>
      </g>
     </g>
    </g>
    <g id="ytick_3">
     <g id="line2d_10">
      <g>
       <use xlink:href="#m50bf80e5b7" x="42.709375" y="262.08" style="stroke: #000000; stroke-width: 0.8"/>
      </g>
     </g>
     <g id="text_10">
      <!-- 20 -->
      <g transform="translate(22.984375 265.879219) scale(0.1 -0.1)">
       <defs>
        <path id="DejaVuSerif-32" d="M 819 3553 
L 469 3553 
L 469 4384 
Q 803 4563 1142 4656 
Q 1481 4750 1806 4750 
Q 2534 4750 2956 4397 
Q 3378 4044 3378 3438 
Q 3378 2753 2422 1800 
Q 2347 1728 2309 1691 
L 1131 513 
L 3078 513 
L 3078 1088 
L 3444 1088 
L 3444 0 
L 434 0 
L 434 341 
L 1850 1753 
Q 2319 2222 2519 2614 
Q 2719 3006 2719 3438 
Q 2719 3909 2473 4175 
Q 2228 4441 1797 4441 
Q 1350 4441 1106 4219 
Q 863 3997 819 3553 
z
" transform="scale(0.015625)"/>
       </defs>
       <use xlink:href="#DejaVuSerif-32"/>
       <use xlink:href="#DejaVuSerif-30" transform="translate(63.623047 0)"/>
      </g>
     </g>
    </g>
    <g id="ytick_4">
     <g id="line2d_11">
      <g>
       <use xlink:href="#m50bf80e5b7" x="42.709375" y="201.6" style="stroke: #000000; stroke-width: 0.8"/>
      </g>
     </g>
     <g id="text_11">
      <!-- 30 -->
      <g transform="translate(22.984375 205.399219) scale(0.1 -0.1)">
       <defs>
        <path id="DejaVuSerif-33" d="M 622 4469 
Q 988 4606 1323 4678 
Q 1659 4750 1953 4750 
Q 2638 4750 3022 4454 
Q 3406 4159 3406 3634 
Q 3406 3213 3140 2930 
Q 2875 2647 2388 2547 
Q 2963 2466 3280 2130 
Q 3597 1794 3597 1259 
Q 3597 606 3158 257 
Q 2719 -91 1894 -91 
Q 1528 -91 1179 -12 
Q 831 66 488 225 
L 488 1131 
L 838 1131 
Q 869 681 1141 450 
Q 1413 219 1906 219 
Q 2384 219 2661 495 
Q 2938 772 2938 1253 
Q 2938 1803 2653 2086 
Q 2369 2369 1819 2369 
L 1522 2369 
L 1522 2688 
L 1678 2688 
Q 2225 2688 2498 2914 
Q 2772 3141 2772 3597 
Q 2772 4006 2547 4223 
Q 2322 4441 1900 4441 
Q 1478 4441 1245 4241 
Q 1013 4041 972 3647 
L 622 3647 
L 622 4469 
z
" transform="scale(0.015625)"/>
       </defs>
       <use xlink:href="#DejaVuSerif-33"/>
       <use xlink:href="#DejaVuSerif-30" transform="translate(63.623047 0)"/>
      </g>
     </g>
    </g>
    <g id="ytick_5">
     <g id="line2d_12">
      <g>
       <use xlink:href="#m50bf80e5b7" x="42.709375" y="141.12" style="stroke: #000000; stroke-width: 0.8"/>
      </g>
     </g>
     <g id="text_12">
      <!-- 40 -->
      <g transform="translate(22.984375 144.919219) scale(0.1 -0.1)">
       <defs>
        <path id="DejaVuSerif-34" d="M 2234 1581 
L 2234 4063 
L 641 1581 
L 2234 1581 
z
M 3609 0 
L 1484 0 
L 1484 331 
L 2234 331 
L 2234 1247 
L 197 1247 
L 197 1588 
L 2241 4750 
L 2859 4750 
L 2859 1581 
L 3750 1581 
L 3750 1247 
L 2859 1247 
L 2859 331 
L 3609 331 
L 3609 0 
z
" transform="scale(0.015625)"/>
       </defs>
       <use xlink:href="#DejaVuSerif-34"/>
       <use xlink:href="#DejaVuSerif-30" transform="translate(63.623047 0)"/>
      </g>
     </g>
    </g>
    <g id="ytick_6">
     <g id="line2d_13">
      <g>
       <use xlink:href="#m50bf80e5b7" x="42.709375" y="80.64" style="stroke: #000000; stroke-width: 0.8"/>
      </g>
     </g>
     <g id="text_13">
      <!-- 50 -->
      <g transform="translate(22.984375 84.439219) scale(0.1 -0.1)">
       <use xlink:href="#DejaVuSerif-35"/>
       <use xlink:href="#DejaVuSerif-30" transform="translate(63.623047 0)"/>
      </g>
     </g>
    </g>
    <g id="text_14">
     <!-- GSM8K Accuracy (%) -->
     <g transform="translate(16.318125 282.375937) rotate(-90) scale(0.12 -0.12)">
      <defs>
       <path id="DejaVuSerif-4b" d="M 353 0 
L 353 331 
L 947 331 
L 947 4331 
L 353 4331 
L 353 4666 
L 2175 4666 
L 2175 4331 
L 1581 4331 
L 1581 2566 
L 3591 4331 
L 3084 4331 
L 3084 4666 
L 4634 4666 
L 4634 4331 
L 4109 4331 
L 2106 2572 
L 4347 331 
L 4878 331 
L 4878 0 
L 3794 0 
L 1581 2216 
L 1581 331 
L 2175 331 
L 2175 0 
L 353 0 
z
" transform="scale(0.015625)"/>
       <path id="DejaVuSerif-20" transform="scale(0.015625)"/>
       <path id="DejaVuSerif-63" d="M 3291 997 
Q 3169 466 2822 187 
Q 2475 -91 1925 -91 
Q 1200 -91 759 389 
Q 319 869 319 1663 
Q 319 2459 759 2936 
Q 1200 3413 1925 3413 
Q 2241 3413 2553 3339 
Q 2866 3266 3181 3116 
L 3181 2266 
L 2847 2266 
Q 2781 2703 2561 2903 
Q 2341 3103 1931 3103 
Q 1466 3103 1228 2742 
Q 991 2381 991 1663 
Q 991 944 1227 581 
Q 1463 219 1931 219 
Q 2303 219 2525 412 
Q 2747 606 2828 997 
L 3291 997 
z
" transform="scale(0.015625)"/>
       <path id="DejaVuSerif-28" d="M 2041 -997 
Q 1281 -656 893 83 
Q 506 822 506 1931 
Q 506 3044 893 3783 
Q 1281 4522 2041 4863 
L 2041 4556 
Q 1559 4225 1350 3623 
Q 1141 3022 1141 1931 
Q 1141 844 1350 242 
Q 1559 -359 2041 -691 
L 2041 -997 
z
" transform="scale(0.015625)"/>
       <path id="DejaVuSerif-29" d="M 453 -997 
L 453 -691 
Q 934 -359 1145 242 
Q 1356 844 1356 1931 
Q 1356 3022 1145 3623 
Q 934 4225 453 4556 
L 453 4863 
Q 1216 4522 1603 3783 
Q 1991 3044 1991 1931 
Q 1991 822 1603 83 
Q 1216 -656 453 -997 
z
" transform="scale(0.015625)"/>
      </defs>
      <use xlink:href="#DejaVuSerif-47"/>
      <use xlink:href="#DejaVuSerif-53" transform="translate(79.882812 0)"/>
      <use xlink:href="#DejaVuSerif-4d" transform="translate(148.388672 0)"/>
      <use xlink:href="#DejaVuSerif-38" transform="translate(250.78125 0)"/>
      <use xlink:href="#DejaVuSerif-4b" transform="translate(314.404297 0)"/>
      <use xlink:href="#DejaVuSerif-20" transform="translate(389.111328 0)"/>
      <use xlink:href="#DejaVuSerif-41" transform="translate(420.898438 0)"/>
      <use xlink:href="#DejaVuSerif-63" transform="translate(493.115234 0)"/>
      <use xlink:href="#DejaVuSerif-63" transform="translate(549.121094 0)"/>
      <use xlink:href="#DejaVuSerif-75" transform="translate(605.126953 0)"/>
      <use xlink:href="#DejaVuSerif-72" transform="translate(669.53125 0)"/>
      <use xlink:href="#DejaVuSerif-61" transform="translate(717.333984 0)"/>
      <use xlink:href="#DejaVuSerif-63" transform="translate(776.953125 0)"/>
      <use xlink:href="#DejaVuSerif-79" transform="translate(832.958984 0)"/>
      <use xlink:href="#DejaVuSerif-20" transform="translate(889.453125 0)"/>
      <use xlink:href="#DejaVuSerif-28" transform="translate(921.240234 0)"/>
      <use xlink:href="#DejaVuSerif-25" transform="translate(960.253906 0)"/>
      <use xlink:href="#DejaVuSerif-29" transform="translate(1055.273438 0)"/>
     </g>
    </g>
   </g>
   <g id="patch_10">
    <path d="M 42.709375 383.04 
L 42.709375 50.4 
" style="fill: none; stroke: #000000; stroke-width: 0.8; stroke-linejoin: miter; stroke-linecap: square"/>
   </g>
   <g id="patch_11">
    <path d="M 338.12114 383.04 
L 338.12114 50.4 
" style="fill: none; stroke: #000000; stroke-width: 0.8; stroke-linejoin: miter; stroke-linecap: square"/>
   </g>
   <g id="patch_12">
    <path d="M 42.709375 383.04 
L 338.12114 383.04 
" style="fill: none; stroke: #000000; stroke-width: 0.8; stroke-linejoin: miter; stroke-linecap: square"/>
   </g>
   <g id="patch_13">
    <path d="M 42.709375 50.4 
L 338.12114 50.4 
" style="fill: none; stroke: #000000; stroke-width: 0.8; stroke-linejoin: miter; stroke-linecap: square"/>
   </g>
   <g id="text_15">
    <!-- (a) Mathematical Reasoning -->
    <g transform="translate(97.35557 44.4) scale(0.13 -0.13)">
     <defs>
      <path id="DejaVuSerif-74" d="M 691 2988 
L 184 2988 
L 184 3322 
L 691 3322 
L 691 4353 
L 1269 4353 
L 1269 3322 
L 2350 3322 
L 2350 2988 
L 1269 2988 
L 1269 878 
Q 1269 456 1350 337 
Q 1431 219 1650 219 
Q 1875 219 1978 351 
Q 2081 484 2088 781 
L 2522 781 
Q 2497 328 2275 118 
Q 2053 -91 1600 -91 
Q 1103 -91 897 129 
Q 691 350 691 878 
L 691 2988 
z
" transform="scale(0.015625)"/>
      <path id="DejaVuSerif-68" d="M 263 0 
L 263 331 
L 781 331 
L 781 4531 
L 231 4531 
L 231 4863 
L 1356 4863 
L 1356 2731 
Q 1516 3069 1770 3241 
Q 2025 3413 2363 3413 
Q 2913 3413 3172 3097 
Q 3431 2781 3431 2113 
L 3431 331 
L 3944 331 
L 3944 0 
L 2356 0 
L 2356 331 
L 2853 331 
L 2853 1931 
Q 2853 2541 2704 2764 
Q 2556 2988 2175 2988 
Q 1775 2988 1565 2697 
Q 1356 2406 1356 1850 
L 1356 331 
L 1856 331 
L 1856 0 
L 263 0 
z
" transform="scale(0.015625)"/>
      <path id="DejaVuSerif-6d" d="M 3316 2675 
Q 3481 3041 3739 3227 
Q 3997 3413 4341 3413 
Q 4863 3413 5119 3089 
Q 5375 2766 5375 2113 
L 5375 331 
L 5894 331 
L 5894 0 
L 4300 0 
L 4300 331 
L 4800 331 
L 4800 2047 
Q 4800 2556 4650 2772 
Q 4500 2988 4153 2988 
Q 3769 2988 3567 2697 
Q 3366 2406 3366 1850 
L 3366 331 
L 3866 331 
L 3866 0 
L 2291 0 
L 2291 331 
L 2791 331 
L 2791 2069 
Q 2791 2566 2641 2777 
Q 2491 2988 2144 2988 
Q 1759 2988 1557 2697 
Q 1356 2406 1356 1850 
L 1356 331 
L 1856 331 
L 1856 0 
L 263 0 
L 263 331 
L 781 331 
L 781 2994 
L 231 2994 
L 231 3322 
L 1356 3322 
L 1356 2731 
Q 1516 3063 1762 3238 
Q 2009 3413 2322 3413 
Q 2709 3413 2968 3220 
Q 3228 3028 3316 2675 
z
" transform="scale(0.015625)"/>
     </defs>
     <use xlink:href="#DejaVuSerif-28"/>
     <use xlink:href="#DejaVuSerif-61" transform="translate(39.013672 0)"/>
     <use xlink:href="#DejaVuSerif-29" transform="translate(98.632812 0)"/>
     <use xlink:href="#DejaVuSerif-20" transform="translate(137.646484 0)"/>
     <use xlink:href="#DejaVuSerif-4d" transform="translate(169.433594 0)"/>
     <use xlink:href="#DejaVuSerif-61" transform="translate(271.826172 0)"/>
     <use xlink:href="#DejaVuSerif-74" transform="translate(331.445312 0)"/>
     <use xlink:href="#DejaVuSerif-68" transform="translate(371.630859 0)"/>
     <use xlink:href="#DejaVuSerif-65" transform="translate(436.035156 0)"/>
     <use xlink:href="#DejaVuSerif-6d" transform="translate(495.214844 0)"/>
     <use xlink:href="#DejaVuSerif-61" transform="translate(590.039062 0)"/>
     <use xlink:href="#DejaVuSerif-74" transform="translate(649.658203 0)"/>
     <use xlink:href="#DejaVuSerif-69" transform="translate(689.84375 0)"/>
     <use xlink:href="#DejaVuSerif-63" transform="translate(721.826172 0)"/>
     <use xlink:href="#DejaVuSerif-61" transform="translate(777.832031 0)"/>
     <use xlink:href="#DejaVuSerif-6c" transform="translate(837.451172 0)"/>
     <use xlink:href="#DejaVuSerif-20" transform="translate(869.433594 0)"/>
     <use xlink:href="#DejaVuSerif-52" transform="translate(901.220703 0)"/>
     <use xlink:href="#DejaVuSerif-65" transform="translate(976.513672 0)"/>
     <use xlink:href="#DejaVuSerif-61" transform="translate(1035.693359 0)"/>
     <use xlink:href="#DejaVuSerif-73" transform="translate(1095.3125 0)"/>
     <use xlink:href="#DejaVuSerif-6f" transform="translate(1146.630859 0)"/>
     <use xlink:href="#DejaVuSerif-6e" transform="translate(1206.835938 0)"/>
     <use xlink:href="#DejaVuSerif-69" transform="translate(1271.240234 0)"/>
     <use xlink:href="#DejaVuSerif-6e" transform="translate(1303.222656 0)"/>
     <use xlink:href="#DejaVuSerif-67" transform="translate(1367.626953 0)"/>
    </g>
   </g>
  </g>
  <g id="axes_2">
   <g id="patch_14">
    <path d="M 397.203493 383.04 
L 692.615257 383.04 
L 692.615257 50.4 
L 397.203493 50.4 
z
" style="fill: #ffffff"/>
   </g>
   <g id="patch_15">
    <path d="M 410.6313 383.04 
L 442.226141 383.04 
L 442.226141 89.98416 
L 410.6313 89.98416 
z
" clip-path="url(#p750d5987cd)" style="fill: #95a5a6; stroke: #000000; stroke-width: 0.5; stroke-linejoin: miter"/>
   </g>
   <g id="patch_16">
    <path d="M 450.124852 383.04 
L 481.719693 383.04 
L 481.719693 183.12336 
L 450.124852 183.12336 
z
" clip-path="url(#p750d5987cd)" style="fill: #e74c3c; stroke: #000000; stroke-width: 0.5; stroke-linejoin: miter"/>
   </g>
   <g id="patch_17">
    <path d="M 489.618403 383.04 
L 521.213244 383.04 
L 521.213244 175.14 
L 489.618403 175.14 
z
" clip-path="url(#p750d5987cd)" style="fill: #e67e22; stroke: #000000; stroke-width: 0.5; stroke-linejoin: miter"/>
   </g>
   <g id="patch_18">
    <path d="M 529.111954 383.04 
L 560.706796 383.04 
L 560.706796 200.088 
L 529.111954 200.088 
z
" clip-path="url(#p750d5987cd)" style="fill: #f39c12; stroke: #000000; stroke-width: 0.5; stroke-linejoin: miter"/>
   </g>
   <g id="patch_19">
    <path d="M 568.605506 383.04 
L 600.200347 383.04 
L 600.200347 189.11088 
L 568.605506 189.11088 
z
" clip-path="url(#p750d5987cd)" style="fill: #9b59b6; stroke: #000000; stroke-width: 0.5; stroke-linejoin: miter"/>
   </g>
   <g id="patch_20">
    <path d="M 608.099057 383.04 
L 639.693898 383.04 
L 639.693898 86.9904 
L 608.099057 86.9904 
z
" clip-path="url(#p750d5987cd)" style="fill: #1abc9c; stroke: #000000; stroke-width: 0.5; stroke-linejoin: miter"/>
   </g>
   <g id="patch_21">
    <path d="M 647.592609 383.04 
L 679.18745 383.04 
L 679.18745 87.98832 
L 647.592609 87.98832 
z
" clip-path="url(#p750d5987cd)" style="fill: #2ecc71; stroke: #000000; stroke-width: 0.5; stroke-linejoin: miter"/>
   </g>
   <g id="matplotlib.axis_3">
    <g id="xtick_8">
     <g id="line2d_14">
      <g>
       <use xlink:href="#mdfec1e70a8" x="426.428721" y="383.04" style="stroke: #000000; stroke-width: 0.8"/>
      </g>
     </g>
     <g id="text_16">
      <!-- Original -->
      <g transform="translate(407.808564 396.878594) scale(0.09 -0.09)">
       <use xlink:href="#DejaVuSerif-4f"/>
       <use xlink:href="#DejaVuSerif-72" transform="translate(81.982422 0)"/>
       <use xlink:href="#DejaVuSerif-69" transform="translate(129.785156 0)"/>
       <use xlink:href="#DejaVuSerif-67" transform="translate(161.767578 0)"/>
       <use xlink:href="#DejaVuSerif-69" transform="translate(225.78125 0)"/>
       <use xlink:href="#DejaVuSerif-6e" transform="translate(257.763672 0)"/>
       <use xlink:href="#DejaVuSerif-61" transform="translate(322.167969 0)"/>
       <use xlink:href="#DejaVuSerif-6c" transform="translate(381.787109 0)"/>
      </g>
      <!-- 0.8B -->
      <g transform="translate(415.965518 407.084594) scale(0.09 -0.09)">
       <use xlink:href="#DejaVuSerif-30"/>
       <use xlink:href="#DejaVuSerif-2e" transform="translate(63.623047 0)"/>
       <use xlink:href="#DejaVuSerif-38" transform="translate(95.410156 0)"/>
       <use xlink:href="#DejaVuSerif-42" transform="translate(159.033203 0)"/>
      </g>
     </g>
    </g>
    <g id="xtick_9">
     <g id="line2d_15">
      <g>
       <use xlink:href="#mdfec1e70a8" x="465.922272" y="383.04" style="stroke: #000000; stroke-width: 0.8"/>
      </g>
     </g>
     <g id="text_17">
      <!-- Wanda -->
      <g transform="translate(450.545632 396.878594) scale(0.09 -0.09)">
       <use xlink:href="#DejaVuSerif-57"/>
       <use xlink:href="#DejaVuSerif-61" transform="translate(94.033203 0)"/>
       <use xlink:href="#DejaVuSerif-6e" transform="translate(153.652344 0)"/>
       <use xlink:href="#DejaVuSerif-64" transform="translate(218.056641 0)"/>
       <use xlink:href="#DejaVuSerif-61" transform="translate(282.070312 0)"/>
      </g>
      <!-- 50% -->
      <g transform="translate(455.920319 406.956625) scale(0.09 -0.09)">
       <use xlink:href="#DejaVuSerif-35"/>
       <use xlink:href="#DejaVuSerif-30" transform="translate(63.623047 0)"/>
       <use xlink:href="#DejaVuSerif-25" transform="translate(127.246094 0)"/>
      </g>
     </g>
    </g>
    <g id="xtick_10">
     <g id="line2d_16">
      <g>
       <use xlink:href="#mdfec1e70a8" x="505.415824" y="383.04" style="stroke: #000000; stroke-width: 0.8"/>
      </g>
     </g>
     <g id="text_18">
      <!-- SparseGPT -->
      <g transform="translate(480.021761 396.878594) scale(0.09 -0.09)">
       <use xlink:href="#DejaVuSerif-53"/>
       <use xlink:href="#DejaVuSerif-70" transform="translate(68.505859 0)"/>
       <use xlink:href="#DejaVuSerif-61" transform="translate(132.519531 0)"/>
       <use xlink:href="#DejaVuSerif-72" transform="translate(192.138672 0)"/>
       <use xlink:href="#DejaVuSerif-73" transform="translate(239.941406 0)"/>
       <use xlink:href="#DejaVuSerif-65" transform="translate(291.259766 0)"/>
       <use xlink:href="#DejaVuSerif-47" transform="translate(350.439453 0)"/>
       <use xlink:href="#DejaVuSerif-50" transform="translate(430.322266 0)"/>
       <use xlink:href="#DejaVuSerif-54" transform="translate(497.607422 0)"/>
      </g>
      <!-- 50% -->
      <g transform="translate(495.41387 406.956625) scale(0.09 -0.09)">
       <use xlink:href="#DejaVuSerif-35"/>
       <use xlink:href="#DejaVuSerif-30" transform="translate(63.623047 0)"/>
       <use xlink:href="#DejaVuSerif-25" transform="translate(127.246094 0)"/>
      </g>
     </g>
    </g>
    <g id="xtick_11">
     <g id="line2d_17">
      <g>
       <use xlink:href="#mdfec1e70a8" x="544.909375" y="383.04" style="stroke: #000000; stroke-width: 0.8"/>
      </g>
     </g>
     <g id="text_19">
      <!-- LayerDrop -->
      <g transform="translate(520.532734 396.750625) scale(0.09 -0.09)">
       <use xlink:href="#DejaVuSerif-4c"/>
       <use xlink:href="#DejaVuSerif-61" transform="translate(66.40625 0)"/>
       <use xlink:href="#DejaVuSerif-79" transform="translate(126.025391 0)"/>
       <use xlink:href="#DejaVuSerif-65" transform="translate(182.519531 0)"/>
       <use xlink:href="#DejaVuSerif-72" transform="translate(241.699219 0)"/>
       <use xlink:href="#DejaVuSerif-44" transform="translate(289.501953 0)"/>
       <use xlink:href="#DejaVuSerif-72" transform="translate(369.677734 0)"/>
       <use xlink:href="#DejaVuSerif-6f" transform="translate(417.480469 0)"/>
       <use xlink:href="#DejaVuSerif-70" transform="translate(477.685547 0)"/>
      </g>
      <!-- 50% -->
      <g transform="translate(534.907422 406.956625) scale(0.09 -0.09)">
       <use xlink:href="#DejaVuSerif-35"/>
       <use xlink:href="#DejaVuSerif-30" transform="translate(63.623047 0)"/>
       <use xlink:href="#DejaVuSerif-25" transform="translate(127.246094 0)"/>
      </g>
     </g>
    </g>
    <g id="xtick_12">
     <g id="line2d_18">
      <g>
       <use xlink:href="#mdfec1e70a8" x="584.402926" y="383.04" style="stroke: #000000; stroke-width: 0.8"/>
      </g>
     </g>
     <g id="text_20">
      <!-- LLM- -->
      <g transform="translate(572.297926 396.878594) scale(0.09 -0.09)">
       <use xlink:href="#DejaVuSerif-4c"/>
       <use xlink:href="#DejaVuSerif-4c" transform="translate(66.40625 0)"/>
       <use xlink:href="#DejaVuSerif-4d" transform="translate(132.8125 0)"/>
       <use xlink:href="#DejaVuSerif-2d" transform="translate(235.205078 0)"/>
      </g>
      <!-- Pruner -->
      <g transform="translate(568.613551 406.956625) scale(0.09 -0.09)">
       <use xlink:href="#DejaVuSerif-50"/>
       <use xlink:href="#DejaVuSerif-72" transform="translate(67.285156 0)"/>
       <use xlink:href="#DejaVuSerif-75" transform="translate(115.087891 0)"/>
       <use xlink:href="#DejaVuSerif-6e" transform="translate(179.492188 0)"/>
       <use xlink:href="#DejaVuSerif-65" transform="translate(243.896484 0)"/>
       <use xlink:href="#DejaVuSerif-72" transform="translate(303.076172 0)"/>
      </g>
     </g>
    </g>
    <g id="xtick_13">
     <g id="line2d_19">
      <g>
       <use xlink:href="#mdfec1e70a8" x="623.896478" y="383.04" style="stroke: #000000; stroke-width: 0.8"/>
      </g>
     </g>
     <g id="text_21">
      <!-- Needle -->
      <g transform="translate(607.648665 396.878594) scale(0.09 -0.09)">
       <use xlink:href="#DejaVuSerif-4e"/>
       <use xlink:href="#DejaVuSerif-65" transform="translate(87.5 0)"/>
       <use xlink:href="#DejaVuSerif-65" transform="translate(146.679688 0)"/>
       <use xlink:href="#DejaVuSerif-64" transform="translate(205.859375 0)"/>
       <use xlink:href="#DejaVuSerif-6c" transform="translate(269.873047 0)"/>
       <use xlink:href="#DejaVuSerif-65" transform="translate(301.855469 0)"/>
      </g>
      <!-- FC-only -->
      <g transform="translate(606.220618 406.956625) scale(0.09 -0.09)">
       <use xlink:href="#DejaVuSerif-46"/>
       <use xlink:href="#DejaVuSerif-43" transform="translate(69.384766 0)"/>
       <use xlink:href="#DejaVuSerif-2d" transform="translate(145.898438 0)"/>
       <use xlink:href="#DejaVuSerif-6f" transform="translate(179.6875 0)"/>
       <use xlink:href="#DejaVuSerif-6e" transform="translate(239.892578 0)"/>
       <use xlink:href="#DejaVuSerif-6c" transform="translate(304.296875 0)"/>
       <use xlink:href="#DejaVuSerif-79" transform="translate(336.279297 0)"/>
      </g>
     </g>
    </g>
    <g id="xtick_14">
     <g id="line2d_20">
      <g>
       <use xlink:href="#mdfec1e70a8" x="663.390029" y="383.04" style="stroke: #000000; stroke-width: 0.8"/>
      </g>
     </g>
     <g id="text_22">
      <!-- PARSE -->
      <g transform="translate(647.767295 396.878594) scale(0.09 -0.09)">
       <use xlink:href="#DejaVuSerif-50"/>
       <use xlink:href="#DejaVuSerif-41" transform="translate(58.160156 0)"/>
       <use xlink:href="#DejaVuSerif-52" transform="translate(130.376953 0)"/>
       <use xlink:href="#DejaVuSerif-53" transform="translate(205.669922 0)"/>
       <use xlink:href="#DejaVuSerif-45" transform="translate(274.175781 0)"/>
      </g>
      <!-- P1 -->
      <g transform="translate(657.499248 406.956625) scale(0.09 -0.09)">
       <use xlink:href="#DejaVuSerif-50"/>
       <use xlink:href="#DejaVuSerif-31" transform="translate(67.285156 0)"/>
      </g>
     </g>
    </g>
   </g>
   <g id="matplotlib.axis_4">
    <g id="ytick_7">
     <g id="line2d_21">
      <g>
       <use xlink:href="#m50bf80e5b7" x="397.203493" y="383.04" style="stroke: #000000; stroke-width: 0.8"/>
      </g>
     </g>
     <g id="text_23">
      <!-- 0 -->
      <g transform="translate(383.840993 386.839219) scale(0.1 -0.1)">
       <use xlink:href="#DejaVuSerif-30"/>
      </g>
     </g>
    </g>
    <g id="ytick_8">
     <g id="line2d_22">
      <g>
       <use xlink:href="#m50bf80e5b7" x="397.203493" y="316.512" style="stroke: #000000; stroke-width: 0.8"/>
      </g>
     </g>
     <g id="text_24">
      <!-- 20 -->
      <g transform="translate(377.478493 320.311219) scale(0.1 -0.1)">
       <use xlink:href="#DejaVuSerif-32"/>
       <use xlink:href="#DejaVuSerif-30" transform="translate(63.623047 0)"/>
      </g>
     </g>
    </g>
    <g id="ytick_9">
     <g id="line2d_23">
      <g>
       <use xlink:href="#m50bf80e5b7" x="397.203493" y="249.984" style="stroke: #000000; stroke-width: 0.8"/>
      </g>
     </g>
     <g id="text_25">
      <!-- 40 -->
      <g transform="translate(377.478493 253.783219) scale(0.1 -0.1)">
       <use xlink:href="#DejaVuSerif-34"/>
       <use xlink:href="#DejaVuSerif-30" transform="translate(63.623047 0)"/>
      </g>
     </g>
    </g>
    <g id="ytick_10">
     <g id="line2d_24">
      <g>
       <use xlink:href="#m50bf80e5b7" x="397.203493" y="183.456" style="stroke: #000000; stroke-width: 0.8"/>
      </g>
     </g>
     <g id="text_26">
      <!-- 60 -->
      <g transform="translate(377.478493 187.255219) scale(0.1 -0.1)">
       <defs>
        <path id="DejaVuSerif-36" d="M 2094 219 
Q 2534 219 2771 542 
Q 3009 866 3009 1472 
Q 3009 2078 2771 2401 
Q 2534 2725 2094 2725 
Q 1647 2725 1412 2412 
Q 1178 2100 1178 1509 
Q 1178 888 1415 553 
Q 1653 219 2094 219 
z
M 1075 2569 
Q 1288 2803 1556 2918 
Q 1825 3034 2163 3034 
Q 2859 3034 3264 2615 
Q 3669 2197 3669 1472 
Q 3669 763 3233 336 
Q 2797 -91 2069 -91 
Q 1278 -91 853 498 
Q 428 1088 428 2181 
Q 428 3406 931 4078 
Q 1434 4750 2350 4750 
Q 2597 4750 2869 4703 
Q 3141 4656 3425 4563 
L 3425 3794 
L 3072 3794 
Q 3034 4109 2831 4275 
Q 2628 4441 2284 4441 
Q 1678 4441 1381 3981 
Q 1084 3522 1075 2569 
z
" transform="scale(0.015625)"/>
       </defs>
       <use xlink:href="#DejaVuSerif-36"/>
       <use xlink:href="#DejaVuSerif-30" transform="translate(63.623047 0)"/>
      </g>
     </g>
    </g>
    <g id="ytick_11">
     <g id="line2d_25">
      <g>
       <use xlink:href="#m50bf80e5b7" x="397.203493" y="116.928" style="stroke: #000000; stroke-width: 0.8"/>
      </g>
     </g>
     <g id="text_27">
      <!-- 80 -->
      <g transform="translate(377.478493 120.727219) scale(0.1 -0.1)">
       <use xlink:href="#DejaVuSerif-38"/>
       <use xlink:href="#DejaVuSerif-30" transform="translate(63.623047 0)"/>
      </g>
     </g>
    </g>
    <g id="ytick_12">
     <g id="line2d_26">
      <g>
       <use xlink:href="#m50bf80e5b7" x="397.203493" y="50.4" style="stroke: #000000; stroke-width: 0.8"/>
      </g>
     </g>
     <g id="text_28">
      <!-- 100 -->
      <g transform="translate(371.115993 54.199219) scale(0.1 -0.1)">
       <use xlink:href="#DejaVuSerif-31"/>
       <use xlink:href="#DejaVuSerif-30" transform="translate(63.623047 0)"/>
       <use xlink:href="#DejaVuSerif-30" transform="translate(127.246094 0)"/>
      </g>
     </g>
    </g>
    <g id="text_29">
     <!-- BFCL Accuracy (%) -->
     <g transform="translate(364.449743 276.177187) rotate(-90) scale(0.12 -0.12)">
      <use xlink:href="#DejaVuSerif-42"/>
      <use xlink:href="#DejaVuSerif-46" transform="translate(73.486328 0)"/>
      <use xlink:href="#DejaVuSerif-43" transform="translate(142.871094 0)"/>
      <use xlink:href="#DejaVuSerif-4c" transform="translate(219.384766 0)"/>
      <use xlink:href="#DejaVuSerif-20" transform="translate(285.791016 0)"/>
      <use xlink:href="#DejaVuSerif-41" transform="translate(317.578125 0)"/>
      <use xlink:href="#DejaVuSerif-63" transform="translate(389.794922 0)"/>
      <use xlink:href="#DejaVuSerif-63" transform="translate(445.800781 0)"/>
      <use xlink:href="#DejaVuSerif-75" transform="translate(501.806641 0)"/>
      <use xlink:href="#DejaVuSerif-72" transform="translate(566.210938 0)"/>
      <use xlink:href="#DejaVuSerif-61" transform="translate(614.013672 0)"/>
      <use xlink:href="#DejaVuSerif-63" transform="translate(673.632812 0)"/>
      <use xlink:href="#DejaVuSerif-79" transform="translate(729.638672 0)"/>
      <use xlink:href="#DejaVuSerif-20" transform="translate(786.132812 0)"/>
      <use xlink:href="#DejaVuSerif-28" transform="translate(817.919922 0)"/>
      <use xlink:href="#DejaVuSerif-25" transform="translate(856.933594 0)"/>
      <use xlink:href="#DejaVuSerif-29" transform="translate(951.953125 0)"/>
     </g>
    </g>
   </g>
   <g id="patch_22">
    <path d="M 397.203493 383.04 
L 397.203493 50.4 
" style="fill: none; stroke: #000000; stroke-width: 0.8; stroke-linejoin: miter; stroke-linecap: square"/>
   </g>
   <g id="patch_23">
    <path d="M 692.615257 383.04 
L 692.615257 50.4 
" style="fill: none; stroke: #000000; stroke-width: 0.8; stroke-linejoin: miter; stroke-linecap: square"/>
   </g>
   <g id="patch_24">
    <path d="M 397.203493 383.04 
L 692.615257 383.04 
" style="fill: none; stroke: #000000; stroke-width: 0.8; stroke-linejoin: miter; stroke-linecap: square"/>
   </g>
   <g id="patch_25">
    <path d="M 397.203493 50.4 
L 692.615257 50.4 
" style="fill: none; stroke: #000000; stroke-width: 0.8; stroke-linejoin: miter; stroke-linecap: square"/>
   </g>
   <g id="text_30">
    <!-- (b) Function Calling -->
    <g transform="translate(478.797266 44.4) scale(0.13 -0.13)">
     <defs>
      <path id="DejaVuSerif-62" d="M 738 331 
L 738 4531 
L 184 4531 
L 184 4863 
L 1313 4863 
L 1313 2803 
Q 1481 3116 1742 3264 
Q 2003 3413 2388 3413 
Q 3000 3413 3387 2928 
Q 3775 2444 3775 1663 
Q 3775 881 3387 395 
Q 3000 -91 2388 -91 
Q 2003 -91 1742 57 
Q 1481 206 1313 519 
L 1313 0 
L 184 0 
L 184 331 
L 738 331 
z
M 1313 1497 
Q 1313 897 1542 583 
Q 1772 269 2209 269 
Q 2650 269 2876 622 
Q 3103 975 3103 1663 
Q 3103 2353 2876 2703 
Q 2650 3053 2209 3053 
Q 1772 3053 1542 2737 
Q 1313 2422 1313 1825 
L 1313 1497 
z
" transform="scale(0.015625)"/>
     </defs>
     <use xlink:href="#DejaVuSerif-28"/>
     <use xlink:href="#DejaVuSerif-62" transform="translate(39.013672 0)"/>
     <use xlink:href="#DejaVuSerif-29" transform="translate(103.027344 0)"/>
     <use xlink:href="#DejaVuSerif-20" transform="translate(142.041016 0)"/>
     <use xlink:href="#DejaVuSerif-46" transform="translate(173.828125 0)"/>
     <use xlink:href="#DejaVuSerif-75" transform="translate(243.212891 0)"/>
     <use xlink:href="#DejaVuSerif-6e" transform="translate(307.617188 0)"/>
     <use xlink:href="#DejaVuSerif-63" transform="translate(372.021484 0)"/>
     <use xlink:href="#DejaVuSerif-74" transform="translate(428.027344 0)"/>
     <use xlink:href="#DejaVuSerif-69" transform="translate(468.212891 0)"/>
     <use xlink:href="#DejaVuSerif-6f" transform="translate(500.195312 0)"/>
     <use xlink:href="#DejaVuSerif-6e" transform="translate(560.400391 0)"/>
     <use xlink:href="#DejaVuSerif-20" transform="translate(624.804688 0)"/>
     <use xlink:href="#DejaVuSerif-43" transform="translate(656.591797 0)"/>
     <use xlink:href="#DejaVuSerif-61" transform="translate(733.105469 0)"/>
     <use xlink:href="#DejaVuSerif-6c" transform="translate(792.724609 0)"/>
     <use xlink:href="#DejaVuSerif-6c" transform="translate(824.707031 0)"/>
     <use xlink:href="#DejaVuSerif-69" transform="translate(856.689453 0)"/>
     <use xlink:href="#DejaVuSerif-6e" transform="translate(888.671875 0)"/>
     <use xlink:href="#DejaVuSerif-67" transform="translate(953.076172 0)"/>
    </g>
   </g>
  </g>
  <g id="axes_3">
   <g id="patch_26">
    <path d="M 751.69761 383.04 
L 1047.109375 383.04 
L 1047.109375 50.4 
L 751.69761 50.4 
z
" style="fill: #ffffff"/>
   </g>
   <g id="patch_27">
    <path d="M 765.125418 383.04 
L 796.720259 383.04 
L 796.720259 375.706667 
L 765.125418 375.706667 
z
" clip-path="url(#p5349a13725)" style="fill: #95a5a6; stroke: #000000; stroke-width: 0.5; stroke-linejoin: miter"/>
   </g>
   <g id="patch_28">
    <path d="M 804.618969 383.04 
L 836.21381 383.04 
L 836.21381 369.106667 
L 804.618969 369.106667 
z
" clip-path="url(#p5349a13725)" style="fill: #e74c3c; stroke: #000000; stroke-width: 0.5; stroke-linejoin: miter"/>
   </g>
   <g id="patch_29">
    <path d="M 844.112521 383.04 
L 875.707362 383.04 
L 875.707362 369.106667 
L 844.112521 369.106667 
z
" clip-path="url(#p5349a13725)" style="fill: #e67e22; stroke: #000000; stroke-width: 0.5; stroke-linejoin: miter"/>
   </g>
   <g id="patch_30">
    <path d="M 883.606072 383.04 
L 915.200913 383.04 
L 915.200913 361.04 
L 883.606072 361.04 
z
" clip-path="url(#p5349a13725)" style="fill: #f39c12; stroke: #000000; stroke-width: 0.5; stroke-linejoin: miter"/>
   </g>
   <g id="patch_31">
    <path d="M 923.099624 383.04 
L 954.694465 383.04 
L 954.694465 362.506667 
L 923.099624 362.506667 
z
" clip-path="url(#p5349a13725)" style="fill: #9b59b6; stroke: #000000; stroke-width: 0.5; stroke-linejoin: miter"/>
   </g>
   <g id="patch_32">
    <path d="M 962.593175 383.04 
L 994.188016 383.04 
L 994.188016 66.24 
L 962.593175 66.24 
z
" clip-path="url(#p5349a13725)" style="fill: #1abc9c; stroke: #000000; stroke-width: 0.5; stroke-linejoin: miter"/>
   </g>
   <g id="patch_33">
    <path d="M 1002.086726 383.04 
L 1033.681568 383.04 
L 1033.681568 307.506667 
L 1002.086726 307.506667 
z
" clip-path="url(#p5349a13725)" style="fill: #2ecc71; stroke: #000000; stroke-width: 0.5; stroke-linejoin: miter"/>
   </g>
   <g id="matplotlib.axis_5">
    <g id="xtick_15">
     <g id="line2d_27">
      <g>
       <use xlink:href="#mdfec1e70a8" x="780.922838" y="383.04" style="stroke: #000000; stroke-width: 0.8"/>
      </g>
     </g>
     <g id="text_31">
      <!-- Original -->
      <g transform="translate(762.302682 396.878594) scale(0.09 -0.09)">
       <use xlink:href="#DejaVuSerif-4f"/>
       <use xlink:href="#DejaVuSerif-72" transform="translate(81.982422 0)"/>
       <use xlink:href="#DejaVuSerif-69" transform="translate(129.785156 0)"/>
       <use xlink:href="#DejaVuSerif-67" transform="translate(161.767578 0)"/>
       <use xlink:href="#DejaVuSerif-69" transform="translate(225.78125 0)"/>
       <use xlink:href="#DejaVuSerif-6e" transform="translate(257.763672 0)"/>
       <use xlink:href="#DejaVuSerif-61" transform="translate(322.167969 0)"/>
       <use xlink:href="#DejaVuSerif-6c" transform="translate(381.787109 0)"/>
      </g>
      <!-- 0.8B -->
      <g transform="translate(770.459635 407.084594) scale(0.09 -0.09)">
       <use xlink:href="#DejaVuSerif-30"/>
       <use xlink:href="#DejaVuSerif-2e" transform="translate(63.623047 0)"/>
       <use xlink:href="#DejaVuSerif-38" transform="translate(95.410156 0)"/>
       <use xlink:href="#DejaVuSerif-42" transform="translate(159.033203 0)"/>
      </g>
     </g>
    </g>
    <g id="xtick_16">
     <g id="line2d_28">
      <g>
       <use xlink:href="#mdfec1e70a8" x="820.41639" y="383.04" style="stroke: #000000; stroke-width: 0.8"/>
      </g>
     </g>
     <g id="text_32">
      <!-- Wanda -->
      <g transform="translate(805.039749 396.878594) scale(0.09 -0.09)">
       <use xlink:href="#DejaVuSerif-57"/>
       <use xlink:href="#DejaVuSerif-61" transform="translate(94.033203 0)"/>
       <use xlink:href="#DejaVuSerif-6e" transform="translate(153.652344 0)"/>
       <use xlink:href="#DejaVuSerif-64" transform="translate(218.056641 0)"/>
       <use xlink:href="#DejaVuSerif-61" transform="translate(282.070312 0)"/>
      </g>
      <!-- 50% -->
      <g transform="translate(810.414437 406.956625) scale(0.09 -0.09)">
       <use xlink:href="#DejaVuSerif-35"/>
       <use xlink:href="#DejaVuSerif-30" transform="translate(63.623047 0)"/>
       <use xlink:href="#DejaVuSerif-25" transform="translate(127.246094 0)"/>
      </g>
     </g>
    </g>
    <g id="xtick_17">
     <g id="line2d_29">
      <g>
       <use xlink:href="#mdfec1e70a8" x="859.909941" y="383.04" style="stroke: #000000; stroke-width: 0.8"/>
      </g>
     </g>
     <g id="text_33">
      <!-- SparseGPT -->
      <g transform="translate(834.515879 396.878594) scale(0.09 -0.09)">
       <use xlink:href="#DejaVuSerif-53"/>
       <use xlink:href="#DejaVuSerif-70" transform="translate(68.505859 0)"/>
       <use xlink:href="#DejaVuSerif-61" transform="translate(132.519531 0)"/>
       <use xlink:href="#DejaVuSerif-72" transform="translate(192.138672 0)"/>
       <use xlink:href="#DejaVuSerif-73" transform="translate(239.941406 0)"/>
       <use xlink:href="#DejaVuSerif-65" transform="translate(291.259766 0)"/>
       <use xlink:href="#DejaVuSerif-47" transform="translate(350.439453 0)"/>
       <use xlink:href="#DejaVuSerif-50" transform="translate(430.322266 0)"/>
       <use xlink:href="#DejaVuSerif-54" transform="translate(497.607422 0)"/>
      </g>
      <!-- 50% -->
      <g transform="translate(849.907988 406.956625) scale(0.09 -0.09)">
       <use xlink:href="#DejaVuSerif-35"/>
       <use xlink:href="#DejaVuSerif-30" transform="translate(63.623047 0)"/>
       <use xlink:href="#DejaVuSerif-25" transform="translate(127.246094 0)"/>
      </g>
     </g>
    </g>
    <g id="xtick_18">
     <g id="line2d_30">
      <g>
       <use xlink:href="#mdfec1e70a8" x="899.403493" y="383.04" style="stroke: #000000; stroke-width: 0.8"/>
      </g>
     </g>
     <g id="text_34">
      <!-- LayerDrop -->
      <g transform="translate(875.026852 396.750625) scale(0.09 -0.09)">
       <use xlink:href="#DejaVuSerif-4c"/>
       <use xlink:href="#DejaVuSerif-61" transform="translate(66.40625 0)"/>
       <use xlink:href="#DejaVuSerif-79" transform="translate(126.025391 0)"/>
       <use xlink:href="#DejaVuSerif-65" transform="translate(182.519531 0)"/>
       <use xlink:href="#DejaVuSerif-72" transform="translate(241.699219 0)"/>
       <use xlink:href="#DejaVuSerif-44" transform="translate(289.501953 0)"/>
       <use xlink:href="#DejaVuSerif-72" transform="translate(369.677734 0)"/>
       <use xlink:href="#DejaVuSerif-6f" transform="translate(417.480469 0)"/>
       <use xlink:href="#DejaVuSerif-70" transform="translate(477.685547 0)"/>
      </g>
      <!-- 50% -->
      <g transform="translate(889.40154 406.956625) scale(0.09 -0.09)">
       <use xlink:href="#DejaVuSerif-35"/>
       <use xlink:href="#DejaVuSerif-30" transform="translate(63.623047 0)"/>
       <use xlink:href="#DejaVuSerif-25" transform="translate(127.246094 0)"/>
      </g>
     </g>
    </g>
    <g id="xtick_19">
     <g id="line2d_31">
      <g>
       <use xlink:href="#mdfec1e70a8" x="938.897044" y="383.04" style="stroke: #000000; stroke-width: 0.8"/>
      </g>
     </g>
     <g id="text_35">
      <!-- LLM- -->
      <g transform="translate(926.792044 396.878594) scale(0.09 -0.09)">
       <use xlink:href="#DejaVuSerif-4c"/>
       <use xlink:href="#DejaVuSerif-4c" transform="translate(66.40625 0)"/>
       <use xlink:href="#DejaVuSerif-4d" transform="translate(132.8125 0)"/>
       <use xlink:href="#DejaVuSerif-2d" transform="translate(235.205078 0)"/>
      </g>
      <!-- Pruner -->
      <g transform="translate(923.107669 406.956625) scale(0.09 -0.09)">
       <use xlink:href="#DejaVuSerif-50"/>
       <use xlink:href="#DejaVuSerif-72" transform="translate(67.285156 0)"/>
       <use xlink:href="#DejaVuSerif-75" transform="translate(115.087891 0)"/>
       <use xlink:href="#DejaVuSerif-6e" transform="translate(179.492188 0)"/>
       <use xlink:href="#DejaVuSerif-65" transform="translate(243.896484 0)"/>
       <use xlink:href="#DejaVuSerif-72" transform="translate(303.076172 0)"/>
      </g>
     </g>
    </g>
    <g id="xtick_20">
     <g id="line2d_32">
      <g>
       <use xlink:href="#mdfec1e70a8" x="978.390596" y="383.04" style="stroke: #000000; stroke-width: 0.8"/>
      </g>
     </g>
     <g id="text_36">
      <!-- Needle -->
      <g transform="translate(962.142783 396.878594) scale(0.09 -0.09)">
       <use xlink:href="#DejaVuSerif-4e"/>
       <use xlink:href="#DejaVuSerif-65" transform="translate(87.5 0)"/>
       <use xlink:href="#DejaVuSerif-65" transform="translate(146.679688 0)"/>
       <use xlink:href="#DejaVuSerif-64" transform="translate(205.859375 0)"/>
       <use xlink:href="#DejaVuSerif-6c" transform="translate(269.873047 0)"/>
       <use xlink:href="#DejaVuSerif-65" transform="translate(301.855469 0)"/>
      </g>
      <!-- FC-only -->
      <g transform="translate(960.714736 406.956625) scale(0.09 -0.09)">
       <use xlink:href="#DejaVuSerif-46"/>
       <use xlink:href="#DejaVuSerif-43" transform="translate(69.384766 0)"/>
       <use xlink:href="#DejaVuSerif-2d" transform="translate(145.898438 0)"/>
       <use xlink:href="#DejaVuSerif-6f" transform="translate(179.6875 0)"/>
       <use xlink:href="#DejaVuSerif-6e" transform="translate(239.892578 0)"/>
       <use xlink:href="#DejaVuSerif-6c" transform="translate(304.296875 0)"/>
       <use xlink:href="#DejaVuSerif-79" transform="translate(336.279297 0)"/>
      </g>
     </g>
    </g>
    <g id="xtick_21">
     <g id="line2d_33">
      <g>
       <use xlink:href="#mdfec1e70a8" x="1017.884147" y="383.04" style="stroke: #000000; stroke-width: 0.8"/>
      </g>
     </g>
     <g id="text_37">
      <!-- PARSE -->
      <g transform="translate(1002.261413 396.878594) scale(0.09 -0.09)">
       <use xlink:href="#DejaVuSerif-50"/>
       <use xlink:href="#DejaVuSerif-41" transform="translate(58.160156 0)"/>
       <use xlink:href="#DejaVuSerif-52" transform="translate(130.376953 0)"/>
       <use xlink:href="#DejaVuSerif-53" transform="translate(205.669922 0)"/>
       <use xlink:href="#DejaVuSerif-45" transform="translate(274.175781 0)"/>
      </g>
      <!-- P1 -->
      <g transform="translate(1011.993366 406.956625) scale(0.09 -0.09)">
       <use xlink:href="#DejaVuSerif-50"/>
       <use xlink:href="#DejaVuSerif-31" transform="translate(67.285156 0)"/>
      </g>
     </g>
    </g>
   </g>
   <g id="matplotlib.axis_6">
    <g id="ytick_13">
     <g id="line2d_34">
      <g>
       <use xlink:href="#m50bf80e5b7" x="751.69761" y="383.04" style="stroke: #000000; stroke-width: 0.8"/>
      </g>
     </g>
     <g id="text_38">
      <!-- 0 -->
      <g transform="translate(738.33511 386.839219) scale(0.1 -0.1)">
       <use xlink:href="#DejaVuSerif-30"/>
      </g>
     </g>
    </g>
    <g id="ytick_14">
     <g id="line2d_35">
      <g>
       <use xlink:href="#m50bf80e5b7" x="751.69761" y="309.706667" style="stroke: #000000; stroke-width: 0.8"/>
      </g>
     </g>
     <g id="text_39">
      <!-- 10 -->
      <g transform="translate(731.97261 313.505885) scale(0.1 -0.1)">
       <use xlink:href="#DejaVuSerif-31"/>
       <use xlink:href="#DejaVuSerif-30" transform="translate(63.623047 0)"/>
      </g>
     </g>
    </g>
    <g id="ytick_15">
     <g id="line2d_36">
      <g>
       <use xlink:href="#m50bf80e5b7" x="751.69761" y="236.373333" style="stroke: #000000; stroke-width: 0.8"/>
      </g>
     </g>
     <g id="text_40">
      <!-- 20 -->
      <g transform="translate(731.97261 240.172552) scale(0.1 -0.1)">
       <use xlink:href="#DejaVuSerif-32"/>
       <use xlink:href="#DejaVuSerif-30" transform="translate(63.623047 0)"/>
      </g>
     </g>
    </g>
    <g id="ytick_16">
     <g id="line2d_37">
      <g>
       <use xlink:href="#m50bf80e5b7" x="751.69761" y="163.04" style="stroke: #000000; stroke-width: 0.8"/>
      </g>
     </g>
     <g id="text_41">
      <!-- 30 -->
      <g transform="translate(731.97261 166.839219) scale(0.1 -0.1)">
       <use xlink:href="#DejaVuSerif-33"/>
       <use xlink:href="#DejaVuSerif-30" transform="translate(63.623047 0)"/>
      </g>
     </g>
    </g>
    <g id="ytick_17">
     <g id="line2d_38">
      <g>
       <use xlink:href="#m50bf80e5b7" x="751.69761" y="89.706667" style="stroke: #000000; stroke-width: 0.8"/>
      </g>
     </g>
     <g id="text_42">
      <!-- 40 -->
      <g transform="translate(731.97261 93.505885) scale(0.1 -0.1)">
       <use xlink:href="#DejaVuSerif-34"/>
       <use xlink:href="#DejaVuSerif-30" transform="translate(63.623047 0)"/>
      </g>
     </g>
    </g>
    <g id="text_43">
     <!-- Inference Speedup (x) -->
     <g transform="translate(725.476985 284.4) rotate(-90) scale(0.12 -0.12)">
      <defs>
       <path id="DejaVuSerif-49" d="M 1581 331 
L 2175 331 
L 2175 0 
L 353 0 
L 353 331 
L 947 331 
L 947 4331 
L 353 4331 
L 353 4666 
L 2175 4666 
L 2175 4331 
L 1581 4331 
L 1581 331 
z
" transform="scale(0.015625)"/>
       <path id="DejaVuSerif-66" d="M 2753 4078 
L 2450 4078 
Q 2447 4313 2317 4434 
Q 2188 4556 1941 4556 
Q 1619 4556 1487 4379 
Q 1356 4203 1356 3750 
L 1356 3322 
L 2284 3322 
L 2284 2988 
L 1356 2988 
L 1356 331 
L 2094 331 
L 2094 0 
L 231 0 
L 231 331 
L 781 331 
L 781 2988 
L 231 2988 
L 231 3322 
L 781 3322 
L 781 3738 
Q 781 4294 1070 4578 
Q 1359 4863 1919 4863 
Q 2128 4863 2337 4825 
Q 2547 4788 2753 4709 
L 2753 4078 
z
" transform="scale(0.015625)"/>
       <path id="DejaVuSerif-78" d="M 1863 2028 
L 2559 2988 
L 2113 2988 
L 2113 3322 
L 3391 3322 
L 3391 2988 
L 2950 2988 
L 2059 1759 
L 3097 331 
L 3531 331 
L 3531 0 
L 1997 0 
L 1997 331 
L 2419 331 
L 1697 1325 
L 972 331 
L 1403 331 
L 1403 0 
L 141 0 
L 141 331 
L 581 331 
L 1497 1594 
L 488 2988 
L 78 2988 
L 78 3322 
L 1563 3322 
L 1563 2988 
L 1166 2988 
L 1863 2028 
z
" transform="scale(0.015625)"/>
      </defs>
      <use xlink:href="#DejaVuSerif-49"/>
      <use xlink:href="#DejaVuSerif-6e" transform="translate(39.501953 0)"/>
      <use xlink:href="#DejaVuSerif-66" transform="translate(103.90625 0)"/>
      <use xlink:href="#DejaVuSerif-65" transform="translate(140.917969 0)"/>
      <use xlink:href="#DejaVuSerif-72" transform="translate(200.097656 0)"/>
      <use xlink:href="#DejaVuSerif-65" transform="translate(247.900391 0)"/>
      <use xlink:href="#DejaVuSerif-6e" transform="translate(307.080078 0)"/>
      <use xlink:href="#DejaVuSerif-63" transform="translate(371.484375 0)"/>
      <use xlink:href="#DejaVuSerif-65" transform="translate(427.490234 0)"/>
      <use xlink:href="#DejaVuSerif-20" transform="translate(486.669922 0)"/>
      <use xlink:href="#DejaVuSerif-53" transform="translate(518.457031 0)"/>
      <use xlink:href="#DejaVuSerif-70" transform="translate(586.962891 0)"/>
      <use xlink:href="#DejaVuSerif-65" transform="translate(650.976562 0)"/>
      <use xlink:href="#DejaVuSerif-65" transform="translate(710.15625 0)"/>
      <use xlink:href="#DejaVuSerif-64" transform="translate(769.335938 0)"/>
      <use xlink:href="#DejaVuSerif-75" transform="translate(833.349609 0)"/>
      <use xlink:href="#DejaVuSerif-70" transform="translate(897.753906 0)"/>
      <use xlink:href="#DejaVuSerif-20" transform="translate(961.767578 0)"/>
      <use xlink:href="#DejaVuSerif-28" transform="translate(993.554688 0)"/>
      <use xlink:href="#DejaVuSerif-78" transform="translate(1032.568359 0)"/>
      <use xlink:href="#DejaVuSerif-29" transform="translate(1088.964844 0)"/>
     </g>
    </g>
   </g>
   <g id="patch_34">
    <path d="M 751.69761 383.04 
L 751.69761 50.4 
" style="fill: none; stroke: #000000; stroke-width: 0.8; stroke-linejoin: miter; stroke-linecap: square"/>
   </g>
   <g id="patch_35">
    <path d="M 1047.109375 383.04 
L 1047.109375 50.4 
" style="fill: none; stroke: #000000; stroke-width: 0.8; stroke-linejoin: miter; stroke-linecap: square"/>
   </g>
   <g id="patch_36">
    <path d="M 751.69761 383.04 
L 1047.109375 383.04 
" style="fill: none; stroke: #000000; stroke-width: 0.8; stroke-linejoin: miter; stroke-linecap: square"/>
   </g>
   <g id="patch_37">
    <path d="M 751.69761 50.4 
L 1047.109375 50.4 
" style="fill: none; stroke: #000000; stroke-width: 0.8; stroke-linejoin: miter; stroke-linecap: square"/>
   </g>
   <g id="text_44">
    <!-- (c) Speedup over Original -->
    <g transform="translate(814.242321 44.4) scale(0.13 -0.13)">
     <defs>
      <path id="DejaVuSerif-76" d="M 1581 0 
L 359 2988 
L -19 2988 
L -19 3322 
L 1509 3322 
L 1509 2988 
L 978 2988 
L 1913 703 
L 2847 2988 
L 2350 2988 
L 2350 3322 
L 3597 3322 
L 3597 2988 
L 3225 2988 
L 2003 0 
L 1581 0 
z
" transform="scale(0.015625)"/>
     </defs>
     <use xlink:href="#DejaVuSerif-28"/>
     <use xlink:href="#DejaVuSerif-63" transform="translate(39.013672 0)"/>
     <use xlink:href="#DejaVuSerif-29" transform="translate(95.019531 0)"/>
     <use xlink:href="#DejaVuSerif-20" transform="translate(134.033203 0)"/>
     <use xlink:href="#DejaVuSerif-53" transform="translate(165.820312 0)"/>
     <use xlink:href="#DejaVuSerif-70" transform="translate(234.326172 0)"/>
     <use xlink:href="#DejaVuSerif-65" transform="translate(298.339844 0)"/>
     <use xlink:href="#DejaVuSerif-65" transform="translate(357.519531 0)"/>
     <use xlink:href="#DejaVuSerif-64" transform="translate(416.699219 0)"/>
     <use xlink:href="#DejaVuSerif-75" transform="translate(480.712891 0)"/>
     <use xlink:href="#DejaVuSerif-70" transform="translate(545.117188 0)"/>
     <use xlink:href="#DejaVuSerif-20" transform="translate(609.130859 0)"/>
     <use xlink:href="#DejaVuSerif-6f" transform="translate(640.917969 0)"/>
     <use xlink:href="#DejaVuSerif-76" transform="translate(701.123047 0)"/>
     <use xlink:href="#DejaVuSerif-65" transform="translate(757.617188 0)"/>
     <use xlink:href="#DejaVuSerif-72" transform="translate(816.796875 0)"/>
     <use xlink:href="#DejaVuSerif-20" transform="translate(864.599609 0)"/>
     <use xlink:href="#DejaVuSerif-4f" transform="translate(896.386719 0)"/>
     <use xlink:href="#DejaVuSerif-72" transform="translate(978.369141 0)"/>
     <use xlink:href="#DejaVuSerif-69" transform="translate(1026.171875 0)"/>
     <use xlink:href="#DejaVuSerif-67" transform="translate(1058.154297 0)"/>
     <use xlink:href="#DejaVuSerif-69" transform="translate(1122.167969 0)"/>
     <use xlink:href="#DejaVuSerif-6e" transform="translate(1154.150391 0)"/>
     <use xlink:href="#DejaVuSerif-61" transform="translate(1218.554688 0)"/>
     <use xlink:href="#DejaVuSerif-6c" transform="translate(1278.173828 0)"/>
    </g>
   </g>
  </g>
  <g id="text_45">
   <!-- Figure 6: PARSE vs Baselines on Qwen3.5-0.8B -->
   <g transform="translate(360.473125 17.837812) scale(0.14 -0.14)">
    <defs>
     <path id="DejaVuSerif-3a" d="M 666 325 
Q 666 500 786 622 
Q 906 744 1081 744 
Q 1256 744 1376 622 
Q 1497 500 1497 325 
Q 1497 150 1378 29 
Q 1259 -91 1081 -91 
Q 903 -91 784 29 
Q 666 150 666 325 
z
M 666 2363 
Q 666 2538 786 2658 
Q 906 2778 1081 2778 
Q 1259 2778 1378 2659 
Q 1497 2541 1497 2363 
Q 1497 2184 1378 2065 
Q 1259 1947 1081 1947 
Q 906 1947 786 2067 
Q 666 2188 666 2363 
z
" transform="scale(0.015625)"/>
     <path id="DejaVuSerif-51" d="M 2700 -91 
Q 1628 -91 993 567 
Q 359 1225 359 2328 
Q 359 2894 529 3339 
Q 700 3784 1050 4134 
Q 1356 4441 1750 4595 
Q 2144 4750 2625 4750 
Q 3641 4750 4266 4084 
Q 4891 3419 4891 2328 
Q 4891 1403 4422 773 
Q 3953 144 3128 -38 
Q 3297 -247 3539 -347 
Q 3781 -447 4122 -447 
L 4219 -447 
L 4219 -1025 
Q 3691 -1000 3314 -767 
Q 2938 -534 2700 -91 
z
M 2625 244 
Q 3391 244 3781 770 
Q 4172 1297 4172 2328 
Q 4172 3363 3781 3889 
Q 3391 4416 2625 4416 
Q 1856 4416 1465 3889 
Q 1075 3363 1075 2328 
Q 1075 1297 1465 770 
Q 1856 244 2625 244 
z
" transform="scale(0.015625)"/>
     <path id="DejaVuSerif-77" d="M 3072 3322 
L 3922 728 
L 4672 2988 
L 4191 2988 
L 4191 3322 
L 5394 3322 
L 5394 2988 
L 5025 2988 
L 4038 0 
L 3559 0 
L 2741 2484 
L 1919 0 
L 1459 0 
L 475 2988 
L 103 2988 
L 103 3322 
L 1606 3322 
L 1606 2988 
L 1069 2988 
L 1813 728 
L 2669 3322 
L 3072 3322 
z
" transform="scale(0.015625)"/>
    </defs>
    <use xlink:href="#DejaVuSerif-46"/>
    <use xlink:href="#DejaVuSerif-69" transform="translate(69.384766 0)"/>
    <use xlink:href="#DejaVuSerif-67" transform="translate(101.367188 0)"/>
    <use xlink:href="#DejaVuSerif-75" transform="translate(165.380859 0)"/>
    <use xlink:href="#DejaVuSerif-72" transform="translate(229.785156 0)"/>
    <use xlink:href="#DejaVuSerif-65" transform="translate(277.587891 0)"/>
    <use xlink:href="#DejaVuSerif-20" transform="translate(336.767578 0)"/>
    <use xlink:href="#DejaVuSerif-36" transform="translate(368.554688 0)"/>
    <use xlink:href="#DejaVuSerif-3a" transform="translate(432.177734 0)"/>
    <use xlink:href="#DejaVuSerif-20" transform="translate(465.869141 0)"/>
    <use xlink:href="#DejaVuSerif-50" transform="translate(497.65625 0)"/>
    <use xlink:href="#DejaVuSerif-41" transform="translate(555.816406 0)"/>
    <use xlink:href="#DejaVuSerif-52" transform="translate(628.033203 0)"/>
    <use xlink:href="#DejaVuSerif-53" transform="translate(703.326172 0)"/>
    <use xlink:href="#DejaVuSerif-45" transform="translate(771.832031 0)"/>
    <use xlink:href="#DejaVuSerif-20" transform="translate(844.830078 0)"/>
    <use xlink:href="#DejaVuSerif-76" transform="translate(876.617188 0)"/>
    <use xlink:href="#DejaVuSerif-73" transform="translate(933.111328 0)"/>
    <use xlink:href="#DejaVuSerif-20" transform="translate(984.429688 0)"/>
    <use xlink:href="#DejaVuSerif-42" transform="translate(1016.216797 0)"/>
    <use xlink:href="#DejaVuSerif-61" transform="translate(1089.703125 0)"/>
    <use xlink:href="#DejaVuSerif-73" transform="translate(1149.322266 0)"/>
    <use xlink:href="#DejaVuSerif-65" transform="translate(1200.640625 0)"/>
    <use xlink:href="#DejaVuSerif-6c" transform="translate(1259.820312 0)"/>
    <use xlink:href="#DejaVuSerif-69" transform="translate(1291.802734 0)"/>
    <use xlink:href="#DejaVuSerif-6e" transform="translate(1323.785156 0)"/>
    <use xlink:href="#DejaVuSerif-65" transform="translate(1388.189453 0)"/>
    <use xlink:href="#DejaVuSerif-73" transform="translate(1447.369141 0)"/>
    <use xlink:href="#DejaVuSerif-20" transform="translate(1498.6875 0)"/>
    <use xlink:href="#DejaVuSerif-6f" transform="translate(1530.474609 0)"/>
    <use xlink:href="#DejaVuSerif-6e" transform="translate(1590.679688 0)"/>
    <use xlink:href="#DejaVuSerif-20" transform="translate(1655.083984 0)"/>
    <use xlink:href="#DejaVuSerif-51" transform="translate(1686.871094 0)"/>
    <use xlink:href="#DejaVuSerif-77" transform="translate(1768.853516 0)"/>
    <use xlink:href="#DejaVuSerif-65" transform="translate(1854.449219 0)"/>
    <use xlink:href="#DejaVuSerif-6e" transform="translate(1913.628906 0)"/>
    <use xlink:href="#DejaVuSerif-33" transform="translate(1978.033203 0)"/>
    <use xlink:href="#DejaVuSerif-2e" transform="translate(2041.65625 0)"/>
    <use xlink:href="#DejaVuSerif-35" transform="translate(2073.443359 0)"/>
    <use xlink:href="#DejaVuSerif-2d" transform="translate(2137.066406 0)"/>
    <use xlink:href="#DejaVuSerif-30" transform="translate(2170.855469 0)"/>
    <use xlink:href="#DejaVuSerif-2e" transform="translate(2234.478516 0)"/>
    <use xlink:href="#DejaVuSerif-38" transform="translate(2266.265625 0)"/>
    <use xlink:href="#DejaVuSerif-42" transform="translate(2329.888672 0)"/>
   </g>
  </g>
 </g>
 <defs>
  <clipPath id="p0bad4d3188">
   <rect x="42.709375" y="50.4" width="295.411765" height="332.64"/>
  </clipPath>
  <clipPath id="p750d5987cd">
   <rect x="397.203493" y="50.4" width="295.411765" height="332.64"/>
  </clipPath>
  <clipPath id="p5349a13725">
   <rect x="751.69761" y="50.4" width="295.411765" height="332.64"/>
  </clipPath>
 </defs>
</svg>
